<?xml version="1.0" encoding="UTF-8" standalone="no"?>
<!-- Created with Inkscape (http://www.inkscape.org/) -->

<svg
   xmlns:dc="http://purl.org/dc/elements/1.1/"
   xmlns:cc="http://creativecommons.org/ns#"
   xmlns:rdf="http://www.w3.org/1999/02/22-rdf-syntax-ns#"
   xmlns:svg="http://www.w3.org/2000/svg"
   xmlns="http://www.w3.org/2000/svg"
   xmlns:sodipodi="http://sodipodi.sourceforge.net/DTD/sodipodi-0.dtd"
   xmlns:inkscape="http://www.inkscape.org/namespaces/inkscape"
   version="1.1"
   id="svg3968"
   width="512"
   height="512"
   viewBox="0 0 512 512"
   sodipodi:docname="U+65AC.svg"
   inkscape:version="0.92.4 (5da689c313, 2019-01-14)">
  <metadata
     id="metadata3974">
    <rdf:RDF>
      <cc:Work
         rdf:about="">
        <dc:format>image/svg+xml</dc:format>
        <dc:type
           rdf:resource="http://purl.org/dc/dcmitype/StillImage" />
        <dc:title></dc:title>
      </cc:Work>
    </rdf:RDF>
  </metadata>
  <defs
     id="defs3972">
    <inkscape:path-effect
       effect="bspline"
       id="path-effect3996"
       is_visible="true"
       weight="33.333333"
       steps="2"
       helper_size="0"
       apply_no_weight="true"
       apply_with_weight="true"
       only_selected="false" />
    <inkscape:path-effect
       effect="bspline"
       id="path-effect3992"
       is_visible="true"
       weight="33.333333"
       steps="2"
       helper_size="0"
       apply_no_weight="true"
       apply_with_weight="true"
       only_selected="false" />
    <inkscape:path-effect
       effect="bspline"
       id="path-effect3988"
       is_visible="true"
       weight="33.333333"
       steps="2"
       helper_size="0"
       apply_no_weight="true"
       apply_with_weight="true"
       only_selected="false" />
    <inkscape:path-effect
       effect="bspline"
       id="path-effect3984"
       is_visible="true"
       weight="33.333333"
       steps="2"
       helper_size="0"
       apply_no_weight="true"
       apply_with_weight="true"
       only_selected="false" />
    <inkscape:path-effect
       effect="bspline"
       id="path-effect3980"
       is_visible="true"
       weight="33.333333"
       steps="2"
       helper_size="0"
       apply_no_weight="true"
       apply_with_weight="true"
       only_selected="false" />
  </defs>
  <sodipodi:namedview
     pagecolor="#ffffff"
     bordercolor="#666666"
     borderopacity="1"
     objecttolerance="10"
     gridtolerance="10"
     guidetolerance="10"
     inkscape:pageopacity="0"
     inkscape:pageshadow="2"
     inkscape:window-width="1920"
     inkscape:window-height="1017"
     id="namedview3970"
     showgrid="false"
     inkscape:zoom="1.4088798"
     inkscape:cx="256"
     inkscape:cy="241.78049"
     inkscape:window-x="-8"
     inkscape:window-y="-8"
     inkscape:window-maximized="1"
     inkscape:current-layer="svg3968" />
  <path
     style="fill:none;stroke:#000000;stroke-width:1px;stroke-linecap:butt;stroke-linejoin:miter;stroke-opacity:1"
     d="M 155.83055,31.424946 C 156.06522,33.619203 157.94552,35.656196 160.60931,38.711708 163.27309,41.767219 166.72024,45.841133 169.14896,52.265237 171.57767,58.689342 172.98787,67.463902 173.45803,75.298702 173.92818,83.133503 173.45815,90.027309 172.90971,96.060332 172.36127,102.09336 171.73459,107.26339 170.55951,111.25931 169.38443,115.25522 167.66119,118.07507 163.42934,120.50463 159.19749,122.93418 152.46253,124.97033 146.82119,126.38071 141.17985,127.79109 136.63659,128.57441 132.7184,127.79082 128.80021,127.00723 125.5105,124.65744 124.10015,126.0673 122.6898,127.47716 123.15985,132.6477 125.43229,137.19257 127.70473,141.73744 131.77801,145.65406 140.23985,147.45599 148.70169,149.25793 161.5505,148.94455 167.66111,150.51077 173.77172,152.077 173.1449,155.5245 172.43965,159.36415 171.73441,163.2038 170.95121,167.43308 166.8767,170.4109 162.80219,173.38872 155.43966,175.11187 149.7201,176.67883 144.00053,178.24579 139.92718,179.65579 136.63621,181.45782 133.34523,183.25985 130.8389,185.45289 131.07406,187.96103 131.30921,190.46918 134.2851,193.28844 137.49757,195.24717 140.71003,197.2059 144.15728,198.30276 149.17102,198.85108 154.18477,199.39941 160.76702,199.39941 164.44865,201.82736 168.13029,204.2553 168.91387,209.11349 168.75734,213.26593 168.60081,217.41837 167.50416,220.86501 165.15346,222.58923 162.80276,224.31344 159.2001,224.31344 155.67412,224.62681 152.14814,224.94017 148.70187,225.56677 146.351,227.21198 144.00012,228.85719 142.74701,231.52007 142.82529,234.18485 142.90357,236.84964 144.31316,239.5122 147.21291,240.60914 150.11266,241.70607 154.49943,241.23606 158.25928,241.86276 162.01912,242.48947 165.15375,244.21352 166.95547,247.81658 168.75718,251.41965 169.22731,256.90447 169.14912,260.74347 169.07093,264.58246 168.44427,266.77579 167.11227,268.34328 165.78026,269.91077 163.74437,270.85041 160.53083,271.55588 157.31729,272.26136 152.93251,272.73116 150.03349,272.96625 147.13446,273.20135 145.72458,273.20135 144.47076,273.4363 143.21694,273.67124 142.12088,274.14098 140.39552,273.67048 138.67015,273.19998 136.32235,271.7913 134.67678,269.83213 133.03121,267.87296 132.09117,265.3662 131.22952,259.96106 130.36786,254.55592 129.58422,246.24942 128.80076,240.68712 128.01729,235.12482 127.23374,232.30406 126.29374,227.91733 125.35374,223.5306 124.25663,217.57489 122.84649,211.85608 121.43635,206.13727 119.71251,200.65232 117.8501,196.06306 115.98768,191.4738 113.91491,187.64714 111.48648,184.67033 109.05805,181.69352 106.23733,179.49962 103.33847,177.30589 100.43961,175.11216 97.462608,172.91858 92.134981,169.94136 86.807353,166.96415 79.129885,163.20375 78.18958,168.06123 77.249275,172.9187 83.046568,186.39349 88.295856,196.81375 93.545144,207.23401 98.245735,214.59827 102.31977,222.19787 106.3938,229.79746 109.84091,237.63179 112.42638,243.97791 115.01185,250.32404 116.73536,255.1812 117.91062,259.49033 119.08588,263.79946 119.71257,267.55963 119.55609,270.61518 119.39961,273.67073 118.45966,276.0206 116.81403,278.45006 115.1684,280.87952 112.81923,283.3853 112.1921,286.0499 111.56497,288.71449 112.66136,291.53379 115.01253,293.41454 117.3637,295.29528 120.96693,296.23526 126.21571,295.60842 131.46449,294.98158 138.36026,292.78748 145.64576,290.75069 152.93126,288.7139 160.6105,286.83327 165.31045,287.53809 170.01039,288.24291 171.73427,291.53395 172.28282,295.76456 172.83137,299.99518 172.20467,305.16541 171.34296,308.92623 170.48125,312.68704 169.38464,315.03692 165.70102,316.36946 162.01739,317.702 155.75292,318.01522 146.19371,320.44414 136.6345,322.87306 123.7879,327.41637 111.25194,330.70711 98.715967,333.99786 86.495135,336.03466 73.09732,339.40366 59.699506,342.77266 45.128502,347.47298 39.722164,351.8607 34.315825,356.24842 38.076126,360.32208 42.072136,362.98596 46.068146,365.64985 50.298787,366.90337 55.704435,365.88473 61.110084,364.86609 67.692157,361.57505 76.622577,357.4232 85.552996,353.27136 96.83688,348.2563 104.59291,344.73081 112.34893,341.20533 116.58007,339.16812 123.7864,337.60158 130.99273,336.03505 141.18062,334.9379 149.32829,333.91942 157.47596,332.90094 163.58761,331.96069 166.8775,336.03346 170.1674,340.10622 170.63756,349.19603 171.6561,354.83744 172.67464,360.47885 174.24139,362.67231 176.27917,363.29891 178.31695,363.9255 180.82381,362.98543 182.23337,357.58164 183.64294,352.17785 183.95647,342.30151 188.03051,337.60127 192.10455,332.90102 199.93997,333.37115 210.59429,332.97942 221.24861,332.58768 234.72574,331.334 244.67545,330.23716 254.62515,329.14032 261.05004,328.20009 264.96716,327.0246 268.88427,325.84912 270.29475,324.43864 267.16317,320.44587 264.03159,316.45309 256.34824,309.86736 241.46291,308.69205 226.57758,307.51673 204.48424,311.74737 192.81002,309.70985 181.13579,307.67233 179.88232,299.36809 179.56912,293.96217 179.25591,288.55624 179.88274,286.04892 185.83474,284.87429 191.78674,283.69966 203.07386,283.85642 210.82997,283.77804 218.58608,283.69966 222.81713,283.38625 226.65532,278.1378 230.49351,272.88934 233.9416,262.70179 237.70194,250.71566 241.46228,238.72954 245.53676,224.93902 249.29718,210.91571 253.05761,196.8924 256.50513,182.63219 256.58341,173.3097 256.66169,163.98721 253.37088,159.59948 244.28365,158.7376 235.19641,157.87572 220.31013,160.53958 209.26309,162.81164 198.21604,165.08369 191.00876,166.96385 187.56102,166.02301 184.11327,165.08216 184.42661,161.32216 184.34825,155.9957 184.26989,150.66923 183.79968,143.77281 185.60199,139.07232 187.40429,134.37183 191.47883,131.86442 197.82362,129.43623 204.16841,127.00804 212.78895,124.65699 219.29129,121.36642 225.79362,118.07584 230.18161,113.84458 229.63364,110.94654 229.08568,108.04851 223.60018,106.48122 216.07866,107.42127 208.55714,108.36132 199.00008,111.80813 193.98521,112.59134 188.97035,113.37454 188.50033,111.49448 188.18706,104.44549 187.87379,97.396498 187.71704,85.169932 188.89239,76.160265 190.06775,67.150597 192.57502,61.352524 192.73158,55.869201 192.88813,50.385877 190.69399,45.213966 185.99382,40.435397 181.29364,35.656828 174.08513,31.269034 169.07112,28.683607 164.05711,26.09818 161.23677,25.314752 159.12128,26.097809 157.00578,26.880865 155.59589,29.230689 155.83055,31.424946 Z"
     id="path3978"
     inkscape:connector-curvature="0"
     inkscape:path-effect="#path-effect3980"
     inkscape:original-d="M 154.18495,31.582246 C 156.06626,33.618243 157.94656,35.655239 159.82587,37.693235 163.27416,41.766311 166.72132,45.840221 170.16754,49.915213 171.5788,58.68916 172.989,67.46372 174.39823,76.239474 173.92911,83.133566 173.45907,90.027372 172.988,96.922821 172.36213,102.09346 171.73546,107.2635 171.10769,112.43533 169.38471,115.25539 167.66147,118.07524 165.93686,120.8967 159.1973,122.93354 152.46234,124.96969 145.72358,127.00769 141.17971,127.79029 136.63645,128.57361 132.09138,129.35807 128.80102,127.0061 125.51131,124.65631 122.21978,122.30693 122.69088,127.47706 123.16093,132.6476 123.63001,137.81944 127.70571,141.73642 131.77899,145.65304 135.85199,149.57134 148.70167,149.25696 161.55048,148.94357 174.39823,148.63119 173.77251,152.07714 173.14569,155.52464 172.51792,158.97286 171.7352,163.20395 170.952,167.43323 170.16754,171.66492 162.80202,173.388 155.43949,175.11114 148.07397,176.83575 144.00033,178.24521 139.92698,179.65521 135.85199,181.06644 133.34517,183.25978 130.83884,185.45282 128.33077,187.6475 131.31018,190.46816 134.28607,193.28742 137.26222,196.10887 140.71041,197.20471 144.15766,198.30156 147.60389,199.39941 154.18477,199.39841 160.76702,199.39841 167.34708,199.39941 168.13143,204.25512 168.915,209.11331 169.69746,213.97177 168.60144,217.41857 167.50478,220.86521 166.40693,224.31344 162.80276,224.31244 159.2001,224.31244 155.59518,224.31344 152.148,224.93938 148.70173,225.56598 145.25351,226.19374 144.00056,228.85739 142.74744,231.52027 141.4929,234.18504 142.90477,236.84901 144.31436,239.51157 145.72358,242.17633 150.11257,241.70519 154.49934,241.23518 158.88572,240.7661 162.01977,242.48828 165.1544,244.21233 168.28724,245.93694 168.75826,251.41956 169.22839,256.90438 169.69746,262.3896 169.07159,264.58265 168.44493,266.77598 167.81716,268.97067 165.78006,269.91033 163.74417,270.84997 161.70617,271.79112 157.3172,272.26048 152.93242,272.73028 148.54404,273.20135 147.13446,273.20035 145.72458,273.20035 144.31336,273.20135 143.21673,273.67076 142.12067,274.1405 141.02282,274.61158 138.67086,273.1988 136.32306,271.79012 133.97168,270.38089 133.03241,267.87251 132.09238,265.36575 131.15123,262.85968 130.36894,254.55582 129.58531,246.24932 128.80085,237.94565 128.01847,235.12449 127.23493,232.30373 126.45047,229.48428 125.35488,223.53039 124.25778,217.57468 123.15993,211.62138 121.43755,206.13689 119.71371,200.65194 117.9891,195.16872 116.11001,191.40754 113.9161,187.6465 111.87811,183.8869 109.05892,181.69241 106.23819,179.49852 103.41674,177.30583 100.44044,175.11103 97.463441,172.91745 94.485292,170.72477 86.807943,166.96294 79.130473,163.20255 71.451564,159.44294 77.25048,172.91818 83.047774,186.39297 88.844379,199.86948 93.546308,207.23327 98.246901,214.59753 102.94666,221.96306 106.39501,229.79693 109.84211,237.63126 113.28834,245.46686 115.01305,250.32361 116.73656,255.18077 118.45917,260.03922 119.08701,263.79927 119.71371,267.55944 120.33948,271.32105 119.40012,273.67093 118.46017,276.02081 117.51902,278.37219 115.16843,280.87955 112.81926,283.38533 110.46788,285.89341 111.56617,288.71402 112.66257,291.53332 113.75841,294.35477 117.36401,295.2941 120.96724,296.23408 124.57016,297.17523 131.46429,294.98096 138.36006,292.78685 145.25351,290.59417 152.93109,288.71319 160.61033,286.83256 168.28724,284.95325 170.01159,288.24228 171.73546,291.53332 173.45807,294.82485 172.83223,299.99528 172.20554,305.16552 171.57777,310.33736 170.48169,312.68724 169.38508,315.03712 168.28724,317.3885 162.01734,317.70105 155.75287,318.01427 149.48419,318.32866 136.6343,322.87248 123.7877,327.41579 110.93795,331.96086 98.715832,333.99705 86.494999,336.03385 74.272021,338.07185 59.699309,342.77205 45.128304,347.47237 30.554945,352.17413 34.316863,356.24746 38.077162,360.32112 41.836771,364.39611 46.068499,365.64866 50.299141,366.90218 54.528825,368.15672 61.109884,364.86569 67.691956,361.57465 74.272021,358.28512 85.552789,353.27089 96.836672,348.25583 108.1175,343.24269 112.34873,341.20491 116.57987,339.16769 120.80955,337.1317 130.99264,336.03417 141.18052,334.93701 151.3645,333.84117 157.47583,332.90011 163.58748,331.95986 169.69746,331.02071 170.16845,340.10617 170.63862,349.19598 171.10769,358.28512 172.67578,360.47804 174.24253,362.6715 175.80845,364.86619 178.31674,363.92495 180.8236,362.98488 183.32967,362.04573 183.6439,352.17788 183.95744,342.30154 184.26982,332.43094 192.10461,332.89996 199.94003,333.37009 207.77363,333.84117 221.24853,332.58678 234.72566,331.33309 248.20017,330.08056 254.62503,329.13948 261.04992,328.19925 267.47329,327.2601 268.88427,325.84912 270.29475,324.43864 271.70397,323.02942 264.03251,316.45202 256.34916,309.86629 248.67025,303.28622 226.57743,307.51595 204.48409,311.74659 182.38952,315.97827 181.13692,307.67216 179.88345,299.36792 178.62891,291.06424 179.25662,288.55642 179.88345,286.0491 180.50921,283.54303 191.78675,283.69864 203.07387,283.85541 214.35469,284.0131 218.58601,283.69874 222.81706,283.38533 227.04675,283.07295 230.4941,272.88954 233.9422,262.70199 237.38842,252.518 241.46293,238.72973 245.53741,224.93921 249.6104,211.15131 253.05833,196.89257 256.50585,182.63236 259.95207,168.37439 256.66281,163.98637 253.37201,159.59863 250.08047,155.21226 235.19627,157.87492 220.30999,160.53878 205.42325,163.20355 198.21586,165.083 191.00858,166.96316 183.79975,168.84446 184.11418,165.08224 184.42752,161.32224 184.7399,157.56264 184.27096,150.66916 183.80075,143.77274 183.32967,136.87929 187.40412,134.37155 191.47866,131.86414 195.55165,129.35807 204.16823,127.00737 212.78877,124.65631 221.40583,122.30693 225.79361,118.07583 230.18159,113.84456 234.56796,109.61488 229.08602,108.04732 223.60052,106.48003 218.1153,104.91411 208.55694,108.36075 198.99987,111.80756 189.44066,115.25579 188.97152,113.37425 188.50151,111.49418 188.03043,109.61488 187.8748,97.396485 187.71805,85.169919 187.56036,72.948941 190.06823,67.150805 192.5755,61.352731 195.08157,55.556126 192.88934,50.385365 190.6952,45.213453 188.50051,40.043616 181.29436,35.655653 174.08584,31.267862 166.87701,26.881485 164.05744,26.096994 161.2371,25.313565 158.41564,24.531105 157.00608,26.881044 155.59618,29.230866 154.18495,31.582246 Z" />
  <path
     style="fill:none;stroke:#000000;stroke-width:1px;stroke-linecap:butt;stroke-linejoin:miter;stroke-opacity:1"
     d="M 182.93853,193.60109 C 180.66588,197.9882 180.82257,205.03934 183.56543,209.19234 186.30828,213.34534 191.63507,214.5987 195.39507,217.41858 199.15507,220.23845 201.34905,224.62642 200.096,227.91697 198.84295,231.20753 194.14262,233.40101 190.69508,235.28139 187.24754,237.16178 185.05442,238.7283 183.72189,242.41193 182.38937,246.09556 181.91953,251.89017 181.84112,256.19955 181.76271,260.50894 182.07604,263.32887 186.54359,265.20981 191.01114,267.09075 199.62652,268.03061 205.26745,267.71691 210.90838,267.40321 213.57241,265.83614 215.68698,262.23322 217.80156,258.63031 219.36917,252.98689 220.77924,247.42491 222.1893,241.86293 223.4431,236.37756 225.00994,231.44221 226.57679,226.50685 228.45749,222.11854 229.47572,216.00873 230.49395,209.89891 230.65069,202.06215 232.29609,195.48135 233.94149,188.90055 237.07573,183.57233 235.19632,180.75252 233.3169,177.93271 226.42093,177.61926 218.82092,178.87276 211.2209,180.12627 202.91737,182.94634 196.41432,185.21848 189.91127,187.49062 185.21118,189.21398 182.93853,193.60109 Z"
     id="path3982"
     inkscape:connector-curvature="0"
     inkscape:path-effect="#path-effect3984"
     inkscape:original-d="M 180.50921,190.93804 C 180.66691,197.98818 180.8236,205.03932 180.97929,212.09146 186.30856,213.34417 191.63535,214.59753 196.96188,215.85207 199.15627,220.23785 201.35025,224.62582 203.54294,229.0142 198.84275,231.20709 194.14242,233.40058 189.44066,235.59526 187.24741,237.16159 185.05428,238.72811 182.8596,240.29603 182.39028,246.09563 181.92044,251.89024 181.44937,257.68884 181.76381,260.50882 182.07714,263.32875 182.38952,266.15021 191.01126,267.08966 199.62664,268.02951 208.2437,268.97067 210.9082,267.40291 213.57223,265.83583 216.235,264.26991 217.80222,258.63049 219.36984,252.98708 220.93576,247.34717 222.19003,241.8631 223.44383,236.37773 224.69637,230.8945 226.57727,226.50706 228.45797,222.11875 230.33728,217.73237 230.49493,209.89893 230.65166,202.06217 230.80736,194.22857 233.94179,188.90073 237.07604,183.57251 240.20888,178.24598 233.31695,177.93167 226.42098,177.61822 219.52553,177.30583 211.2207,180.12568 202.91717,182.94574 194.6115,185.7672 189.91106,187.49006 185.21098,189.21343 180.50921,190.93804 Z" />
  <path
     style="fill:none;stroke:#000000;stroke-width:1px;stroke-linecap:butt;stroke-linejoin:miter;stroke-opacity:1"
     d="M 281.49752,155.2902 C 279.69527,155.52464 279.69527,157.24825 282.12534,161.40291 284.55542,165.55758 289.41005,172.13482 293.17065,178.32409 296.93126,184.51336 299.59495,190.31082 300.84859,198.92904 302.10223,207.54726 301.94555,218.9849 300.45703,229.17018 298.96851,239.35547 296.1483,248.28612 294.73789,257.92347 293.32747,267.56082 293.32747,277.90111 292.77907,287.38134 292.23066,296.86157 291.13392,305.4788 289.17521,314.33244 287.21649,323.18608 284.3964,332.27305 280.94899,341.36178 277.50158,350.45051 273.42813,359.53745 269.35412,365.88385 265.28012,372.23026 261.20667,375.8337 253.9192,379.43834 246.63173,383.04299 236.13608,386.64597 233.55055,389.85862 230.96502,393.07127 236.29195,395.8914 242.79481,396.20459 249.29767,396.51779 256.97611,394.32395 263.86996,389.78005 270.76381,385.23616 276.87575,378.34064 281.4194,371.68165 285.96305,365.02266 288.94066,358.5973 292.54414,350.21525 296.14763,341.83319 300.37911,331.48958 303.12097,321.07022 305.86282,310.65087 307.1165,300.15128 308.13492,287.77338 309.15335,275.39549 309.93689,261.13502 312.13099,252.75221 314.32508,244.36941 317.92926,241.86215 327.25004,239.51243 336.57082,237.16272 351.61803,234.96833 365.17147,232.30461 378.72491,229.6409 390.79109,226.50682 403.95245,224.70502 417.11381,222.90323 431.37418,222.4331 445.08428,221.57131 458.79439,220.70951 471.95747,219.45588 476.57948,216.71398 481.2015,213.97208 477.28387,209.74104 473.52338,206.29391 469.7629,202.84678 466.15895,200.18299 459.02964,198.92939 451.90032,197.67579 441.24576,197.83247 428.31803,199.79116 415.39029,201.74985 400.19261,205.5101 383.81758,208.40906 367.44254,211.30803 349.8944,213.34487 338.76917,215.14674 327.64393,216.94861 322.94347,218.51543 320.51406,218.82849 318.08464,219.14155 317.92799,218.20164 317.14513,213.66109 316.36228,209.12054 314.95084,200.96553 312.99228,193.44477 311.03372,185.92401 308.5264,179.02888 304.68777,173.15342 300.84915,167.27797 295.67789,162.42012 291.29077,159.36471 286.90366,156.3093 283.29976,155.05577 281.49752,155.2902 Z"
     id="path3986"
     inkscape:connector-curvature="0"
     inkscape:path-effect="#path-effect3988"
     inkscape:original-d="M 279.69527,153.80203 C 279.69627,155.52464 279.69627,157.24825 279.69527,158.97286 284.55654,165.55675 289.41117,172.13399 294.26763,178.71606 296.93246,184.51281 299.59616,190.31027 302.25892,196.10887 302.10322,207.54727 301.94654,218.98491 301.78884,230.42443 298.96914,239.35567 296.14893,248.28632 293.32747,257.21876 293.32847,267.56082 293.32847,277.90111 293.32747,288.24379 292.23152,296.86168 291.13479,305.47891 290.03694,314.09797 287.21712,323.18628 284.39703,332.27325 281.57557,341.36238 277.50204,350.45072 273.42859,359.53766 269.35359,368.6268 265.28006,372.23019 261.20661,375.83363 257.13162,379.43855 246.63153,383.0424 236.13588,386.64538 225.63652,390.2503 230.96566,393.07007 236.29258,395.89021 241.61911,398.71166 249.29748,396.51713 256.97592,394.32329 264.65283,392.1306 270.76388,385.23622 276.87581,378.3407 282.9858,371.44725 285.96349,365.02286 288.9411,358.59751 291.91725,352.17413 296.14814,341.8334 300.37962,331.48979 304.6093,321.14911 305.86369,310.65097 307.11737,300.15138 308.36991,289.65401 309.15429,275.39554 309.93783,261.13507 310.72029,246.87709 314.32494,244.3692 317.92912,241.86195 321.53204,239.35587 336.5707,237.16188 351.61791,234.9675 366.65934,232.77481 378.72473,229.6402 390.79091,226.50613 402.8552,223.37329 417.11378,222.90226 431.37415,222.43213 445.63212,221.96306 458.7943,220.70861 471.95738,219.45499 485.11851,218.20245 481.20254,213.97111 477.28491,209.74008 473.36661,205.5104 469.76373,202.84566 466.15978,200.18187 462.55486,197.5191 451.90031,197.6748 441.24575,197.83149 430.58969,197.98918 415.39012,201.74915 400.19244,205.5094 384.99231,209.271 367.44244,211.30716 349.8943,213.344 332.34379,215.38199 327.64373,216.94801 322.94327,218.51483 318.24151,220.08275 318.08577,219.14136 317.92912,218.20145 317.77143,217.2623 316.36342,209.12034 314.95197,200.96533 313.54075,192.81834 311.03492,185.92357 308.5276,179.02844 306.01953,172.13499 300.85011,167.27694 295.67885,162.41909 290.50702,157.56264 286.90408,156.30809 283.30018,155.05456 279.69527,153.80203 Z" />
  <path
     style="fill:none;stroke:#000000;stroke-width:1px;stroke-linecap:butt;stroke-linejoin:miter;stroke-opacity:1"
     d="M 351.304,245.54516 C 348.01293,246.25025 349.10977,247.50379 352.32205,252.59642 355.53433,257.68904 360.86156,266.61999 364.07381,276.49147 367.28606,286.36295 368.38287,297.17434 367.44276,309.31839 366.50266,321.46243 363.52576,334.93685 362.35045,351.54715 361.17514,368.15746 361.80186,387.89894 361.2535,403.41165 360.70513,418.92436 358.98161,430.20563 357.64969,438.51057 356.31777,446.81551 355.37771,452.14251 355.45598,456.21711 355.53424,460.29171 356.63085,463.11156 358.90321,469.0667 361.17557,475.02185 364.62214,484.10828 368.61827,482.93242 372.61439,481.75655 377.15819,470.31871 379.82173,460.76096 382.48527,451.20321 383.26881,443.52449 384.36558,434.67209 385.46234,425.81969 386.87277,415.78998 388.20457,405.37057 389.53637,394.95116 390.79004,384.13821 391.57344,373.40538 392.35683,362.67255 392.67025,352.01641 392.82692,341.28355 392.9836,330.55068 392.9836,319.73788 392.9836,310.25839 392.9836,300.7789 392.9836,292.63016 393.37545,287.14602 393.76729,281.66188 394.55085,278.84107 395.49072,274.6116 396.43059,270.38212 397.5279,264.73883 395.56973,260.03909 393.61155,255.33935 388.59639,251.57797 383.81749,249.14925 379.03859,246.72053 374.49466,245.62372 368.38321,245.15357 362.27177,244.68341 354.59508,244.84008 351.304,245.54516 Z"
     id="path3990"
     inkscape:connector-curvature="0"
     inkscape:path-effect="#path-effect3992"
     inkscape:original-d="M 346.91615,244.99679 C 348.01399,246.24932 349.11084,247.50286 350.20668,248.7574 355.53551,257.68834 360.86274,266.61929 366.18927,275.55173 367.28715,286.36284 368.38395,297.17423 369.4798,307.98698 366.50341,321.4626 363.5265,334.93701 360.54835,348.41352 361.17618,368.15743 361.80289,387.89891 362.42866,407.64311 360.70596,418.92449 358.98243,430.20576 357.25782,441.48859 356.31857,446.81565 355.37852,452.14265 354.43736,457.47117 355.53544,460.29124 356.63205,463.11109 357.7279,465.93254 361.17677,475.02139 364.62335,484.10782 368.06957,493.19696 372.61491,481.75676 377.15871,470.31892 381.70178,458.8814 382.48615,451.2033 383.2697,443.52458 384.05216,435.84768 385.46319,425.81981 386.87361,415.7901 388.28284,405.76281 389.53724,394.95126 390.79091,384.13831 392.04345,373.32756 392.3578,362.67258 392.67122,352.01644 392.9836,341.36238 392.9846,330.55068 392.9846,319.73788 392.9836,308.92713 392.9846,300.7789 392.9846,292.63016 392.9836,284.48318 393.76797,281.66207 394.55152,278.84126 395.33398,276.02181 396.43137,270.38227 397.52867,264.73898 398.62452,259.09907 393.61239,255.33823 388.59723,251.57685 383.58208,247.81724 379.03887,246.71936 374.49494,245.62255 369.94988,244.52671 362.27175,244.68243 354.59506,244.83909 346.91615,244.99679 Z" />
  <path
     style="fill:none;stroke:#000000;stroke-width:1px;stroke-linecap:butt;stroke-linejoin:miter;stroke-opacity:1"
     d="M 384.23011,112.9827 C 383.75623,114.04725 384.22941,115.70341 385.28027,118.7417 386.33112,121.77999 388.01491,126.35027 390.85497,127.17806 393.69502,128.00584 397.71663,125.16706 399.84541,121.61861 401.97419,118.07017 402.21085,113.81027 400.91025,111.32672 399.60966,108.84318 396.76983,108.13322 394.28556,108.36954 391.80129,108.60587 389.67247,109.78855 387.89762,110.61689 386.12277,111.44523 384.70399,111.91816 384.23011,112.9827 Z"
     id="path3994"
     inkscape:connector-curvature="0"
     inkscape:path-effect="#path-effect3996"
     inkscape:original-d="M 383.28323,112.39175 C 383.75741,114.04691 384.2306,115.70307 384.70279,117.36023 386.12393,121.85632 388.01612,126.34983 389.67128,130.84613 393.69488,128.00564 397.71649,125.16686 401.7376,122.32872 401.97513,118.07022 402.21179,113.81032 402.44739,109.55261 399.60995,108.84201 396.77012,108.13205 393.92998,107.42326 391.8011,108.60553 389.67228,109.78821 387.54193,110.97218 386.12257,111.44463 384.70379,111.91756 383.28323,112.39175 Z" />
  <path
     style="stroke-width:0.70978373"
     d="M 47.991911,364.79945 C 43.082472,363.30973 38.096389,359.07286 38.096389,356.39083 38.096389,350.81516 55.579845,343.92795 87.071467,337.09822 106.69644,332.84206 110.13165,331.95971 130.01338,326.06836 139.77291,323.17642 150.6326,320.28522 154.14603,319.64346 164.70042,317.71562 167.69112,316.69886 169.64804,314.37319 172.00937,311.56691 173.14737,305.72973 172.84538,297.97305 172.613,292.00422 172.48522,291.56562 170.35955,289.44067 166.26259,285.34509 161.48177,285.6639 139.95036,291.46854 122.73934,296.10844 116.56712,295.80232 113.65156,290.16425 112.32726,287.60332 112.95847,285.04869 115.85331,281.25335 118.67267,277.55698 120.3987,273.1437 120.41572,269.58777 120.46226,259.85862 110.91204,235.46088 98.527359,213.67011 86.163333,191.91567 79.263846,176.25961 79.263846,169.95806 79.263846,166.79245 79.306346,166.73307 81.570643,166.73454 86.389635,166.73768 102.91981,176.88172 109.40652,183.81654 113.22256,187.8962 116.72811,194.73056 119.5755,203.64179 122.66359,213.30632 127.28283,235.71487 128.96758,249.20397 130.68663,262.96763 131.96132,267.89026 134.50859,270.60228 138.1296,274.45749 139.53344,274.79654 148.34341,273.94365 167.71477,272.06832 170.78476,269.71508 169.81571,257.48451 168.82385,244.966 165.71455,241.72461 153.62819,240.60935 147.83111,240.07442 146.94089,239.80121 145.48679,238.11072 142.07676,234.14633 144.42939,228.14415 150.02273,226.53832 151.50979,226.1114 155.04316,225.54355 157.87467,225.27643 166.97737,224.41772 169.74919,220.93428 169.27189,210.95308 168.84876,202.10458 166.01555,199.97908 152.39637,198.293 142.45609,197.06237 137.43819,195.12233 133.96555,191.16721 131.32188,188.15623 131.25602,187.07428 133.57522,184.75508 136.05413,182.27617 141.27578,180.0407 151.66179,177.01196 169.57333,171.78862 172.10991,169.51205 173.39579,157.50585 173.76854,154.02546 173.63261,153.4357 172.14248,152.06849 169.83743,149.95359 166.35405,149.17356 155.21071,148.27701 149.94056,147.853 143.87191,147.19795 141.72482,146.82135 136.43985,145.89436 130.83397,143.03997 128.32827,140.00013 124.41128,135.24815 122.65741,125.33068 125.96185,126.61897 126.62867,126.87894 129.07154,127.58081 131.39046,128.17868 136.62027,129.52705 142.45966,128.73654 153.80347,125.14448 163.10486,122.19916 167.69226,119.28347 169.89198,114.91882 172.17263,110.3936 173.66977,100.77062 174.14347,87.59215 174.92718,65.788781 171.5505,50.837561 163.66069,41.176663 155.90493,31.679906 155.35049,30.4132 157.92828,28.080322 160.00887,26.197424 163.26821,26.699312 169.19521,29.815254 179.95582,35.472309 186.82316,41.329699 190.08728,47.634831 192.12778,51.576347 192.12788,57.754055 190.08759,65.943745 187.88022,74.804075 186.94708,85.695128 187.26542,98.882375 187.66251,115.33134 187.53923,115.23974 203.6675,111.07001 215.15321,108.10056 220.62935,107.41594 224.51863,108.46321 228.69272,109.58718 229.46676,110.76204 227.84568,113.51307 225.23082,117.95055 218.73074,121.21788 197.49631,128.76844 190.72492,131.17623 185.6246,135.59106 184.38667,140.11615 183.95949,141.67767 183.60819,147.36806 183.60602,152.76147 183.60221,162.2067 184.08566,164.9015 186.01511,166.18983 187.71139,167.32246 194.71131,166.60822 208.18458,163.92772 226.6383,160.25639 233.41196,159.4181 241.87665,159.75809 249.65815,160.07063 251.62891,160.96732 254.2053,165.36751 258.09069,172.00335 254.10915,193.16928 240.39369,238.79024 231.00715,270.01216 227.16895,278.64841 221.46585,281.37937 219.16933,282.47907 216.14675,282.76173 202.41133,283.16124 184.94325,283.66932 182.07624,284.21661 179.79101,287.47923 177.40481,290.886 178.88886,300.92629 182.36355,304.88375 186.74884,309.87832 188.85867,310.46499 202.41133,310.45828 209.0478,310.45499 220.706,310.18074 228.31843,309.84882 243.90203,309.16934 248.70546,309.77632 256.35489,313.39166 260.85753,315.51973 268.06632,321.86422 268.06632,323.69893 268.06632,324.29734 267.28068,325.14492 266.32045,325.58242 261.46053,327.79675 234.75384,330.91237 210.45034,332.10027 202.51545,332.4881 194.83543,333.14093 193.38362,333.55099 187.38153,335.24628 184.59184,339.83595 182.54483,351.38328 181.14504,359.27966 179.38605,362.84206 177.05436,362.50289 174.68397,362.1581 173.15026,358.6998 171.91835,350.92192 169.72674,337.08478 167.76896,333.51167 161.7614,332.38465 158.63512,331.79815 130.63934,335.19347 122.42551,337.15529 115.78794,338.74063 114.84732,339.13076 85.229638,352.58273 56.855897,365.46972 53.658143,366.51882 47.991911,364.79945 Z M 208.62868,267.95555 C 215.14813,267.10983 217.42697,263.14363 222.57581,243.68131 224.52886,236.29887 226.94863,227.86316 227.95306,224.93531 229.05557,221.72157 230.33142,215.25198 231.1725,208.61028 232.01073,201.99096 233.44996,194.68522 234.78562,190.26954 236.61002,184.23807 236.86369,182.61908 236.20933,181.18291 233.49513,175.2259 219.11235,176.38402 196.44912,184.38446 184.07536,188.75257 180.76612,192.18386 180.76402,200.64801 180.76342,203.10043 181.19445,206.13974 181.72187,207.40204 182.89442,210.20836 186.7857,213.7159 191.25844,215.99814 197.16556,219.0123 200.50696,223.91266 199.15223,227.57483 198.54968,229.2037 195.58585,231.49618 189.02104,235.41117 186.19825,237.09457 184.74714,238.54419 183.69219,240.73455 182.05447,244.13494 180.41031,255.8381 181.0736,259.37376 182.06743,264.67133 186.76202,267.26908 197.02187,268.19874 202.30286,268.67726 203.21201,268.65821 208.62868,267.95555 Z"
     id="path3998"
     inkscape:connector-curvature="0" />
  <path
     style="stroke-width:0.70978373"
     d="M 237.61369,394.40264 C 236.28479,393.91111 234.84748,392.92851 234.41966,392.21909 233.32183,390.39862 236.13359,388.29399 244.60438,384.59572 265.72103,375.37641 270.1789,370.42717 280.3692,344.88876 289.38163,322.30228 292.2555,308.38521 293.96955,279.02746 295.03465,260.7847 295.45811,257.70289 299.59786,238.0663 304.04579,216.96789 303.01904,195.32758 297.00517,183.42155 296.21404,181.8553 292.77482,176.26188 289.36246,170.99174 282.51714,160.41964 280.53442,156.86749 281.14041,156.26149 282.0004,155.4015 287.29047,157.66541 291.24534,160.58594 300.64552,167.52765 307.15147,177.04667 310.90698,189.35342 311.90401,192.62067 313.7458,200.54337 314.99985,206.95942 316.64908,215.39736 317.60335,218.79805 318.44885,219.25055 319.19745,219.65119 322.40872,219.27256 327.37933,218.19761 331.64819,217.27442 343.12596,215.36555 352.88548,213.95567 376.70421,210.51478 384.58853,209.17013 405.05459,205.05839 429.72853,200.10126 435.89782,199.25892 447.64161,199.2437 456.13739,199.23268 458.73862,199.48791 462.54707,200.70621 470.39381,203.21632 479.58378,212.07399 477.255,214.88231 474.81477,217.82503 464.81383,219.43565 439.12421,221.02317 410.83857,222.77112 402.64063,223.82052 375.81597,229.12714 362.03305,231.85377 344.84718,235.21939 337.62513,236.60632 320.6448,239.86723 316.25753,241.86255 313.34614,247.64839 310.90539,252.49889 309.57702,260.11721 308.17564,277.30157 305.92176,304.93973 304.31442,314.85234 299.86725,328.54022 296.78908,338.01447 290.80554,352.70008 286.7089,360.83517 278.95906,376.22478 267.45466,388.19012 255.86349,392.91641 250.55552,395.08074 241.45147,395.82215 237.61369,394.40264 Z"
     id="path4000"
     inkscape:connector-curvature="0" />
  <path
     style="stroke-width:0.70978373"
     d="M 365.68444,480.7338 C 364.01914,479.0685 361.53161,473.89584 358.89552,466.61667 356.05431,458.77108 355.91505,454.26854 358.09423,440.70957 361.20546,421.35128 361.81207,413.09353 362.47402,381.08773 363.10775,350.44566 363.58423,343.55552 366.33542,325.2497 371.05875,293.82177 368.18406,277.24649 353.91235,253.61895 351.98124,250.4219 350.40124,247.47991 350.40124,247.08119 350.40124,245.89442 361.60362,245.33392 368.91551,246.15485 378.70526,247.25397 384.82719,249.67241 390.29205,254.59952 395.9513,259.70189 396.86538,264.48952 394.31778,275.68484 392.99448,281.50001 392.81123,285.60568 392.27441,321.4659 391.53471,370.8789 391.16331,376.01521 384.78112,425.09432 380.63806,456.95454 377.64928,469.17936 371.71548,478.53599 369.45767,482.09619 367.69073,482.74009 365.68444,480.7338 Z"
     id="path4002"
     inkscape:connector-curvature="0" />
  <path
     style="stroke-width:0.70978373"
     d="M 389.56217,125.35868 C 388.01098,123.48961 385.19428,116.62823 385.18758,114.70232 385.18154,112.96799 385.68645,112.48767 389.10469,110.97595 394.11945,108.75819 397.22947,108.7298 399.25259,110.88331 401.23637,112.99495 401.24587,116.38022 399.27943,120.44235 397.02886,125.0914 391.61399,127.83098 389.56217,125.35868 Z"
     id="path4004"
     inkscape:connector-curvature="0" />
</svg>
