<?xml version="1.0" encoding="UTF-8" standalone="no"?>
<!-- Created with Inkscape (http://www.inkscape.org/) -->

<svg
   xmlns:dc="http://purl.org/dc/elements/1.1/"
   xmlns:cc="http://creativecommons.org/ns#"
   xmlns:rdf="http://www.w3.org/1999/02/22-rdf-syntax-ns#"
   xmlns:svg="http://www.w3.org/2000/svg"
   xmlns="http://www.w3.org/2000/svg"
   xmlns:sodipodi="http://sodipodi.sourceforge.net/DTD/sodipodi-0.dtd"
   xmlns:inkscape="http://www.inkscape.org/namespaces/inkscape"
   version="1.1"
   id="svg4134"
   width="512"
   height="512"
   viewBox="0 0 512 512"
   sodipodi:docname="U+76DC.svg"
   inkscape:version="0.92.4 (5da689c313, 2019-01-14)">
  <metadata
     id="metadata4140">
    <rdf:RDF>
      <cc:Work
         rdf:about="">
        <dc:format>image/svg+xml</dc:format>
        <dc:type
           rdf:resource="http://purl.org/dc/dcmitype/StillImage" />
        <dc:title></dc:title>
      </cc:Work>
    </rdf:RDF>
  </metadata>
  <defs
     id="defs4138">
    <inkscape:path-effect
       effect="bspline"
       id="path-effect4194"
       is_visible="true"
       weight="33.333333"
       steps="2"
       helper_size="0"
       apply_no_weight="true"
       apply_with_weight="true"
       only_selected="false" />
    <inkscape:path-effect
       effect="bspline"
       id="path-effect4190"
       is_visible="true"
       weight="33.333333"
       steps="2"
       helper_size="0"
       apply_no_weight="true"
       apply_with_weight="true"
       only_selected="false" />
    <inkscape:path-effect
       effect="bspline"
       id="path-effect4186"
       is_visible="true"
       weight="33.333333"
       steps="2"
       helper_size="0"
       apply_no_weight="true"
       apply_with_weight="true"
       only_selected="false" />
    <inkscape:path-effect
       effect="bspline"
       id="path-effect4182"
       is_visible="true"
       weight="33.333333"
       steps="2"
       helper_size="0"
       apply_no_weight="true"
       apply_with_weight="true"
       only_selected="false" />
    <inkscape:path-effect
       effect="bspline"
       id="path-effect4178"
       is_visible="true"
       weight="33.333333"
       steps="2"
       helper_size="0"
       apply_no_weight="true"
       apply_with_weight="true"
       only_selected="false" />
    <inkscape:path-effect
       effect="bspline"
       id="path-effect4174"
       is_visible="true"
       weight="33.333333"
       steps="2"
       helper_size="0"
       apply_no_weight="true"
       apply_with_weight="true"
       only_selected="false" />
    <inkscape:path-effect
       effect="bspline"
       id="path-effect4170"
       is_visible="true"
       weight="33.333333"
       steps="2"
       helper_size="0"
       apply_no_weight="true"
       apply_with_weight="true"
       only_selected="false" />
    <inkscape:path-effect
       effect="bspline"
       id="path-effect4166"
       is_visible="true"
       weight="33.333333"
       steps="2"
       helper_size="0"
       apply_no_weight="true"
       apply_with_weight="true"
       only_selected="false" />
    <inkscape:path-effect
       effect="bspline"
       id="path-effect4162"
       is_visible="true"
       weight="33.333333"
       steps="2"
       helper_size="0"
       apply_no_weight="true"
       apply_with_weight="true"
       only_selected="false" />
    <inkscape:path-effect
       effect="bspline"
       id="path-effect4158"
       is_visible="true"
       weight="33.333333"
       steps="2"
       helper_size="0"
       apply_no_weight="true"
       apply_with_weight="true"
       only_selected="false" />
    <inkscape:path-effect
       effect="bspline"
       id="path-effect4154"
       is_visible="true"
       weight="33.333333"
       steps="2"
       helper_size="0"
       apply_no_weight="true"
       apply_with_weight="true"
       only_selected="false" />
    <inkscape:path-effect
       effect="bspline"
       id="path-effect4150"
       is_visible="true"
       weight="33.333333"
       steps="2"
       helper_size="0"
       apply_no_weight="true"
       apply_with_weight="true"
       only_selected="false" />
    <inkscape:path-effect
       effect="bspline"
       id="path-effect4146"
       is_visible="true"
       weight="33.333333"
       steps="2"
       helper_size="0"
       apply_no_weight="true"
       apply_with_weight="true"
       only_selected="false" />
  </defs>
  <sodipodi:namedview
     pagecolor="#ffffff"
     bordercolor="#666666"
     borderopacity="1"
     objecttolerance="10"
     gridtolerance="10"
     guidetolerance="10"
     inkscape:pageopacity="0"
     inkscape:pageshadow="2"
     inkscape:window-width="1920"
     inkscape:window-height="1017"
     id="namedview4136"
     showgrid="false"
     inkscape:zoom="1.2316035"
     inkscape:cx="256"
     inkscape:cy="256"
     inkscape:window-x="-8"
     inkscape:window-y="-8"
     inkscape:window-maximized="1"
     inkscape:current-layer="svg4134" />
  <path
     style="fill:none;stroke:#000000;stroke-width:1px;stroke-linecap:butt;stroke-linejoin:miter;stroke-opacity:1"
     d="M 169.83807,81.927387 C 165.94315,82.470854 159.60257,83.376652 154.71065,83.104968 149.81872,82.833284 146.3773,81.384265 143.38803,80.206663 140.39876,79.029061 137.86289,78.123392 135.77946,77.489274 133.69603,76.855156 132.06596,76.492919 130.79735,79.482848 129.52873,82.472777 128.62335,88.810474 129.89165,93.974391 131.15996,99.138309 134.60138,103.12311 138.31514,108.37669 142.02889,113.63028 146.01432,120.15189 149.45701,122.05366 152.89971,123.95543 155.79813,121.23816 158.87735,119.06472 161.95656,116.89128 165.21859,115.26027 167.75449,114.08292 170.2904,112.90558 172.10266,112.18067 173.6414,114.35279 175.18014,116.5249 176.4491,121.60075 178.98559,127.48908 181.52208,133.37742 185.3259,140.07939 186.8658,137.72373 188.4057,135.36808 187.6811,123.95559 186.86587,116.166 186.05063,108.3764 185.14476,104.20939 184.51078,99.952458 183.8768,95.695522 183.51441,91.346916 183.15214,86.727857 182.78986,82.108799 182.42747,77.21647 182.06519,71.419989 181.70292,65.623507 181.34053,58.919347 180.88766,52.035799 180.43479,45.15225 179.89124,38.086039 178.8949,31.564789 177.89857,25.043539 176.4491,19.064502 174.72824,14.807698 173.00738,10.550893 171.01439,8.0143587 168.93139,9.6441062 166.84839,11.273854 164.67436,17.07126 165.03666,22.597598 165.39896,28.123936 168.29691,33.376468 171.10499,38.086799 173.91306,42.79713 176.63028,46.963521 177.89849,51.673427 179.1667,56.383333 178.98555,61.636648 178.53266,66.256549 178.07978,70.876451 177.35528,74.861175 176.99285,77.216423 176.63043,79.571672 176.63043,80.296101 175.90535,80.749555 175.18027,81.203009 173.73299,81.38392 169.83807,81.927387 Z"
     id="path4144"
     inkscape:connector-curvature="0"
     inkscape:path-effect="#path-effect4146"
     inkscape:original-d="M 172.28261,81.565217 C 165.94303,82.470014 159.60245,83.375812 153.26087,84.282609 149.81923,82.832077 146.37781,81.383058 142.93478,79.934783 140.39919,79.027856 137.86332,78.122188 135.32609,77.217391 133.69629,76.853991 132.06622,76.491754 130.43478,76.130435 129.52957,82.472897 128.62419,88.810594 127.71739,95.152174 131.16103,99.137385 134.60245,103.12219 138.04348,107.1087 142.03006,113.62956 146.01549,120.15117 150,126.67391 152.89968,123.9554 155.7981,121.23813 158.69565,118.52174 161.95636,116.89088 165.21839,115.25987 168.47826,113.63043 170.29019,112.90506 172.10245,112.18016 173.91304,111.45652 175.18131,116.52461 176.45028,121.60045 177.71739,126.67391 181.52327,133.37674 185.32709,140.07871 189.13043,146.78261 188.40676,135.36801 187.68216,123.95552 186.95652,112.54348 186.0518,108.37615 185.14593,104.20914 184.23913,100.04348 183.87788,95.695432 183.51549,91.346826 183.15217,87 182.79093,82.10872 182.42854,77.216391 182.06522,72.326087 181.70397,65.62345 181.34158,58.91929 180.97826,52.217391 180.43586,45.152168 179.8923,38.085957 179.34783,31.021739 177.89974,25.043255 176.45028,19.064217 175,13.086957 173.00848,10.550028 171.01549,8.0134928 169.02174,5.4782609 166.84894,11.274059 164.67491,17.071464 162.5,22.869565 165.40015,28.123281 168.2981,33.375812 171.19565,38.630435 173.91422,42.796374 176.63143,46.962768 179.34783,51.130435 179.16766,56.383366 178.98651,61.636681 178.80435,66.891304 178.08057,70.876595 177.35607,74.861319 176.63043,78.847826 176.63143,79.571672 176.63143,80.296101 176.63043,81.021739 175.18016,81.202149 173.73288,81.383058 172.28261,81.565217 Z" />
  <path
     style="fill:none;stroke:#000000;stroke-width:1px;stroke-linecap:butt;stroke-linejoin:miter;stroke-opacity:1"
     d="M 126.99343,172.68858 C 131.52255,173.59434 139.13124,174.86245 145.19999,175.22467 151.26873,175.58688 155.7982,175.04334 160.9606,173.59418 166.12299,172.14501 171.92149,169.78936 175.90663,168.70267 179.89176,167.61598 182.06613,167.79718 183.33369,170.87513 184.60124,173.95308 184.96371,179.93384 183.9675,185.0971 182.97129,190.26036 180.61659,194.60751 177.35531,198.95601 174.09404,203.30452 169.92852,207.65115 166.03322,211.27475 162.13793,214.89835 158.51559,217.79622 154.16647,216.98078 149.81736,216.16535 144.74644,211.63774 141.30427,207.83319 137.86211,204.02865 136.05054,200.94897 133.60513,197.86957 131.15973,194.79016 128.07971,191.71014 125.54339,188.44912 123.00707,185.18809 121.01431,181.74606 120.10864,178.75667 119.20296,175.76728 119.38414,173.23081 120.19928,172.23496 121.01443,171.23911 122.46432,171.78282 126.99343,172.68858 Z"
     id="path4148"
     inkscape:connector-curvature="0"
     inkscape:path-effect="#path-effect4150"
     inkscape:original-d="M 123.91304,172.32609 C 131.52274,173.5932 139.13143,174.86132 146.73913,176.13043 151.26863,175.58601 155.7981,175.04248 160.32609,174.5 166.12278,172.1445 171.92129,169.78886 177.71739,167.43478 179.89185,167.6149 182.06622,167.7961 184.23913,167.97826 184.6023,173.95302 184.96477,179.93378 185.32609,185.91304 182.97165,190.26055 180.61694,194.6077 178.26087,198.95652 174.09406,203.30454 169.92854,207.65117 165.76087,212 162.13783,214.89823 158.51549,217.7961 154.8913,220.69565 149.8183,216.16429 144.74738,211.63668 139.67391,207.1087 137.8633,204.02795 136.05172,200.94828 134.23913,197.86957 131.16073,194.78916 128.08071,191.70914 125,188.63043 123.00825,185.18741 121.01549,181.74538 119.02174,178.30435 119.20388,175.76735 119.38506,173.23088 119.56522,170.69565 121.01488,171.2379 122.46477,171.78161 123.91304,172.32609 Z" />
  <path
     style="fill:none;stroke:#000000;stroke-width:1px;stroke-linecap:butt;stroke-linejoin:miter;stroke-opacity:1"
     d="M 118.47826,248.95652 C 119.92865,248.77522 121.37792,248.59406 126.17526,249.95182 130.9726,251.30958 139.131,254.21035 144.65591,257.74261 150.18081,261.27487 153.07957,265.44183 154.89116,268.97425 156.70276,272.50668 157.42736,275.4051 158.33329,279.3006 159.23923,283.1961 160.32592,288.08622 161.05064,293.79313 161.77536,299.50005 162.13763,306.0208 162.59055,312.09007 163.04347,318.15934 163.58687,323.77447 164.40213,328.75679 165.21738,333.73911 166.30417,338.08626 168.38789,341.52888 170.47162,344.97151 173.55083,347.50733 177.53664,349.04719 181.52245,350.58704 186.41392,351.13053 191.39544,351.22106 196.37697,351.31158 201.45035,350.9492 208.24288,350.85865 215.03542,350.7681 223.5517,350.94929 230.43551,350.7681 237.31933,350.5869 242.57355,350.04336 245.74309,350.85821 248.91262,351.67306 249.9998,353.84743 250.72452,356.38369 251.44924,358.91996 251.81149,361.81798 252.71745,364.6266 253.62342,367.43523 255.07227,370.15181 257.33728,372.23552 259.60229,374.31924 262.68159,375.76832 264.85511,377.57951 267.02863,379.39069 268.29692,381.56491 269.47453,383.73893 270.65213,385.91295 271.73893,388.08656 271.82956,397.14567 271.92019,406.20478 271.01456,422.14388 268.47843,434.73469 265.9423,447.3255 261.77591,456.56402 257.79048,462.08981 253.80505,467.61561 250.0012,469.42696 245.01818,474.13805 240.03517,478.84914 233.8777,486.45543 227.71739,494.06522"
     id="path4152"
     inkscape:connector-curvature="0"
     inkscape:path-effect="#path-effect4154"
     inkscape:original-d="M 118.47826,248.95652 C 119.92854,248.77436 121.37781,248.5932 122.82609,248.41304 130.97303,251.30838 139.13143,254.20914 147.28261,257.1087 150.18196,261.27407 153.08071,265.44103 155.97826,269.6087 156.70393,272.50639 157.42854,275.4048 158.15217,278.30435 159.2404,283.19584 160.32709,288.08596 161.41304,292.97826 161.77642,299.49999 162.13868,306.02074 162.5,312.54348 163.04456,318.15923 163.58796,323.77436 164.13043,329.3913 165.21856,333.73882 166.30535,338.08596 167.3913,342.43478 170.47251,344.97043 173.55172,347.50625 176.63043,350.04348 181.52257,350.58594 186.41404,351.12943 191.30435,351.67391 196.3769,351.31066 201.45028,350.94828 206.52174,350.58696 215.03544,350.76708 223.55172,350.94828 232.06522,351.13043 237.31924,350.58602 242.57346,350.04248 247.82609,349.5 248.91382,351.67246 250.001,353.84683 251.08696,356.02174 251.45034,358.91982 251.81259,361.81784 252.17391,364.71739 253.62462,367.43459 255.07346,370.15117 256.52174,372.86957 259.60286,374.31803 262.68216,375.76712 265.76087,377.21739 267.02981,379.39 268.2981,381.56422 269.56522,383.73913 270.65333,385.91235 271.74013,388.08596 272.82609,390.26087 271.92112,406.20483 271.01549,422.14393 270.1087,438.08696 265.94275,447.3257 261.77636,456.56422 257.6087,465.80435 253.80485,467.61518 250.001,469.42654 246.19565,471.23913 240.03528,478.84923 233.87781,486.45552 227.71739,494.06522" />
  <path
     style="fill:none;stroke:#000000;stroke-width:1px;stroke-linecap:butt;stroke-linejoin:miter;stroke-opacity:1"
     d="M 227.71739,494.06522 C 212.68217,494.24637 197.64594,494.42753 193.02665,492.70603 188.40736,490.98454 194.20407,487.36159 200.54396,484.55401 206.88386,481.74643 213.76931,479.75328 219.74711,477.03597 225.72491,474.31866 230.79825,470.87603 234.78336,467.70596 238.76846,464.53589 241.66767,461.63668 244.65625,458.55752 247.64484,455.47836 250.72561,452.21636 253.714,446.23939 256.70239,440.26241 259.60185,431.56402 261.05092,427.03516 262.5,422.5063 262.5,422.14393 262.68069,418.71087 262.86138,415.27782 263.2247,408.73808 263.40583,404.11876 263.58696,399.49944 263.58696,396.78161 260.96109,392.43535 258.33521,388.08909 253.07966,382.10863 250.45287,377.48861 247.82609,372.8686 247.82609,369.6077 247.82609,367.07175 247.82609,364.53579 247.82609,362.72364 241.94211,361.36573 236.05814,360.00781 224.27628,359.10152 218.29805,358.64858 212.31983,358.19565 212.13868,358.19565 207.67631,358.55993 203.21395,358.9242 194.5663,359.64484 186.95726,361.54697 179.34822,363.44909 172.82729,366.52842 166.30435,369.6087"
     id="path4156"
     inkscape:connector-curvature="0"
     inkscape:path-effect="#path-effect4158"
     inkscape:original-d="M 227.71739,494.06522 C 212.68216,494.24538 197.64593,494.42654 182.6087,494.6087 188.40719,490.98427 194.2039,487.36132 200,483.73913 206.88367,481.74578 213.76912,479.75262 220.65217,477.76087 225.72476,474.31844 230.7981,470.87581 235.86957,467.43478 238.76846,464.53589 241.66767,461.63668 244.56522,458.73913 247.64487,455.47839 250.72564,452.21639 253.80435,448.95652 256.70299,440.26261 259.60245,431.56422 262.5,422.86957 262.501,422.5063 262.501,422.14393 262.5,421.78261 262.86232,415.27787 263.22564,408.73813 263.58696,402.21739 263.58796,399.49944 263.58796,396.78161 263.58696,394.06522 258.33627,388.08816 253.08071,382.1077 247.82609,376.13043 247.82709,372.8686 247.82709,369.6077 247.82609,366.34783 247.82709,364.53579 247.82709,362.72364 247.82609,360.91304 236.05822,360.00675 224.27636,359.10045 212.5,358.19565 212.31983,358.19465 212.13868,358.19465 211.95652,358.19565 203.21387,358.92329 194.56622,359.64393 185.86957,360.36957 179.34802,363.44866 172.82709,366.52799 166.30435,369.6087" />
  <path
     style="fill:none;stroke:#000000;stroke-width:1px;stroke-linecap:butt;stroke-linejoin:miter;stroke-opacity:1"
     d="M 108.15217,377.76087 C 127.53735,375.04332 146.92141,372.32593 166.30435,369.6087"
     id="path4160"
     inkscape:connector-curvature="0"
     inkscape:path-effect="#path-effect4162"
     inkscape:original-d="M 108.15217,377.76087 C 127.53723,375.04248 146.92129,372.32509 166.30435,369.6087" />
  <path
     style="fill:none;stroke:#000000;stroke-width:1px;stroke-linecap:butt;stroke-linejoin:miter;stroke-opacity:1"
     d="M 108.15217,377.76087 C 100.18233,382.65145 92.211315,387.54276 85.508033,390.98507 78.804752,394.42739 73.370769,396.41985 69.293728,395.69498 65.216687,394.97012 62.499899,391.52886 60.597699,387.99606 58.695499,384.46326 57.608503,380.83994 57.699348,377.66961 57.790193,374.49928 59.058533,371.78141 62.861784,369.6083 66.665034,367.4352 73.008424,365.80404 81.612413,364.80784 90.216402,363.81163 101.08799,363.44924 112.22877,362.8152 123.36955,362.18116 134.78368,361.27528 142.39227,360.00703 150.00085,358.73877 153.80556,357.10818 157.97138,356.38379 162.1372,355.6594 166.66763,355.84062 167.39201,352.67078 168.11639,349.50095 165.03603,342.97783 160.11524,330.67063 155.19446,318.36343 148.55052,300.58641 143.93106,290.07943 139.31159,279.57245 136.77528,276.49264 133.51461,273.50368 130.25394,270.51472 126.2683,267.61607 122.37322,264.44566 118.47815,261.27525 114.67397,257.83337 113.47495,255.61007 112.27593,253.38676 115.94317,250.7673 118.47826,248.95652"
     id="path4164"
     inkscape:connector-curvature="0"
     inkscape:path-effect="#path-effect4166"
     inkscape:original-d="M 108.15217,377.76087 C 100.18216,382.65117 92.211144,387.54248 84.23913,392.43478 78.804548,394.42683 73.370565,396.41929 67.934783,398.41304 65.217789,394.96925 62.501,391.52799 59.782609,388.08696 58.696693,384.4629 57.609696,380.83958 56.521739,377.21739 57.79063,374.49948 59.058971,371.78161 60.326087,369.06522 66.664856,367.43451 73.008246,365.80335 79.347826,364.17391 90.21637,363.81066 101.08796,363.44828 111.95652,363.08696 123.36948,362.18025 134.78361,361.27436 146.19565,360.36957 150.00064,358.73828 153.80535,357.1077 157.6087,355.47826 162.13724,355.65836 166.66767,355.83958 171.19565,356.02174 168.11759,349.50038 165.03723,342.97726 161.95652,336.45652 155.25507,318.34078 148.55172,300.58596 141.84783,282.65217 139.31267,279.57156 136.77636,276.49175 134.23913,273.41304 130.25476,270.51359 126.26912,267.61494 122.28261,264.71739 118.47909,261.27421 114.67491,257.83233 110.86957,254.3913 111.95754,252.94101 115.94303,250.76711 118.47826,248.95652" />
  <path
     style="fill:none;stroke:#000000;stroke-width:1px;stroke-linecap:butt;stroke-linejoin:miter;stroke-opacity:1"
     d="M 260.32609,7.1086957 C 260.32609,12.723638 260.32609,18.33958 260.77897,22.597272 261.23185,26.854963 262.13749,29.752996 262.40934,33.104627 262.68119,36.456259 262.31894,40.259785 261.5943,43.7928 260.86965,47.325815 259.78301,50.585756 258.87695,54.844011 257.9709,59.102266 257.24653,64.353955 256.97472,70.604797 256.70291,76.855639 256.88404,84.100475 257.97104,89.898132 259.05804,95.695789 261.05052,100.04303 263.58695,104.39121 266.12337,108.73939 269.20277,113.08676 273.36983,116.52905 277.53689,119.97133 282.79028,122.50745 288.7686,123.5037 294.74691,124.49996 301.45035,123.95643 305.97915,122.68806 310.50794,121.4197 312.86339,119.42662 315.39897,118.4307 317.93454,117.43478 320.65317,117.43478 323.82228,119.33624 326.9914,121.2377 330.61592,125.04345 333.42381,130.38736 336.23171,135.73128 338.22445,142.61529 338.76811,148.05 339.31177,153.48472 338.40606,157.46984 336.86611,161.27472 335.32616,165.07959 333.15288,168.70172 330.79734,173.05036 328.44181,177.399 325.9064,182.46981 324.63799,187.27118 323.36957,192.07254 323.36957,196.60045 324.00366,200.40538 324.63775,204.21032 325.90559,207.28936 327.08323,210.91279 328.26086,214.53622 329.34764,218.70221 329.61949,223.2314 329.89134,227.76058 329.34795,232.65107 327.89859,237.99587 326.44924,243.34067 324.09469,249.13647 321.82995,254.93418 319.56522,260.73189 317.39175,266.52779 316.30457,271.9632 315.21739,277.39861 315.21739,282.47001 315.48915,289.08317 315.76092,295.69633 316.30429,303.8469 317.39127,310.09734 318.47824,316.34777 320.10849,320.6951 321.64844,324.77144 323.18838,328.84777 324.63748,332.65163 325.81511,337.09027 326.99274,341.52891 327.89841,346.60065 329.6196,351.49255 331.34079,356.38444 333.87662,361.09384 342.02991,363.4491 350.1832,365.80435 363.95028,365.80435 376.63096,366.34783 389.31165,366.89131 400.9067,367.97835 407.42793,369.24636 413.94916,370.51438 415.39855,371.96377 416.84811,371.14795 418.29767,370.33213 419.74694,367.25241 420.4713,364.89777 421.19565,362.54312 421.19565,360.91204 419.02312,358.28688 416.85059,355.66172 412.5001,352.03631 407.60925,350.67749 402.7184,349.31867 397.28374,350.22444 392.11997,350.04334 386.95619,349.86223 382.06591,348.59438 376.26841,347.50733 370.47091,346.42028 363.76897,345.51461 359.60214,344.88056 355.43532,344.2465 353.80509,343.88423 350.36183,342.97811 346.91857,342.07199 341.66734,340.62337 337.953,337.81485 334.23865,335.00633 332.06502,330.84021 330.88756,327.39802 329.7101,323.95584 329.52892,321.2382 329.71007,316.71023 329.89121,312.18225 330.43488,305.8395 331.61254,301.039 332.79021,296.23849 334.60211,292.97707 337.13774,288.35859 339.67337,283.74012 342.93543,277.75968 344.92793,273.32157 346.92044,268.88346 347.64522,265.98433 347.3735,262.54339 347.10177,259.10245 345.83314,255.11532 343.8406,250.40571 341.84805,245.6961 339.13023,240.26047 337.68102,236.6371 336.23181,233.01374 336.05064,231.20201 335.86955,227.39905 335.68847,223.59608 335.50722,217.79613 336.05081,212.99561 336.59439,208.19509 337.86272,204.3901 340.21743,202.85081 342.57214,201.31153 346.01525,202.03639 351.44886,205.74937 356.88248,209.46235 364.31165,216.16672 368.02539,219.60822 371.73913,223.04972 371.73913,223.23088 371.73913,223.41304"
     id="path4168"
     inkscape:connector-curvature="0"
     inkscape:path-effect="#path-effect4170"
     inkscape:original-d="M 260.32609,7.1086957 C 260.32709,12.723638 260.32709,18.33958 260.32609,23.956522 261.23305,26.854589 262.13868,29.752623 263.04348,32.652174 262.68208,36.456344 262.31984,40.25987 261.95652,44.065217 260.87026,47.326017 259.78361,50.585957 258.69565,53.847826 257.97175,59.102383 257.24738,64.354072 256.52174,69.608696 256.70394,76.855613 256.88506,84.100449 257.06522,91.347826 259.05924,95.695237 261.05172,100.04248 263.04348,104.3913 266.12451,108.73858 269.2039,113.08596 272.28261,117.43478 277.53747,119.97013 282.79086,122.50625 288.04348,125.04348 294.74684,124.49904 301.45028,123.95552 308.15217,123.41304 310.50787,121.41961 312.86332,119.42654 315.21739,117.43478 317.93454,117.43378 320.65317,117.43378 323.36957,117.43478 326.99242,121.23673 330.61694,125.04248 334.23913,128.84783 336.2329,135.73093 338.22564,142.61494 340.21739,149.5 339.31251,153.48489 338.4068,157.47001 337.5,161.45652 335.32645,165.07977 333.15317,168.7019 330.97826,172.32609 328.44221,177.3992 325.9068,182.47001 323.36957,187.54348 323.37057,192.07254 323.37057,196.60045 323.36957,201.13043 324.63896,204.20982 325.9068,207.28886 327.17391,210.36957 328.26205,214.53591 329.34883,218.7019 330.43478,222.86957 329.89221,227.76068 329.34883,232.65117 328.80435,237.54348 326.44975,243.34088 324.0952,249.13668 321.73913,254.93478 319.56576,260.73209 317.3923,266.52799 315.21739,272.32609 315.21839,277.39861 315.21839,282.47001 315.21739,287.54348 315.76198,295.69626 316.30535,303.84683 316.84783,312 318.47945,316.34732 320.1097,320.69465 321.73913,325.04348 323.18959,328.84731 324.63868,332.65117 326.08696,336.45652 326.99388,341.52871 327.89955,346.60045 328.80435,351.67391 331.34198,356.3838 333.87781,361.0932 336.41304,365.80435 350.1832,365.80335 363.95028,365.80335 377.71739,365.80435 389.31175,366.89023 400.9068,367.97726 412.5,369.06522 413.95016,370.51338 415.39955,371.96277 416.84783,373.41304 418.2981,370.33233 419.74738,367.25262 421.19565,364.17391 421.19665,362.54312 421.19665,360.91204 421.19565,359.28261 416.85149,355.66064 412.501,352.03523 408.15217,348.41304 402.71827,349.31786 397.28361,350.22364 391.84783,351.13043 386.9565,349.86105 382.06622,348.5932 377.17391,347.32609 370.47106,346.41916 363.76912,345.51349 357.06522,344.6087 355.43558,344.24533 353.80535,343.88306 352.17391,343.52174 346.9189,342.0708 341.66767,340.62219 336.41304,339.17391 334.23985,335.00571 332.06622,330.83958 329.8913,326.67391 329.71116,323.95577 329.52999,321.23813 329.34783,318.52174 329.89212,312.18233 330.43578,305.83958 330.97826,299.5 332.79055,296.23868 334.60245,292.97726 336.41304,289.71739 339.67372,283.74031 342.93578,277.75987 346.19565,271.78261 346.92115,268.88364 347.64593,265.98451 348.36957,263.08696 347.10296,259.10207 345.83433,255.11494 344.56522,251.13043 341.84925,245.6955 339.13143,240.25987 336.41304,234.82609 336.2329,233.01363 336.05172,231.2019 335.86957,229.3913 335.68949,223.59605 335.50825,217.7961 335.32609,212 336.59499,208.19529 337.86332,204.3903 339.13043,200.58696 342.57238,201.31037 346.01549,202.03523 349.45652,202.76087 356.88343,209.4613 364.31259,216.16567 371.73913,222.86957 371.74013,223.04972 371.74013,223.23088 371.73913,223.41304" />
  <path
     style="fill:none;stroke:#000000;stroke-width:1px;stroke-linecap:butt;stroke-linejoin:miter;stroke-opacity:1"
     d="M 371.73913,223.41304 C 374.09537,221.96305 376.45045,220.51377 376.26928,216.89217 376.0881,213.27057 373.36936,207.47058 370.5618,203.84776 367.75424,200.22495 364.85547,198.77556 361.68505,197.50737 358.51464,196.23918 355.07308,195.15237 351.54016,194.06532 348.00723,192.97826 344.3847,191.8915 340.76087,190.80435"
     id="path4172"
     inkscape:connector-curvature="0"
     inkscape:path-effect="#path-effect4174"
     inkscape:original-d="M 371.73913,223.41304 C 374.0952,221.96277 376.45028,220.51349 378.80435,219.06522 376.08931,213.27 373.37057,207.47001 370.65217,201.67391 367.75484,200.22375 364.85607,198.77436 361.95652,197.32609 358.51502,196.23798 355.07346,195.15117 351.63043,194.06522 348.00759,192.97706 344.38506,191.8903 340.76087,190.80435" />
  <path
     style="fill:none;stroke:#000000;stroke-width:1px;stroke-linecap:butt;stroke-linejoin:miter;stroke-opacity:1"
     d="M 340.76087,190.80435 C 338.94907,186.81839 337.13748,182.83289 336.95654,178.66609 336.7756,174.4993 338.22504,170.15098 339.40255,167.07151 340.58006,163.99205 341.48611,162.17996 342.48189,157.1103 343.47768,152.04064 344.56536,143.70179 345.10876,138.81063 345.65217,133.91948 345.65217,132.47001 344.47537,129.93541 343.29857,127.40081 340.94187,123.77511 341.39525,120.42341 341.84863,117.0717 345.10973,113.99178 347.28345,111.9086 349.45718,109.82543 350.54448,108.73813 355.43185,105.02736 360.31921,101.3166 369.02287,94.970189 376.63118,90.622712 384.23948,86.275234 390.76207,83.919855 395.38116,80.659007 400.00025,77.39816 402.71815,73.230725 402.4464,68.612319 402.17466,63.993913 398.91288,58.920037 395.01829,55.025391 391.1237,51.130745 386.59449,48.413218 381.52217,46.873294 376.44984,45.33337 370.83426,44.971075 364.13078,45.061632 357.4273,45.15219 349.63874,45.695578 341.30486,47.144895 332.97098,48.594212 324.09538,50.948963 315.67085,52.126655 307.24632,53.304348 299.27636,53.304348 296.7398,54.84438 294.20323,56.384411 297.10142,59.463737 303.53293,62.815322 309.96443,66.166908 319.9281,69.790061 327.08363,72.960257 334.23916,76.130454 338.58723,78.847997 340.57992,81.836392 342.57261,84.824787 342.21027,88.08586 340.48909,91.800316 338.76791,95.514772 335.68924,99.680035 332.69977,103.39428 329.7103,107.10853 326.81253,110.36851 322.2825,111.54649 317.75246,112.72446 311.59504,111.81896 308.42432,111.27541 305.2536,110.73186 305.07246,110.55072 304.8913,110.36957"
     id="path4176"
     inkscape:connector-curvature="0"
     inkscape:path-effect="#path-effect4178"
     inkscape:original-d="M 340.76087,190.80435 C 338.95028,186.81784 337.13868,182.83234 335.32609,178.84783 336.7762,174.4995 338.22564,170.15118 339.67391,165.80435 340.58046,163.99225 341.48651,162.18016 342.3913,160.36957 343.47854,152.04075 344.56622,143.7019 345.65217,135.36957 345.65317,133.91948 345.65317,132.47001 345.65217,131.02174 343.29973,127.40005 340.94303,123.77436 338.58696,120.15217 341.8486,117.07167 345.1097,113.99175 348.36957,110.91304 349.45718,109.82543 350.54448,108.73813 351.63043,107.65217 360.31909,101.31643 369.02274,94.970014 377.71739,88.630435 384.23928,86.274668 390.76187,83.91929 397.28261,81.565217 400.0005,77.39832 402.71839,73.230884 405.43478,69.065217 402.17582,63.993165 398.91404,58.91929 395.65217,53.847826 391.12441,51.12957 386.5952,48.412043 382.06522,45.695652 376.44991,45.33231 370.83433,44.970014 365.21739,44.608696 357.42724,45.151264 349.63868,45.694652 341.84783,46.23913 332.9708,48.593525 324.0952,50.948275 315.21739,53.304348 307.24632,53.303348 299.27636,53.303348 291.30435,53.304348 294.20426,56.383444 297.10245,59.462768 300,62.543478 309.96487,66.165703 319.92854,69.788855 329.8913,73.413043 334.23989,76.129282 338.58796,78.846826 342.93478,81.565217 342.57349,84.824885 342.21114,88.085957 341.84783,91.347826 338.76808,95.514895 335.68941,99.680159 332.6087,103.84783 329.71036,107.10858 326.81259,110.36857 323.91304,113.63043 317.75263,112.72334 311.5952,111.81784 305.43478,110.91304 305.2546,110.73086 305.07346,110.54972 304.8913,110.36957" />
  <path
     style="fill:none;stroke:#000000;stroke-width:1px;stroke-linecap:butt;stroke-linejoin:miter;stroke-opacity:1"
     d="M 306.52174,100.04348 C 306.3404,99.318135 306.15924,98.593497 305.88782,100.31229 305.61639,102.03109 305.25371,106.20182 304.8913,110.36957"
     id="path4180"
     inkscape:connector-curvature="0"
     inkscape:path-effect="#path-effect4182"
     inkscape:original-d="M 306.52174,100.04348 C 306.34158,99.317841 306.16042,98.593203 305.97826,97.869565 305.61729,102.03117 305.25462,106.2019 304.8913,110.36957" />
  <path
     style="fill:none;stroke:#000000;stroke-width:1px;stroke-linecap:butt;stroke-linejoin:miter;stroke-opacity:1"
     d="M 304.8913,110.36957 C 304.8913,110.36957 304.8913,110.36957 304.8913,110.36957 305.43478,106.92754 305.97844,103.48438 305.34449,99.771604 304.71054,96.058828 302.89835,92.072011 299.36624,88.268167 295.83414,84.464323 290.57992,80.840723 286.50381,78.123308 282.42769,75.405893 279.52926,73.594375 278.26098,74.862152 276.99271,76.129929 277.35499,80.477351 277.89853,85.550446 278.44207,90.623541 279.16656,96.419429 278.89521,100.1332 278.62386,103.84696 277.35594,105.47716 276.08686,104.47981 274.81778,103.48247 273.55052,99.861738 271.92025,94.789768 270.28998,89.717797 268.29691,83.195016 267.30063,77.850834 266.30435,72.506652 266.30435,68.33958 266.84791,64.71666 267.39147,61.093741 268.47869,58.013291 269.74659,54.934181 271.01449,51.855071 272.46433,48.774157 273.7321,45.061252 274.99987,41.348348 276.08725,36.998822 275.36271,32.561451 274.63818,28.124081 272.10126,23.593868 270.28973,20.514269 268.47819,17.43467 267.39115,15.804114 266.66652,14.626546 265.94188,13.448977 265.57951,12.724238 264.49315,11.456823 263.4068,10.189407 261.95652,8.7391288 260.32609,7.1086957"
     id="path4184"
     inkscape:connector-curvature="0"
     inkscape:path-effect="#path-effect4186"
     inkscape:original-d="M 304.8913,110.36957 C 304.8923,110.36857 304.8923,110.36857 304.8913,110.36957 304.8913,110.36957 305.97926,103.48451 306.52174,100.04348 304.71174,96.05828 302.89955,92.071464 301.08696,88.086957 295.83493,84.463179 290.58071,80.83958 285.32609,77.217391 282.42842,75.404725 279.52999,73.593203 276.63043,71.782609 276.99379,76.129839 277.35607,80.477261 277.71739,84.826087 278.44318,90.623402 279.16767,96.41929 279.8913,102.21739 278.624,103.84707 277.35607,105.47726 276.08696,107.1087 274.81898,103.48205 273.55172,99.861319 272.28261,96.23913 270.29117,89.717434 268.2981,83.194652 266.30435,76.673913 266.30535,72.506652 266.30535,68.33958 266.30435,64.173913 267.39204,61.093942 268.47926,58.013493 269.56522,54.934783 271.01493,51.855276 272.46477,48.774362 273.91304,45.695652 275.00058,41.348526 276.08796,36.999 277.17391,32.652174 274.63937,28.123414 272.10245,23.593203 269.56522,19.065217 268.47934,17.433903 267.3923,15.803348 266.30435,14.173913 265.94308,13.448378 265.58071,12.723638 265.21739,12 263.4078,10.188406 261.95752,8.7381305 260.32609,7.1086957" />
  <path
     style="fill:none;stroke:#000000;stroke-width:1px;stroke-linecap:butt;stroke-linejoin:miter;stroke-opacity:1"
     d="M 184.23934,223.68373 C 183.51499,224.31763 182.24687,227.39734 182.06564,229.39088 181.88441,231.38441 182.78986,232.28986 186.86614,234.55445 190.94243,236.81904 198.18881,240.44223 203.98586,243.069 209.78292,245.69577 214.13098,247.32629 217.30077,249.9526 220.47057,252.5789 222.46358,256.20256 224.72821,259.91656 226.99284,263.63057 229.52883,267.43455 232.6092,269.42745 235.68958,271.42035 239.31254,271.6015 240.39912,269.33728 241.48569,267.07307 240.03604,262.36169 236.95679,258.01448 233.87753,253.66727 229.16676,249.68124 222.91689,246.05808 216.66702,242.43493 208.87731,239.17412 202.35531,236.00372 195.83331,232.83332 190.58002,229.7538 187.86242,227.30756 185.14483,224.86132 184.96368,223.04983 184.23934,223.68373 Z"
     id="path4188"
     inkscape:connector-curvature="0"
     inkscape:path-effect="#path-effect4190"
     inkscape:original-d="M 184.78261,221.23913 C 183.51549,224.31784 182.24738,227.39755 180.97826,230.47826 181.88541,231.38341 182.79086,232.28886 183.69565,233.19565 190.94303,236.81784 198.18941,240.44103 205.43478,244.06522 209.78337,245.69456 214.13143,247.32509 218.47826,248.95652 220.47176,252.57825 222.46477,256.2019 224.45652,259.82609 226.994,263.6298 229.52999,267.43378 232.06522,271.23913 235.68963,271.4193 239.31259,271.60045 242.93478,271.78261 241.48689,267.0727 240.03723,262.36132 238.58696,257.65217 233.87844,253.6662 229.16767,249.68016 224.45652,245.69565 216.66752,242.43372 208.87781,239.17291 201.08696,235.91304 195.834,232.83214 190.58071,229.75262 185.32609,226.67391 185.14592,224.86121 184.96477,223.04972 184.78261,221.23913 Z" />
  <path
     style="fill:none;stroke:#000000;stroke-width:1px;stroke-linecap:butt;stroke-linejoin:miter;stroke-opacity:1"
     d="M 205.88805,260.64088 C 203.80435,261.0932 203.80435,262.9048 204.71055,266.9828 205.61675,271.06081 207.42735,277.39789 208.15211,282.47034 208.87688,287.54278 208.51459,291.34674 207.88053,294.78916 207.24647,298.23157 206.34093,301.3104 205.43498,304.20947 204.52903,307.10855 203.62359,309.82489 202.9893,313.26789 202.355,316.7109 201.99284,320.87573 204.62092,322.32525 207.249,323.77477 212.86349,322.50698 216.93911,319.9707 221.01474,317.43442 223.5515,313.62928 225.45319,308.10503 227.35489,302.58077 228.62339,295.33219 228.71388,288.72052 228.80437,282.10885 227.71724,276.12964 226.63048,272.68811 225.54372,269.24658 224.45662,268.34066 222.73552,266.98189 221.01442,265.62313 218.65956,263.8117 215.39887,262.45301 212.13817,261.09431 207.97176,260.18857 205.88805,260.64088 Z"
     id="path4192"
     inkscape:connector-curvature="0"
     inkscape:path-effect="#path-effect4194"
     inkscape:original-d="M 203.80435,259.28261 C 203.80535,261.0932 203.80535,262.9048 203.80435,264.71739 205.61794,271.06047 207.42854,277.39755 209.23913,283.73913 208.87777,287.54287 208.51549,291.34683 208.15217,295.15217 207.24712,298.23176 206.34158,301.31059 205.43478,304.3913 204.52964,307.10875 203.62419,309.82509 202.71739,312.54348 202.35591,316.71098 201.99375,320.87581 201.63043,325.04348 207.24883,323.77403 212.86332,322.50625 218.47826,321.23913 221.01497,317.43457 223.55172,313.62943 226.08696,309.82609 227.35569,302.58091 228.62419,295.33233 229.8913,288.08696 228.80552,282.10864 227.71839,276.12943 226.63043,270.15217 225.54462,269.2455 224.45752,268.33958 223.36957,267.43478 221.01528,265.62202 218.66042,263.81059 216.30435,262 212.13842,261.09315 207.97201,260.18741 203.80435,259.28261 Z" />
  <path
     style="stroke-width:0.81194961"
     d="M 183.89296,134.79044 C 182.94921,133.59065 180.97507,129.6344 179.50598,125.99877 174.9625,114.75476 173.83197,112.8816 171.42098,112.60281 169.1256,112.33738 162.32127,115.39434 158.01257,118.62676 152.77515,122.55591 150.06898,122.44736 146.58187,118.16822 141.77046,112.26399 132.32974,98.128646 131.35761,95.373319 129.04582,88.821036 130.49923,78.991478 133.85071,78.512108 134.77087,78.380495 138.57198,79.396737 142.29762,80.770423 146.02326,82.144109 151.15956,83.48628 153.71162,83.753023 159.12523,84.318857 174.14551,82.660488 176.01974,81.290014 177.8686,79.938098 179.89892,66.472751 179.49058,58.271031 179.13754,51.180092 179.08293,51.042242 169.46818,32.973659 166.60595,27.594795 166.28176,26.389708 166.301,21.20039 166.32353,15.121417 168.11876,10.141663 170.28774,10.141663 170.90629,10.141663 172.16007,11.694517 173.07391,13.592449 177.11189,21.978791 178.87553,34.277588 181.31158,71.037883 182.21418,84.658337 183.66759,100.36956 184.54136,105.95172 186.54211,118.73358 187.48155,133.62557 186.40813,135.54367 185.6796,136.84549 185.45704,136.77883 183.89296,134.79044 Z"
     id="path4196"
     inkscape:connector-curvature="0" />
  <path
     style="stroke-width:0.81194961"
     d="M 151.66448,215.00252 C 147.16524,212.58408 143.94246,209.69542 139.7141,204.29109 137.40278,201.33696 133.04635,195.97611 130.03315,192.37809 122.43657,183.30714 118.42071,174.66537 121.04755,173.04189 121.40127,172.82328 125.86866,173.35725 130.97508,174.2285 141.25237,175.98199 152.96068,176.33064 158.56605,175.0501 160.57562,174.59101 165.48541,173.10579 169.47669,171.74959 181.94409,167.5133 183.32595,168.23129 183.32871,178.94682 183.33024,184.86059 182.9906,186.65433 181.10871,190.67142 176.19582,201.1585 161.1342,216.44528 155.81391,216.34435 154.87144,216.32647 153.00419,215.72265 151.66448,215.00252 Z"
     id="path4198"
     inkscape:connector-curvature="0" />
  <path
     style="stroke-width:0.81194961"
     d=""
     id="path4200"
     inkscape:connector-curvature="0" />
  <path
     style="stroke-width:0.81194961"
     d="M 233.26541,268.60867 C 230.64104,266.78515 229.9802,265.96651 224.84749,258.18073 220.12378,251.01535 217.28569,248.27098 212.00773,245.76499 210.079,244.84922 204.29911,242.12964 199.16353,239.72147 194.02795,237.31331 188.23352,234.33434 186.28702,233.10154 183.05741,231.0561 182.79189,230.64027 183.25066,228.34639 183.52717,226.96385 183.91641,225.66968 184.11565,225.47044 184.31488,225.27121 186.19372,226.61853 188.29084,228.46449 190.67209,230.56055 198.23099,234.84263 208.42187,239.86862 218.56191,244.86953 226.58437,249.41151 229.61164,251.86538 238.19997,258.82698 242.65781,269.18569 237.32516,269.78934 236.20873,269.91572 234.38184,269.38442 233.26541,268.60867 Z"
     id="path4202"
     inkscape:connector-curvature="0" />
  <path
     style="stroke-width:0.81194961"
     d="M 203.97732,320.19821 C 202.82443,318.04401 203.35586,314.57719 206.5525,303.39893 209.85297,291.85761 209.93051,285.58623 206.93437,272.51517 205.06334,264.35253 204.8362,262.35464 205.7173,261.81008 207.96707,260.41965 216.34248,263.25092 221.40722,267.11399 225.5026,270.23769 226.94511,274.55315 227.39093,285.01505 228.00669,299.46487 224.65109,312.0374 218.80983,317.16609 213.25338,322.04472 205.78285,323.57187 203.97732,320.19821 Z"
     id="path4204"
     inkscape:connector-curvature="0" />
  <path
     style="stroke-width:0.81194961"
     d="M 196.51573,492.4727 C 194.83615,492.14699 193.24671,491.66525 192.98363,491.40217 191.47016,489.88871 196.8863,486.92995 211.85075,481.09535 226.44274,475.40599 232.17093,471.71943 242.70623,461.23738 252.7287,451.2656 254.85917,447.70301 260.42239,431.6124 263.11107,423.83586 263.38694,422.16844 263.85284,410.87747 264.20309,402.3891 264.06534,397.70787 263.40656,395.71176 262.88246,394.12371 259.76088,389.04757 256.46971,384.43145 250.32017,375.80622 248.69245,372.1915 248.69245,367.16029 248.69245,362.30559 246.09501,360.86626 234.48334,359.28655 209.82486,355.93189 189.71161,358.14884 171.55724,366.22246 165.9971,368.69517 162.9568,369.28045 136.59016,372.95386 L 107.7127,376.97709 102.44718,380.19994 C 87.180314,389.5443 75.668381,395.00577 71.238823,395.00577 67.419142,395.00577 63.847682,392.06413 61.175909,386.71745 58.198623,380.75937 57.907235,375.9291 60.338631,372.83808 63.716419,368.54392 76.591595,365.59437 96.451905,364.56497 132.66589,362.68793 142.6564,361.41848 164.4448,355.92542 168.12352,354.99798 169.00284,352.62379 167.51489,347.63615 165.56936,341.11475 144.59073,288.9842 141.64966,283.3627 138.32125,277.00086 134.5644,272.92922 124.46417,264.73725 120.6683,261.65854 116.67141,258.05449 115.58219,256.72824 L 113.60178,254.31688 116.20396,251.99184 C 117.63516,250.71306 119.51227,249.66679 120.37531,249.66679 122.92695,249.66679 135.05251,253.72943 140.11821,256.2816 154.38755,263.47069 158.5628,273.56929 161.38586,307.72119 163.16753,329.27493 164.09409,334.58638 167.12232,340.60515 169.43324,345.19821 171.72089,347.33812 176.84503,349.69992 180.85557,351.54845 181.20946,351.56658 213.50334,351.57818 243.47433,351.58896 246.23968,351.70544 247.69028,353.01822 248.59799,353.83968 250.05744,357.45689 251.12535,361.53196 252.8373,368.06464 253.30574,368.91649 257.12992,372.45112 271.55475,385.78379 270.98687,384.34589 270.36673,405.96709 269.72986,428.17124 267.05514,441.90571 260.86419,454.76179 258.07173,460.56058 256.65313,462.30686 248.82472,469.58221 243.944,474.11812 237.09559,481.29934 233.60603,485.54049 L 227.26138,493.25167 213.41544,493.1583 C 205.80018,493.10694 198.1953,492.79842 196.51573,492.4727 Z"
     id="path4206"
     inkscape:connector-curvature="0" />
  <path
     style="stroke-width:0.81194961"
     d="M 413.11225,369.74758 C 407.80586,368.09166 394.43348,366.56076 378.19841,365.75055 346.20972,364.15417 340.0335,363.1302 335.30709,358.63948 332.04726,355.54222 331.06856,353.36362 328.23993,342.90802 326.87035,337.84557 324.13898,328.95367 322.17022,323.14823 317.89957,310.55502 316.64542,302.21108 316.55635,285.79855 316.48212,272.12171 316.83933,270.51188 324.26124,251.0756 331.53133,232.03687 332.09532,224.40742 327.34849,209.31188 324.57718,200.49871 323.98275,192.28624 325.71477,186.7407 326.27267,184.95441 329.50118,177.96794 332.88923,171.21521 338.54247,159.94773 339.08114,158.44184 339.43594,152.91329 340.08114,142.85969 335.75985,130.05903 329.31102,122.92094 323.40586,116.38463 318.90938,115.68253 309.99465,119.90477 304.63109,122.44507 303.808,122.59668 295.37956,122.59668 287.01036,122.59668 286.1018,122.43264 280.94694,119.99091 271.75085,115.63494 263.64429,105.50281 260.02209,93.837598 256.73454,83.250147 257.15553,65.082411 261.03019,50.333168 263.08098,42.526644 263.30298,33.835836 261.80426,20.029472 261.20693,14.526745 260.90776,9.8349539 261.13944,9.6032683 261.88463,8.8580798 267.27561,16.83165 271.0289,24.230328 276.22342,34.470063 276.09791,35.912641 268.19271,56.828765 264.72394,66.006679 265.12697,76.020567 269.52737,89.989964 274.25804,105.00783 275.63696,107.30945 278.30512,104.64129 279.71825,103.22816 279.91098,95.242019 278.78999,84.549456 278.11751,78.134961 278.36919,75.097631 279.57321,75.097631 280.67949,75.097631 291.93558,82.888341 296.00619,86.47143 298.1318,88.342472 300.86996,91.572729 302.09097,93.649786 304.02018,96.931532 304.311,98.294852 304.311,104.05688 304.311,107.70373 304.51857,110.89521 304.77227,111.14907 305.02596,111.40293 307.99105,111.99415 311.36135,112.46292 322.80713,114.05488 327.57218,111.80235 335.56623,101.02077 343.64855,90.12016 344.6817,84.337556 339.41938,79.454698 335.49305,75.811503 333.76312,74.899579 318.17704,68.256923 304.71423,62.519187 296.59748,58.073907 296.59748,56.438499 296.59748,55.37612 298.40228,54.985566 309.58867,53.627241 315.17083,52.949419 325.03601,51.321702 331.51131,50.010092 366.4228,42.938561 385.07673,44.92907 395.4121,56.828765 402.96486,65.524684 403.2846,72.890407 396.36219,78.715236 394.93259,79.918163 389.79948,82.890117 384.95526,85.31958 364.55549,95.550454 342.47067,112.59749 340.75375,119.43826 340.20631,121.61944 340.63092,123.23128 343.77818,130.91905 345.4202,134.92997 342.83537,154.05571 339.16769,165.03318 335.81601,175.06483 335.58078,180.61612 338.23484,187.04736 L 340.03678,191.41375 350.71951,194.84241 C 363.97504,199.09679 367.99028,201.38018 371.07865,206.42017 375.53293,213.68927 376.41718,218.41315 373.77172,220.80726 372.23523,222.19777 371.9903,222.06321 365.74721,216.39854 357.01011,208.47096 350.48201,203.66295 346.22666,202.02148 343.0816,200.80829 342.42831,200.78589 340.54302,201.82662 336.27579,204.18223 335.16509,208.19345 335.16509,221.24856 V 233.02183 L 340.38994,244.7951 C 345.39809,256.08005 345.61699,256.84534 345.66761,263.24624 L 345.72043,269.9241 338.69003,283.54794 C 330.66068,299.10762 329.07054,304.7496 329.0834,317.63334 329.09019,324.44484 329.38875,326.22396 331.16701,330.0498 335.78857,339.99286 341.52875,342.76472 365.6132,346.68348 372.53507,347.80974 381.12143,349.26505 384.69401,349.91753 388.26659,350.56999 394.84338,351.12002 399.3091,351.13979 406.7696,351.17281 407.76546,351.36894 411.57898,353.55622 416.28636,356.25617 420.01382,360.26264 420.01382,362.62243 420.01382,364.49439 417.00256,370.67903 416.14056,370.5775 415.8147,370.53911 414.45196,370.16564 413.11225,369.74758 Z"
     id="path4208"
     inkscape:connector-curvature="0" />
</svg>
