<?xml version="1.0" encoding="UTF-8" standalone="no"?>
<!-- Created with Inkscape (http://www.inkscape.org/) -->

<svg
   xmlns:dc="http://purl.org/dc/elements/1.1/"
   xmlns:cc="http://creativecommons.org/ns#"
   xmlns:rdf="http://www.w3.org/1999/02/22-rdf-syntax-ns#"
   xmlns:svg="http://www.w3.org/2000/svg"
   xmlns="http://www.w3.org/2000/svg"
   xmlns:sodipodi="http://sodipodi.sourceforge.net/DTD/sodipodi-0.dtd"
   xmlns:inkscape="http://www.inkscape.org/namespaces/inkscape"
   version="1.1"
   id="svg4210"
   width="512"
   height="512"
   viewBox="0 0 512 512"
   sodipodi:docname="U+818D.svg"
   inkscape:version="0.92.4 (5da689c313, 2019-01-14)">
  <metadata
     id="metadata4216">
    <rdf:RDF>
      <cc:Work
         rdf:about="">
        <dc:format>image/svg+xml</dc:format>
        <dc:type
           rdf:resource="http://purl.org/dc/dcmitype/StillImage" />
        <dc:title></dc:title>
      </cc:Work>
    </rdf:RDF>
  </metadata>
  <defs
     id="defs4214">
    <inkscape:path-effect
       effect="bspline"
       id="path-effect4258"
       is_visible="true"
       weight="33.333333"
       steps="2"
       helper_size="0"
       apply_no_weight="true"
       apply_with_weight="true"
       only_selected="false" />
    <inkscape:path-effect
       effect="bspline"
       id="path-effect4254"
       is_visible="true"
       weight="33.333333"
       steps="2"
       helper_size="0"
       apply_no_weight="true"
       apply_with_weight="true"
       only_selected="false" />
    <inkscape:path-effect
       effect="bspline"
       id="path-effect4250"
       is_visible="true"
       weight="33.333333"
       steps="2"
       helper_size="0"
       apply_no_weight="true"
       apply_with_weight="true"
       only_selected="false" />
    <inkscape:path-effect
       effect="bspline"
       id="path-effect4246"
       is_visible="true"
       weight="33.333333"
       steps="2"
       helper_size="0"
       apply_no_weight="true"
       apply_with_weight="true"
       only_selected="false" />
    <inkscape:path-effect
       effect="bspline"
       id="path-effect4242"
       is_visible="true"
       weight="33.333333"
       steps="2"
       helper_size="0"
       apply_no_weight="true"
       apply_with_weight="true"
       only_selected="false" />
    <inkscape:path-effect
       effect="bspline"
       id="path-effect4238"
       is_visible="true"
       weight="33.333333"
       steps="2"
       helper_size="0"
       apply_no_weight="true"
       apply_with_weight="true"
       only_selected="false" />
    <inkscape:path-effect
       effect="bspline"
       id="path-effect4234"
       is_visible="true"
       weight="33.333333"
       steps="2"
       helper_size="0"
       apply_no_weight="true"
       apply_with_weight="true"
       only_selected="false" />
    <inkscape:path-effect
       effect="bspline"
       id="path-effect4230"
       is_visible="true"
       weight="33.333333"
       steps="2"
       helper_size="0"
       apply_no_weight="true"
       apply_with_weight="true"
       only_selected="false" />
    <inkscape:path-effect
       effect="bspline"
       id="path-effect4226"
       is_visible="true"
       weight="33.333333"
       steps="2"
       helper_size="0"
       apply_no_weight="true"
       apply_with_weight="true"
       only_selected="false" />
    <inkscape:path-effect
       effect="bspline"
       id="path-effect4222"
       is_visible="true"
       weight="33.333333"
       steps="2"
       helper_size="0"
       apply_no_weight="true"
       apply_with_weight="true"
       only_selected="false" />
  </defs>
  <sodipodi:namedview
     pagecolor="#ffffff"
     bordercolor="#666666"
     borderopacity="1"
     objecttolerance="10"
     gridtolerance="10"
     guidetolerance="10"
     inkscape:pageopacity="0"
     inkscape:pageshadow="2"
     inkscape:window-width="1920"
     inkscape:window-height="1017"
     id="namedview4212"
     showgrid="false"
     inkscape:zoom="0.91"
     inkscape:cx="256"
     inkscape:cy="256"
     inkscape:window-x="-8"
     inkscape:window-y="-8"
     inkscape:window-maximized="1"
     inkscape:current-layer="svg4210" />
  <path
     style="fill:none;stroke:#000000;stroke-width:1px;stroke-linecap:butt;stroke-linejoin:miter;stroke-opacity:1"
     d="M 76.373969,94.87252 C 74.341923,95.589005 74.102882,98.696542 75.178835,103.12008 76.254789,107.54362 78.644377,113.27863 81.513121,117.82081 84.381865,122.36299 87.728153,125.70928 90.357607,128.33873 92.987061,130.96819 94.899391,132.88052 96.333551,135.74866 97.767711,138.6168 98.723876,142.44146 99.799683,147.34233 100.87549,152.24319 102.07048,158.21812 103.26577,165.03126 104.46107,171.84441 105.65612,179.49275 106.97089,185.23008 108.28565,190.96741 109.71975,194.79166 109.36173,197.30162 109.00371,199.81159 106.85265,201.00662 102.66772,202.91975 98.482782,204.83289 92.271143,207.46089 88.804792,209.25348 85.338442,211.04608 84.621458,212.00206 84.980345,214.99325 85.339232,217.98444 86.771798,222.99842 89.999872,224.07391 93.227946,225.1494 98.247153,222.28128 102.07148,219.89102 105.8958,217.50076 108.52587,215.58798 112.10998,216.66323 115.69409,217.73848 120.23783,221.80393 122.98711,222.99853 125.73638,224.19312 126.69256,222.51982 127.40924,219.53336 128.12592,216.54691 128.60434,212.24112 130.03882,209.49255 131.4733,206.74398 133.86432,205.54847 135.77629,204.71204 137.68826,203.87562 139.12323,203.39729 142.22876,202.44175 145.33429,201.48621 150.11912,200.05076 155.37731,198.4972 160.6355,196.94365 166.37393,195.26994 170.07889,194.19431 173.78386,193.11868 175.4575,192.6405 177.24944,191.08727 179.04139,189.53404 180.95508,186.90272 181.6718,184.75194 182.38852,182.60116 181.91024,180.92716 180.7157,179.61305 179.52116,178.29894 177.60808,177.3424 176.53213,175.42921 175.45618,173.51603 175.21719,170.64813 176.05371,165.27082 176.89023,159.89351 178.80317,152.00265 180.71553,146.26591 182.62789,140.52918 184.54051,136.94303 187.28903,133.11911 190.03756,129.29519 193.62437,125.23014 196.49247,121.40589 199.36058,117.58163 201.51251,113.99508 201.27345,109.0961 201.03438,104.19711 198.40407,97.979999 195.65533,93.558104 192.90659,89.13621 190.03787,86.506545 186.09376,83.638091 182.14966,80.769636 177.12987,77.662147 172.94679,75.749794 168.76372,73.837441 165.41732,73.120356 164.10225,75.749967 162.78717,78.379578 163.50413,84.354268 162.78746,88.179053 162.07079,92.003837 159.91973,93.676884 154.65858,94.274822 149.39744,94.87276 141.0353,94.394924 135.17871,94.514333 129.32212,94.633742 125.97592,95.350786 123.46565,96.426386 120.95538,97.501986 119.28267,98.935736 118.92381,102.52324 118.56495,106.11075 119.52051,111.84407 124.06343,114.71297 128.60636,117.58187 136.73262,117.58187 144.97911,116.74521 153.22559,115.90856 161.59306,114.23507 166.01522,113.39854 170.43737,112.56201 170.91552,112.56201 170.79631,115.66249 170.6771,118.76298 169.95848,124.99105 168.64368,131.6848 167.32888,138.37856 165.41688,145.54853 163.74345,152.2422 162.07003,158.93587 160.63602,165.14992 159.3212,170.52877 158.00638,175.90762 156.8114,180.44855 154.42092,182.95906 152.03044,185.46958 148.44575,185.94754 143.42483,186.18665 138.4039,186.42577 131.95179,186.42577 128.24601,183.79551 124.54022,181.16525 123.5842,175.90716 122.86713,171.24612 122.15007,166.58508 121.67191,162.52077 121.31341,157.382 120.9549,152.24323 120.71581,146.02683 119.64019,141.00753 118.56457,135.98824 116.65195,132.16299 114.38121,128.09957 112.11047,124.03616 109.48074,119.73296 106.25391,115.78906 103.02709,111.84515 99.202169,108.25929 96.094632,105.3908 92.987095,102.5223 90.596703,100.37095 89.043199,99.175816 87.489695,97.980683 86.772588,97.741648 84.500032,96.784785 82.227475,95.827923 78.406015,94.156035 76.373969,94.87252 Z"
     id="path4220"
     inkscape:connector-curvature="0"
     inkscape:path-effect="#path-effect4222"
     inkscape:original-d="M 74.580882,92.482539 C 74.342841,95.589076 74.103799,98.696613 73.863758,101.80515 76.255994,107.54312 78.645584,113.27813 81.034997,119.01612 84.382865,122.36199 87.729153,125.70828 91.074731,129.05586 92.988061,130.96719 94.900391,132.87952 96.811722,134.79285 97.768887,138.61651 98.725052,142.44117 99.680217,146.26683 100.87664,152.24296 102.07163,158.21789 103.26584,164.19493 104.4622,171.84423 105.65725,179.49257 106.85146,187.14289 108.28686,190.96696 109.72095,194.79121 111.1542,198.61687 109.00352,199.81125 106.85246,201.00628 104.70008,202.20249 98.482577,204.8324 92.270937,207.4604 86.054864,210.09085 85.338601,211.0462 84.621616,212.00218 83.903492,212.95935 85.34042,217.9841 86.772988,222.99808 88.206235,228.01895 93.227763,225.14908 98.246969,222.28096 103.26584,219.41346 105.89567,217.50058 108.52574,215.5878 111.1542,213.67647 115.69503,217.73743 120.23877,221.80288 124.77955,225.86758 125.73671,224.19331 126.69288,222.52 127.64805,220.84771 128.12679,216.54701 128.60521,212.24122 129.0823,207.93948 131.4731,206.74358 133.86412,205.54807 136.25353,204.35386 137.68806,203.87502 139.12303,203.3967 140.55628,202.91961 145.3341,201.48557 150.11893,200.05012 154.89875,198.61687 160.63531,196.943 166.37374,195.26929 172.10973,193.597 173.78367,193.11802 175.45731,192.63984 177.12959,192.16276 179.04157,189.53417 180.95526,186.90285 182.86659,184.27439 182.38971,182.60082 181.91142,180.92682 181.43234,179.25453 179.52176,178.29774 177.60868,177.3412 175.69535,176.38603 175.45726,173.51594 175.21826,170.64804 174.97822,167.78055 176.89095,159.89369 178.80388,152.00282 180.71521,144.11546 182.62826,140.52937 184.54087,136.94322 186.4522,133.3586 190.03763,129.29525 193.62444,125.2302 197.20906,121.16749 199.36087,117.58181 201.51281,113.99526 203.66318,110.41064 201.03559,104.1966 198.40527,97.979489 195.77482,91.765415 192.90755,89.135168 190.03882,86.505507 187.16933,83.877053 182.15038,80.768467 177.13059,77.660979 172.10973,74.554443 168.76397,73.836279 165.41757,73.119195 162.06999,72.403071 162.78828,78.379445 163.50524,84.354135 164.22136,90.331168 162.07068,92.0037 159.91962,93.676746 157.76725,95.351035 149.3975,94.871706 141.03536,94.39387 132.66791,93.916787 129.32196,94.632991 125.97576,95.350035 122.62818,96.068159 120.95531,97.501904 119.2826,98.935654 117.60831,100.3709 118.56609,106.11056 119.52164,111.84388 120.47681,117.58187 128.60636,117.58087 136.73262,117.58087 144.85902,117.58187 153.22544,115.90779 161.59291,114.2343 169.95836,112.56201 170.43737,112.56101 170.91552,112.56101 171.3926,112.56201 170.67798,118.76308 169.95936,124.99115 169.24123,131.20723 167.32956,138.37874 165.41757,145.54871 163.50424,152.72094 162.07076,158.93604 160.63675,165.15009 159.2015,171.36616 158.00707,175.9078 156.81209,180.44873 155.61588,184.99152 152.03033,185.46872 148.44564,185.94668 144.85902,186.42577 138.4039,186.42477 131.95179,186.42477 125.49668,186.42577 124.54136,181.16504 123.58535,175.90695 122.62818,170.64904 122.15117,166.58495 121.67302,162.52064 121.19393,158.45793 120.95594,152.24319 120.71685,146.02679 120.47681,139.81271 118.56577,135.98764 116.65315,132.16239 114.73982,128.33873 112.11164,124.03544 109.48191,119.73225 106.85146,115.4305 103.02805,111.84412 99.203135,108.25826 95.377474,104.67364 92.98804,102.52125 90.597648,100.3699 88.206235,98.21953 87.490095,97.979483 86.772988,97.740448 86.054864,97.502406 82.228003,95.826717 78.406543,94.154828 74.580882,92.482539 Z" />
  <path
     style="fill:none;stroke:#000000;stroke-width:1px;stroke-linecap:butt;stroke-linejoin:miter;stroke-opacity:1"
     d="M 126.4533,270.56776 C 124.30238,271.28435 121.67293,274.39188 120.71636,278.0979 119.7598,281.80392 120.47667,286.10517 123.10715,288.13738 125.73762,290.16959 130.27855,289.93059 135.17836,288.37685 140.07817,286.82312 145.33829,283.95396 150.95489,278.2177 156.57148,272.48144 162.54887,263.874 166.2537,257.18114 169.95852,250.48828 171.39296,245.70681 173.3052,241.52405 175.21744,237.3413 177.60845,233.75478 181.31294,229.93091 185.01743,226.10704 190.03891,222.04204 190.63699,220.60791 191.23506,219.17379 187.40956,220.36925 182.38861,224.31415 177.36765,228.25905 171.15452,234.95011 167.21008,239.73109 163.26563,244.51206 161.5926,247.38011 158.60392,250.36895 155.61524,253.35779 151.31427,256.46404 147.25005,259.57195 143.18582,262.67986 139.36216,265.78658 136.85196,268.05759 134.34176,270.32859 133.1469,271.76242 131.71157,271.64281 130.27624,271.5232 128.60421,269.85118 126.4533,270.56776 Z"
     id="path4224"
     inkscape:connector-curvature="0"
     inkscape:path-effect="#path-effect4226"
     inkscape:original-d="M 126.93092,268.17789 C 124.30247,271.28442 121.67302,274.39196 119.04256,277.5005 119.76093,281.80373 120.47781,286.10498 121.19393,290.40873 125.73757,290.16864 130.2785,289.92964 134.81929,289.6916 140.07798,286.82277 145.3381,283.95361 150.59601,281.08612 156.57169,272.48158 162.54908,263.87414 168.52411,255.26966 169.95917,250.48847 171.3936,245.707 172.82685,240.92718 175.21767,237.34145 177.60868,233.75494 179.99809,230.17032 185.01734,226.10693 190.03882,222.04192 195.05769,217.97922 191.23486,219.17316 187.40937,220.36863 183.58371,221.56483 177.36769,228.25908 171.15456,234.95015 164.93849,241.6443 163.26594,244.51224 161.59291,247.38029 159.91862,250.24979 155.61511,253.35761 151.31414,256.46386 147.01039,259.5724 143.18573,262.67975 139.36207,265.78647 135.53641,268.89501 134.34186,270.32867 133.147,271.76251 131.95079,273.19775 130.27724,271.5222 128.60521,269.85018 126.93092,268.17789 Z" />
  <path
     style="fill:none;stroke:#000000;stroke-width:1px;stroke-linecap:butt;stroke-linejoin:miter;stroke-opacity:1"
     d="M 54.501309,258.7355 C 55.696412,263.39655 60.477237,275.10957 64.182592,282.04212 67.887947,288.97466 70.517289,291.12594 72.429448,294.35253 74.341606,297.57912 75.536862,301.88204 75.656478,307.49983 75.776093,313.11761 74.820076,320.04873 74.580963,326.74251 74.34185,333.43628 74.819855,339.88935 75.05893,345.14851 75.298006,350.40767 75.298006,354.47079 73.863966,357.57867 72.429925,360.68655 69.562133,362.8374 66.573509,365.10875 63.584884,367.3801 60.478561,369.76958 57.370413,372.51904 54.262265,375.26849 51.155838,378.37492 49.482033,382.55897 47.808228,386.74302 47.569264,392.00023 49.960265,396.3039 52.351267,400.60758 57.37014,403.95349 61.792786,404.43119 66.215432,404.90888 70.040267,402.51836 72.310566,399.29172 74.580864,396.06508 75.298208,392.00013 77.927526,389.13222 80.556844,386.26431 85.099904,384.59055 90.835973,382.55903 96.572041,380.52751 103.50608,378.13647 109.84018,375.74622 116.17428,373.35597 121.91227,370.96514 128.48509,369.17262 135.0579,367.38009 142.46974,366.18463 146.29432,365.58712 150.11889,364.98961 150.35797,364.98961 156.30953,364.63252 162.26109,364.27542 174.02312,363.5553 180.59654,362.1206 187.16997,360.68591 188.60435,358.53433 190.15743,354.11386 191.71051,349.69338 193.38469,342.99663 192.66764,337.61908 191.95059,332.24152 188.8425,328.1771 185.85451,323.87439 182.86652,319.57167 179.99792,315.02972 178.44421,311.0853 176.8905,307.14089 176.65144,303.79412 175.81515,301.64341 174.97885,299.49271 173.54421,298.53628 170.07805,298.05812 166.61189,297.57996 161.11483,297.57996 158.00689,298.89434 154.89895,300.20872 154.18196,302.83769 155.13847,306.18565 156.09499,309.53361 158.72326,313.59548 160.15757,318.2566 161.59188,322.91771 161.83091,328.1763 160.15778,332.83792 158.48465,337.49954 154.89969,341.5625 147.96628,345.02934 141.03287,348.49617 130.75677,351.36392 123.3462,353.15685 115.93563,354.94978 111.39437,355.66682 107.21071,356.74255 103.02704,357.81827 99.203338,359.25216 96.573624,360.08898 93.943909,360.92579 92.510114,361.16476 90.835396,359.01144 89.160679,356.85812 87.249862,352.31993 86.891496,347.77804 86.533129,343.23616 87.728463,338.69389 89.162559,334.15268 90.596656,329.61147 92.270382,325.06851 93.345836,320.40789 94.421291,315.74728 94.8995,310.96519 95.258025,307.14086 95.61655,303.31653 95.855646,300.44738 95.497134,296.98222 95.138622,293.51707 94.182097,289.45184 91.553142,285.50839 88.924188,281.56494 84.620678,277.7396 80.915587,274.75161 77.210497,271.76362 74.103006,269.61228 70.397733,267.10225 66.692461,264.59223 62.390005,261.72393 59.043247,259.09433 55.696488,256.46473 53.306205,254.07445 54.501309,258.7355 Z"
     id="path4228"
     inkscape:connector-curvature="0"
     inkscape:path-effect="#path-effect4230"
     inkscape:original-d="M 50.915794,251.68404 C 55.69762,263.39606 60.478446,275.10908 65.258272,286.82311 67.88884,288.97357 70.51818,291.12485 73.146634,293.27722 74.342791,297.57879 75.538047,301.88171 76.732254,306.18545 75.776939,313.11773 74.820923,320.04885 73.863758,326.98204 74.342918,333.4362 74.820923,339.88927 75.298006,346.34439 75.299006,350.40767 75.299006,354.47079 75.298006,358.53549 72.429804,360.68639 69.562015,362.83724 66.692519,364.98961 63.584769,367.37995 60.478446,369.76943 57.369909,372.16085 54.262261,375.26849 51.155836,378.37492 48.047299,381.48346 47.809181,386.74306 47.570216,392.00027 47.330175,397.26018 52.352038,400.60642 57.370909,403.95234 62.389776,407.29992 66.215261,404.90861 70.040097,402.51809 73.863758,400.12868 74.581663,396.06522 75.299006,392.00027 76.01513,387.93757 80.556639,386.26375 85.099699,384.58999 89.640483,382.9177 96.571841,380.52693 103.50588,378.13588 110.43708,375.74647 116.17407,373.35547 121.91206,370.96464 127.64805,368.57523 135.05777,367.37927 142.46961,366.18381 149.87889,364.98961 150.11889,364.98861 150.35797,364.98861 150.59601,364.98961 162.26103,364.27448 174.02306,363.55436 185.73508,362.83824 187.1702,360.68606 188.60458,358.53449 190.03782,356.38412 191.71122,349.69356 193.3854,342.99681 195.05769,336.30465 191.9517,332.24067 188.84362,328.17625 185.73508,324.11355 182.86769,319.57093 179.99909,315.02898 177.12959,310.48819 176.89157,307.14081 176.65251,303.79404 176.41247,300.44846 174.97962,299.49156 173.54498,298.53513 172.10973,297.57996 166.61189,297.57896 161.11483,297.57896 155.61588,297.57996 154.89962,300.2089 154.18263,302.83787 153.46451,305.46833 156.09615,309.53286 158.72442,313.59473 161.35287,317.65943 161.59293,322.91766 161.83195,328.17625 162.06999,333.43616 158.48472,337.4996 154.89975,341.56256 151.31314,345.62726 141.03268,348.49551 130.75658,351.36325 120.47681,354.23275 115.9355,354.94896 111.39424,355.666 106.85146,356.38412 103.02684,357.81773 99.203135,359.25162 95.377474,360.68686 93.943774,360.92498 92.509979,361.16395 91.074731,361.40399 89.161887,356.85761 87.25107,352.31942 85.33774,347.77864 86.533817,343.23634 87.729153,338.69407 88.923359,334.15328 90.597213,329.61168 92.270937,325.06871 93.943226,320.52793 94.422182,315.74737 94.900391,310.96528 95.377474,306.18545 95.617461,303.31661 95.856557,300.44746 96.094598,297.57996 95.139791,293.51679 94.183268,289.45156 93.226102,285.38886 88.925127,281.56388 84.621616,277.73854 80.317873,273.91488 77.211291,271.76247 74.103799,269.61113 70.995263,267.46076 66.693232,264.59107 62.390776,261.72277 58.087033,258.85528 55.697492,256.46373 53.307207,254.07345 50.915794,251.68404 Z" />
  <path
     style="fill:none;stroke:#000000;stroke-width:1px;stroke-linecap:butt;stroke-linejoin:miter;stroke-opacity:1"
     d="M 233.3048,72.76112 C 231.86991,75.98788 232.82608,81.72487 234.85854,85.072019 236.89099,88.419168 239.99808,89.375196 245.3759,89.972694 250.75372,90.570191 258.4046,90.809281 263.06588,90.330853 267.72716,89.852425 269.40066,88.657068 272.14798,89.015487 274.89529,89.373907 278.72254,91.287533 281.23214,95.828436 283.74175,100.36934 284.93708,107.54133 285.77375,112.56136 286.61042,117.58139 287.08845,120.44956 287.32756,122.60104 287.56667,124.75252 287.56667,126.18636 286.25161,127.74084 284.93655,129.29533 282.30893,130.96745 280.27647,131.56542 278.24402,132.16338 276.81041,131.68551 271.9085,131.32681 267.00659,130.96811 258.64364,130.72917 253.62379,130.84853 248.60394,130.9679 246.93084,131.44593 244.77848,132.76114 242.62613,134.07636 239.99854,136.2262 237.48789,136.94372 234.97724,137.66124 232.58781,136.94441 231.27275,139.69361 229.9577,142.4428 229.71872,148.6562 231.27321,151.88383 232.82769,155.11147 236.17371,155.35047 239.9979,154.99187 243.82209,154.63328 248.12602,153.67685 253.14512,152.48182 258.16422,151.28679 263.90276,149.85215 267.7271,148.05918 271.55145,146.26621 273.46417,144.1144 275.73454,142.32215 278.00492,140.52989 280.63566,139.09494 282.42756,139.69199 284.21946,140.28905 285.17605,142.91969 285.77376,146.98378 286.37147,151.04788 286.61046,156.54465 286.37147,161.68437 286.13247,166.82409 285.41546,171.60408 284.69837,175.0704 283.98128,178.53671 283.26433,180.68757 279.91647,182.48124 276.56861,184.27491 270.59591,185.70836 265.57565,186.90366 260.55538,188.09897 256.49247,189.05494 252.18908,190.13078 247.88569,191.20662 243.34521,192.40148 239.40054,193.11876 235.45587,193.83603 232.11016,194.07501 229.00201,196.34605 225.89387,198.61709 223.02629,202.91846 222.30887,206.98298 221.59145,211.04749 223.02532,214.87113 226.01426,216.78374 229.0032,218.69634 233.54434,218.69634 238.4442,217.85969 243.34407,217.02304 248.60414,215.34938 252.4284,213.19798 256.25267,211.04657 258.64363,208.41652 261.27244,205.0707 263.90125,201.72488 266.77088,197.65957 268.56376,195.38893 270.35665,193.11828 271.07397,192.64007 272.50649,191.68506 273.939,190.73005 276.09384,189.29349 278.483,189.77134 280.87215,190.24918 283.50302,192.64089 287.44761,191.08664 291.3922,189.53239 296.65122,184.03433 299.87776,177.22236 303.1043,170.41039 304.29973,162.28148 305.01679,156.54475 305.73385,150.80801 305.97293,147.46097 306.6899,141.60577 307.40688,135.75056 308.60246,127.38145 309.91716,120.33009 311.23186,113.27872 312.6663,107.54096 313.98094,102.76052 315.29559,97.980078 316.49104,94.15463 317.80574,91.166973 319.12044,88.179316 320.55514,86.02727 320.31612,82.562772 320.0771,79.098273 318.16375,74.314883 315.05669,70.610233 311.94963,66.905583 307.64642,64.275843 304.06061,61.765785 300.47481,59.255726 297.6065,56.865467 294.49946,56.38711 291.39243,55.908752 288.04596,57.342953 285.1769,59.375013 282.30785,61.407074 279.9183,64.035581 277.52751,65.589852 275.13672,67.144123 272.74726,67.622015 266.88843,67.861172 261.02959,68.100328 251.71148,68.100328 245.13771,68.45882 238.56395,68.817313 234.73969,69.534361 233.3048,72.76112 Z"
     id="path4232"
     inkscape:connector-curvature="0"
     inkscape:path-effect="#path-effect4234"
     inkscape:original-d="M 230.91388,70.251699 C 231.87105,75.98769 232.82721,81.724681 233.78238,87.462672 236.89136,88.417972 239.99845,89.374002 243.10499,90.331168 250.75375,90.56916 258.40463,90.80825 266.05295,91.048292 267.72703,89.852236 269.40053,88.656879 271.07282,87.462672 274.89589,89.372705 278.72314,91.286333 282.5468,93.199663 283.74288,100.36915 284.93822,107.54114 286.13242,114.71338 286.61156,117.5812 287.08959,120.44937 287.56667,123.31887 287.56767,124.75252 287.56767,126.18636 287.56667,127.62161 284.93638,129.29506 282.30876,130.96719 279.67831,132.64148 278.24442,132.16218 276.81081,131.68431 275.37556,131.20723 267.00662,130.96709 258.64367,130.72815 250.27623,130.4901 248.60375,130.96724 246.93065,131.44527 245.25636,131.92435 242.62604,134.07625 239.99845,136.22609 237.368,138.37847 234.9776,137.66005 232.58817,136.94322 230.19676,136.22709 229.95866,142.44284 229.71968,148.65624 229.47964,154.87232 232.82777,155.1104 236.17379,155.3494 239.51937,155.58944 243.82193,154.63254 248.12586,153.67611 252.4276,152.72094 258.16404,151.28608 263.90258,149.85145 269.63857,148.4182 271.55151,146.26627 273.46423,144.11446 275.37556,141.96409 278.00473,140.52954 280.63547,139.09459 283.26393,137.66134 284.22066,140.28861 285.17726,142.91925 286.13242,145.54971 286.37251,151.04783 286.6115,156.5446 286.84955,162.04355 286.1333,166.82421 285.4163,171.60421 284.69817,176.38603 283.98188,178.53691 283.26493,180.68777 282.5468,182.84015 276.56844,184.27419 270.59574,185.70764 264.61871,187.14289 260.55521,188.09824 256.4923,189.05422 252.4276,190.01138 247.88551,191.20594 243.34503,192.4008 238.80225,193.597 235.4558,193.83511 232.11009,194.07409 228.76251,194.31413 225.8941,198.61724 223.02652,202.91861 220.15703,207.22236 221.59266,211.04704 223.02652,214.87068 224.45977,218.69634 229.0032,218.69534 233.54434,218.69534 238.08512,218.69634 243.34387,217.02242 248.60394,215.34876 253.86185,213.67647 256.25272,211.04662 258.64367,208.41656 261.03309,205.78811 263.90144,201.72502 266.77108,197.65971 269.63857,193.597 270.3565,193.11806 271.07382,192.63984 271.78994,192.16276 273.93885,190.72982 276.09369,189.29326 278.24406,187.86001 280.8731,190.24814 283.50397,192.63984 286.13242,195.03125 291.39223,189.53241 296.65124,184.03435 301.90915,178.5374 303.10513,170.41051 304.30056,162.2816 305.49477,154.15519 305.73477,150.80808 305.97385,147.46104 306.21189,144.11546 307.40772,135.75068 308.6033,127.38157 309.79751,119.01612 311.23257,113.2789 312.667,107.54114 314.10025,101.80515 315.29621,97.980273 316.49167,94.154828 317.68587,90.331168 319.12067,88.179469 320.55537,86.027424 321.98862,83.877053 320.07831,79.097791 318.16495,74.314401 316.25162,69.534576 311.95035,66.904406 307.64714,64.274667 303.34339,61.646213 300.47571,59.254643 297.6074,56.864387 294.73791,54.474974 291.39222,55.908271 288.04575,57.34247 284.69817,58.777718 282.3079,61.40712 279.91835,64.035626 277.52694,66.66608 275.13657,67.143353 272.74711,67.621245 270.3557,68.100328 261.02959,68.099328 251.71148,68.099328 242.38787,68.100328 238.5638,68.816529 234.73954,69.533575 230.91388,70.251699 Z" />
  <path
     style="fill:none;stroke:#000000;stroke-width:1px;stroke-linecap:butt;stroke-linejoin:miter;stroke-opacity:1"
     d="M 340.63435,62.721381 C 337.52634,65.94792 337.2873,72.402035 337.64582,76.466226 338.00435,80.530417 338.96036,82.203442 342.30809,83.040248 345.65581,83.877053 351.39169,83.877053 357.48678,82.681832 363.58188,81.486611 370.03712,79.095782 375.1761,77.661732 380.31509,76.227682 384.14046,75.74951 387.36675,76.22755 390.59305,76.705589 393.22327,78.140254 394.89629,82.441978 396.56931,86.743702 397.28653,93.915896 397.04767,99.174856 396.80882,104.43382 395.61376,107.77998 392.74481,111.0078 389.87586,114.23563 385.33571,117.34205 380.315,118.53761 375.29428,119.73318 369.79772,119.01623 365.73373,118.29909 361.66974,117.58195 359.04069,116.86494 352.58545,116.98444 346.13022,117.10394 335.85409,118.05986 330.35586,119.25459 324.85763,120.44932 324.14058,121.88342 326.17415,124.87395 328.20771,127.86448 332.98453,132.40246 339.4392,133.83658 345.89386,135.2707 354.02131,133.5974 360.35559,132.1632 366.68987,130.729 371.2323,129.53363 375.05656,128.45804 378.88082,127.38245 381.98918,126.42604 384.61806,126.06766 387.24694,125.70929 389.39914,125.94842 390.71329,129.29317 392.02745,132.63792 392.50573,139.09467 392.7448,144.71244 392.98388,150.33021 392.98388,155.11036 390.23492,159.05503 387.48596,162.9997 381.98916,166.10658 374.81696,168.73646 367.64476,171.36634 358.80214,173.51725 352.82589,174.83207 346.84963,176.14688 343.7425,176.6249 340.15616,177.34215 336.56983,178.0594 332.5076,179.01521 330.83374,180.8082 329.15988,182.60118 329.87679,185.22988 335.73532,186.42538 341.59385,187.62089 352.58692,187.38191 364.6579,187.02336 376.72889,186.66481 389.87738,186.18669 398.96082,185.23043 408.04427,184.27417 413.06454,182.83981 416.17184,181.52489 419.27913,180.20998 420.47462,179.01448 421.66938,177.93926 422.86414,176.86403 424.06034,175.90707 421.19459,173.04128 418.32883,170.17549 411.39027,165.39028 408.04374,162.52111 404.6972,159.65193 404.93623,158.6958 405.77206,156.18835 406.60789,153.68091 408.0439,149.61221 409.23883,144.11533 410.43376,138.61844 411.39021,131.68419 412.10728,126.06708 412.82435,120.44996 413.30251,116.14653 414.25859,111.36633 415.21467,106.58614 416.64929,101.32588 418.44211,97.262536 420.23494,93.199189 422.3868,90.330046 423.58184,88.65681 424.77688,86.983575 425.01601,86.505307 426.80472,83.881882 428.59343,81.258458 431.94841,76.465632 433.74083,72.282877 435.53324,68.100122 435.77234,64.513647 434.69707,61.885041 433.6218,59.256434 431.23068,57.58265 428.83999,54.952861 426.4493,52.323072 424.05909,48.737756 422.26654,46.586609 420.47399,44.435463 419.27871,43.718294 416.29056,44.554844 413.30241,45.391394 408.52276,47.78122 404.93667,50.53033 401.35058,53.27944 398.96077,56.386195 393.70056,58.896887 388.44036,61.40758 380.31586,63.319227 373.50249,63.319327 366.68912,63.319426 361.19197,61.407374 355.45487,60.451107 349.71777,59.494841 343.74237,59.494841 340.63435,62.721381 Z"
     id="path4236"
     inkscape:connector-curvature="0"
     inkscape:path-effect="#path-effect4238"
     inkscape:original-d="M 337.76534,59.494841 C 337.5273,65.947956 337.28826,72.402071 337.04822,78.857186 338.00553,80.529743 338.96155,82.202764 339.91671,83.877053 345.65581,83.876053 351.39169,83.876053 357.12768,83.877053 363.58167,81.486057 370.03691,79.095227 376.49003,76.705814 380.31498,76.226821 384.14035,75.748649 387.96401,75.271566 390.5937,76.704399 393.22392,78.139062 395.85237,79.57431 396.5704,86.743593 397.28762,93.915787 398.00374,101.08803 396.80939,104.43402 395.61433,107.78018 394.41813,111.12776 389.87571,114.23541 385.33556,117.34183 380.79277,120.45037 375.29443,119.73206 369.79787,119.01512 364.29892,118.299 361.67006,117.58076 359.04101,116.86375 356.41056,116.14763 346.13014,117.10304 335.85401,118.05896 325.57423,119.01612 324.85804,120.44952 324.14099,121.88362 323.42286,123.31887 328.20869,127.86345 332.98551,132.40143 337.76534,136.94422 345.8937,135.26994 354.02115,133.59664 362.14755,131.92435 366.68969,130.72832 371.23212,129.53294 375.77291,128.33873 378.88063,127.38182 381.98898,126.4254 385.09552,125.47024 387.24706,125.70819 389.39926,125.94732 391.54963,126.18736 392.02852,132.63784 392.5068,139.09459 392.98388,145.54971 392.98488,150.33021 392.98488,155.11036 392.98388,159.89218 387.48578,162.99937 381.98898,166.10626 376.49003,169.21479 367.64459,171.36563 358.80197,173.51654 349.95645,175.66891 346.8495,176.14605 343.74237,176.62407 340.63384,177.10316 336.56966,178.05867 332.50743,179.01449 328.44273,179.97165 329.16106,182.60086 329.87798,185.22956 330.5941,187.86001 341.59383,187.61991 352.5869,187.38093 363.5818,187.14289 376.72885,186.66385 389.87734,186.18572 403.02361,185.70864 408.04408,184.27351 413.06435,182.83915 418.08321,181.4059 419.27914,180.20998 420.47463,179.01449 421.66883,177.82028 422.86404,176.86391 424.06025,175.90695 425.25445,174.95178 418.32962,170.17435 411.39106,165.38913 404.45786,160.60931 404.69791,159.65211 404.93694,158.69598 405.17498,157.74081 406.60847,153.68111 408.04448,149.61241 409.47773,145.54971 410.43461,138.61856 411.39106,131.68431 412.34622,124.75311 412.82523,120.45006 413.30339,116.14663 413.78047,111.84488 415.21535,106.58632 416.64997,101.32607 418.08321,96.068159 420.2351,93.199309 422.38696,90.330168 424.53733,87.462672 424.77728,86.983776 425.01641,86.505507 425.25445,86.028424 428.59363,81.258599 431.94861,76.465773 435.29419,71.685947 435.53417,68.100184 435.77327,64.513709 436.01131,60.929089 433.6226,59.255296 431.23148,57.581511 428.84007,55.909222 426.45046,52.322301 424.06025,48.736984 421.66883,45.152364 420.4747,44.434286 419.27942,43.717116 418.08321,43.000993 413.30221,45.390994 408.52256,47.780818 403.74074,50.172231 401.35072,53.279548 398.96091,56.386305 396.5695,59.494841 388.44019,61.406856 380.31569,63.318502 372.18729,65.231832 366.68954,63.318227 361.19239,61.406172 355.69344,59.494841 349.71777,59.493841 343.74237,59.493841 337.76534,59.494841 Z" />
  <path
     style="fill:none;stroke:#000000;stroke-width:1px;stroke-linecap:butt;stroke-linejoin:miter;stroke-opacity:1"
     d="M 310.51463,185.70864 C 310.03681,187.85885 309.55873,190.01022 308.84131,194.07555 308.12389,198.14089 307.16824,204.11369 304.89749,208.29732 302.62674,212.48095 299.0418,214.87091 294.02086,218.8159 288.99991,222.7609 282.54787,228.25708 276.6909,233.51637 270.83393,238.77566 265.57589,243.7947 260.07744,248.45649 254.57898,253.11828 248.8431,257.42019 244.06178,261.96231 239.28046,266.50443 235.45655,271.28432 232.22908,276.06565 229.00161,280.84698 226.37276,285.62671 221.71089,289.5716 217.04903,293.51648 210.35754,296.62325 205.21774,299.8504 200.07794,303.07756 196.49297,306.42353 194.58019,308.81406 192.6674,311.2046 192.42843,312.63843 197.45287,310.96354 202.47732,309.28864 212.74796,304.5116 221.23348,299.49189 229.719,294.47218 236.41294,289.21265 241.43236,284.07353 246.45179,278.93441 249.79891,273.91372 252.78679,270.32848 255.77466,266.74324 258.40472,264.59138 261.1528,264.1136 263.90089,263.63581 266.77058,264.83152 268.32405,267.93804 269.87753,271.04456 270.11661,276.0653 270.47521,281.92246 270.8338,287.77962 271.31179,294.47151 271.78991,300.80652 272.26802,307.14153 272.74603,313.11674 272.86559,319.57132 272.98515,326.02591 272.74615,332.95705 271.67042,341.08508 270.59469,349.21311 268.68265,358.53433 266.77022,367.1403 264.8578,375.74627 262.9457,383.63366 261.75035,392.00082 260.55499,400.36798 260.07698,409.2112 260.67457,417.10014 261.27216,424.98908 262.94525,431.92045 263.06489,439.21139 263.18453,446.50233 261.75043,454.15086 260.55538,458.81227 259.36033,463.47369 258.40431,465.14673 260.7964,468.97408 263.1885,472.80144 268.92143,478.77324 272.38769,482.11992 275.85395,485.46659 277.04915,486.18371 278.12468,484.15179 279.20022,482.11987 280.15662,477.33786 280.15656,471.72133 280.15649,466.1048 279.2001,459.64913 278.72208,453.43435 278.24406,447.21958 278.24406,441.24278 278.60268,436.46218 278.96129,431.68158 279.67854,428.09536 283.26359,424.27156 286.84864,420.44776 293.30483,416.38275 297.60723,414.47081 301.90964,412.55888 304.0614,412.79796 309.55768,412.08102 315.05396,411.36409 323.9021,409.69011 331.1925,408.01687 338.48291,406.34362 344.22064,404.67011 349.95645,402.99717"
     id="path4240"
     inkscape:connector-curvature="0"
     inkscape:path-effect="#path-effect4242"
     inkscape:original-d="M 310.51463,185.70864 C 310.03755,187.85901 309.55947,190.01038 309.08039,192.16276 308.1247,198.14102 307.16906,204.11382 306.21189,210.09085 302.62659,212.48072 299.04165,214.87068 295.45503,217.26209 288.99984,222.76081 282.5478,228.25699 276.09269,233.75594 270.83391,238.77564 265.57587,243.79467 260.31596,248.81554 254.57886,253.11812 248.84298,257.42003 243.10499,261.72377 239.28058,266.50453 235.45667,271.28442 231.63101,276.06625 229.00195,280.84717 226.3731,285.6269 223.74265,290.40873 217.04882,293.51604 210.35733,296.6228 203.66318,299.73134 200.07791,303.07752 196.49294,306.42349 192.90632,309.77107 192.66821,311.20473 192.42924,312.63857 192.1892,314.07381 202.47711,309.2882 212.74775,304.51116 223.02552,299.73134 229.71889,294.47204 236.41283,289.21252 243.10499,283.95461 246.45202,278.93457 249.79915,273.91388 253.14472,268.89501 255.77457,266.74313 258.40463,264.59127 261.03309,262.4409 263.90139,263.63461 266.77108,264.83031 269.63857,266.02651 269.87857,271.04451 270.11766,276.06525 270.3557,281.08612 270.83487,287.77954 271.31286,294.47143 271.78994,301.16558 272.26909,307.14144 272.74711,313.11665 273.22419,319.09368 272.98611,326.02594 272.74711,332.95708 272.50707,339.89027 270.59545,349.21327 268.68341,358.53449 266.77008,367.8581 264.85851,375.74644 262.94642,383.63383 261.03309,391.52319 260.55593,400.36803 260.07792,409.21125 259.59884,418.05677 261.27333,424.9888 262.94642,431.92017 264.61871,438.85337 263.18531,446.50248 261.75121,454.15101 260.31596,461.80133 259.36065,463.47387 258.40463,465.14691 257.44747,466.8212 263.18952,472.80046 268.92245,478.77226 274.65844,484.74929 275.85465,485.46542 277.04985,486.18254 278.24406,486.90066 279.20099,482.12002 280.15739,477.33801 281.11255,472.55819 280.15762,466.10463 279.20122,459.64896 278.24406,453.19584 278.24506,447.21958 278.24506,441.24278 278.24406,435.26775 278.96206,431.68173 279.67931,428.09551 280.39543,424.51089 286.84847,420.44749 293.30466,416.38248 299.75778,412.31978 301.90976,412.55778 304.06152,412.79687 306.21189,413.03691 315.05381,411.3633 323.90195,409.68933 332.74547,408.01704 338.48272,406.34297 344.22045,404.66946 349.95645,402.99717" />
  <path
     style="fill:none;stroke:#000000;stroke-width:1px;stroke-linecap:butt;stroke-linejoin:miter;stroke-opacity:1"
     d="M 380.07565,402.99717 C 386.05245,404.19253 392.02848,405.38774 397.0481,406.34385 402.06772,407.29996 406.13195,408.01718 409.98035,407.46719 413.82876,406.91721 417.84537,404.9089 419.27907,402.51894 420.71277,400.12898 419.7563,397.25958 417.00809,394.63077 414.25987,392.00197 409.71714,389.61106 406.60944,387.81817 403.50175,386.02528 401.82859,384.83017 400.15512,383.63483"
     id="path4244"
     inkscape:connector-curvature="0"
     inkscape:path-effect="#path-effect4246"
     inkscape:original-d="M 380.07565,402.99717 C 386.05268,404.19138 392.02871,405.38659 398.00374,406.58279 402.06792,407.29882 406.13215,408.01604 410.19485,408.73416 413.78076,406.82121 417.84517,404.9085 421.66883,402.99717 420.71397,400.12858 419.7575,397.25918 418.80034,394.39169 414.2605,392.00077 409.71777,389.60986 405.17498,387.22045 403.50256,386.02414 401.82941,384.82903 400.15512,383.63483" />
  <path
     style="fill:none;stroke:#000000;stroke-width:1px;stroke-linecap:butt;stroke-linejoin:miter;stroke-opacity:1"
     d="M 349.95645,402.99717 C 359.99718,402.99717 370.03692,402.99717 380.07565,402.99717"
     id="path4248"
     inkscape:connector-curvature="0"
     inkscape:path-effect="#path-effect4250"
     inkscape:original-d="M 349.95645,402.99717 C 359.99718,402.99617 370.03692,402.99617 380.07565,402.99717" />
  <path
     style="fill:none;stroke:#000000;stroke-width:1px;stroke-linecap:butt;stroke-linejoin:miter;stroke-opacity:1"
     d="M 400.15512,383.63483 C 394.41878,381.96173 388.68179,380.28844 382.22754,380.88587 375.7733,381.4833 368.60288,384.35147 362.38728,385.90548 356.17167,387.45948 350.91365,387.69848 349.47938,385.0679 348.04511,382.43732 350.43505,376.94046 351.98874,373.35503 353.54242,369.76959 354.25971,368.09593 355.45432,365.34834 356.64892,362.60074 358.32342,358.77332 360.59419,356.02487 362.86495,353.27642 365.73435,351.60261 367.64648,350.64669 369.55862,349.69077 370.51518,349.45163 374.57447,348.25771 378.63377,347.0638 385.81383,344.90978 388.56227,342.51964 391.3107,340.12949 389.63713,337.4996 386.64978,335.70705 383.66243,333.9145 379.35926,332.95824 375.89316,333.197 372.42706,333.43575 369.79806,334.86976 368.005,335.94551 366.21194,337.02126 365.25621,337.73806 363.93998,337.37911 362.62376,337.02017 360.95243,335.5876 360.47442,332.7184 359.99641,329.84919 360.71349,325.54667 361.07196,322.43945 361.43043,319.33223 361.43043,317.41939 362.74503,315.50765 364.05964,313.59591 366.69047,311.68258 369.7972,310.60732 372.90393,309.53206 376.49109,309.29292 379.95677,308.57579 383.42245,307.85867 386.77001,306.66311 388.80133,304.98982 390.83265,303.31653 391.55003,301.16438 390.95279,299.25315 390.35556,297.34192 388.44216,295.6677 386.29103,294.47254 384.1399,293.27739 381.74958,292.56029 378.88091,292.67967 376.01224,292.79905 372.66656,293.75496 368.96067,294.5918 365.25479,295.42865 361.19253,296.14551 359.39933,295.30806 357.60613,294.47061 358.08408,292.08086 358.20351,288.97436 358.32295,285.86786 358.08379,282.04135 357.00828,278.57595 355.93277,275.11056 354.01998,272.00227 353.0639,270.32863 352.10782,268.65499 352.10782,268.41593 355.32192,267.93979 358.53603,267.46364 365.01715,266.74351 371.35116,266.38501 377.68518,266.02651 383.90131,266.02651 389.39898,265.18979 394.89664,264.35307 399.67823,262.67952 403.50251,260.88678 407.32679,259.09403 410.196,257.18122 411.86873,254.91067 413.54145,252.64012 414.01972,250.00961 411.98882,246.90347 409.95792,243.79734 405.41415,240.21016 401.35059,237.70026 397.28704,235.19036 393.70152,233.75615 389.63783,234.11448 385.57415,234.4728 381.03301,236.62387 377.32745,238.77539 373.62189,240.92691 370.75416,243.07771 369.08071,244.15381 367.40727,245.22992 366.92938,245.22992 366.57004,242.71426 366.21071,240.19861 365.97216,235.18924 365.01622,231.96283 364.06028,228.73642 362.38667,227.3019 360.23533,225.74814 358.08398,224.19437 355.45466,222.52117 352.46654,220.84781 349.47843,219.17445 346.13219,217.50133 341.23177,216.7841 336.33136,216.06687 329.87802,216.30589 326.41143,218.21797 322.94485,220.13005 322.46685,223.7151 323.42321,227.89942 324.37957,232.08374 326.76924,236.86308 329.51855,240.32954 332.26786,243.796 335.37514,245.94719 337.04828,248.81503 338.72143,251.68287 338.96048,255.26873 338.48287,257.42031 338.00525,259.57189 336.81036,260.28882 334.8966,260.52814 332.98283,260.76745 330.35596,260.52864 324.13926,260.40908 317.92255,260.28952 308.12522,260.28952 302.98581,260.28952 297.8464,260.28952 297.36836,260.28952 296.05138,261.36696 294.73441,262.4444 292.58754,264.59127 289.35897,263.39549 286.1304,262.19971 281.82966,257.66004 280.99347,253.83487 280.15728,250.00969 282.78675,246.90214 286.13273,243.79525 289.4787,240.68836 293.54381,237.57975 296.65097,234.831 299.75813,232.08225 301.91009,229.69119 304.41944,227.18188 306.92879,224.67258 309.79855,222.04196 312.54698,219.17397 315.29541,216.30598 317.92582,213.19731 319.47913,209.85134 321.03244,206.50537 321.51069,202.9185 321.74965,200.88678 321.98862,198.85506 321.98862,198.37683 321.75,196.94519 321.51138,195.51356 321.0323,193.11815 319.35975,191.20654 317.6872,189.29492 313.86161,187.38213 310.51463,185.70864"
     id="path4252"
     inkscape:connector-curvature="0"
     inkscape:path-effect="#path-effect4254"
     inkscape:original-d="M 400.15512,383.63483 C 394.41913,381.96054 388.68214,380.28725 382.94414,378.61496 375.77309,381.48278 368.60267,384.35095 361.43043,387.22045 356.17163,387.45853 350.91361,387.69753 345.6537,387.93757 348.04559,382.43753 350.43553,376.94067 352.82494,371.44372 353.54291,369.7698 354.26019,368.09614 354.97631,366.42386 356.6494,362.60095 358.32389,358.77353 359.99618,354.94987 362.86477,353.27611 365.73417,351.6023 368.60167,349.93001 369.55844,349.69006 370.515,349.45092 371.47016,349.21288 378.63358,347.06316 385.81364,344.90914 392.98388,342.75877 391.31187,340.12875 389.6383,337.49886 387.96401,334.87041 383.66269,333.91333 379.35952,332.95708 375.05578,332.00191 372.42687,333.4354 369.79787,334.86941 367.16742,336.30465 366.21182,337.0211 365.25609,337.7379 364.29892,338.45602 362.62467,337.0191 360.95335,335.58653 359.27906,334.15328 359.99722,329.84933 360.7143,325.5468 361.43043,321.24505 361.43143,319.33223 361.43143,317.41939 361.43043,315.50806 364.05951,313.59573 366.69034,311.6824 369.31879,309.77107 372.90387,309.53113 376.49103,309.29199 380.07565,309.05395 383.42224,307.85809 386.7698,306.66253 390.11538,305.46833 390.83325,303.31673 391.55063,301.16458 392.26675,299.01421 390.35649,297.34086 388.44309,295.66663 386.52976,293.99435 384.14026,293.27619 381.74994,292.5591 379.35852,291.84297 376.01205,292.7984 372.66637,293.7543 369.31879,294.71147 365.25465,295.42785 361.19239,296.14472 357.12768,296.86284 357.6069,294.47076 358.08485,292.08101 358.56193,289.6916 358.32401,285.86779 358.08485,282.04128 357.84481,278.21762 355.93394,275.10984 354.02115,272.00155 352.10782,268.89501 352.10882,268.65499 352.10882,268.41593 352.10782,268.17789 358.53593,267.46276 365.01705,266.74264 371.47016,266.02651 377.68518,266.02551 383.90131,266.02551 390.11538,266.02651 394.89644,264.35249 399.67803,262.67894 404.45786,261.00665 407.32663,259.0938 410.19585,257.18099 413.06335,255.26966 413.54224,252.64026 414.02051,250.00975 414.49759,247.38129 409.95879,243.79623 405.41502,240.20906 400.87224,236.62444 397.28752,235.18915 393.702,233.75494 390.11538,232.32169 385.57394,234.47237 381.03281,236.62344 376.49003,238.77581 373.62177,240.92675 370.75404,243.07755 367.88454,245.22992 367.40727,245.22892 366.92938,245.22892 366.45029,245.22992 366.21175,240.19856 365.97321,235.18919 365.73317,230.17032 364.0612,228.73535 362.38759,227.30083 360.7133,225.86758 358.08472,224.19321 355.4554,222.52 352.82494,220.84771 349.47903,219.17326 346.13279,217.50013 342.78521,215.82784 336.33132,216.06591 329.87798,216.30493 323.42286,216.54497 322.9457,220.13016 322.4677,223.71521 321.98862,227.30183 324.38077,232.08314 326.77044,236.86248 329.15985,241.6443 332.26865,243.79485 335.37593,245.94605 338.48246,248.09842 338.72249,251.6828 338.96155,255.26866 339.19959,258.85528 338.00507,259.57159 336.81018,260.28852 335.61397,261.00665 332.98293,260.76637 330.35606,260.52756 327.72561,260.28952 317.92255,260.28852 308.12522,260.28852 298.32353,260.28952 297.8464,260.28852 297.36836,260.28852 296.88928,260.28952 294.73441,262.4444 292.58754,264.59127 290.43517,266.74364 286.13142,262.19874 281.83068,257.65907 277.52694,253.11828 280.15737,250.00977 282.78684,246.90221 285.4153,243.79567 289.47859,240.68821 293.5437,237.5796 297.6064,234.47306 299.75819,232.08231 301.91015,229.69124 304.06052,227.30183 306.92875,224.67253 309.79851,222.04192 312.666,219.41346 315.2955,216.30605 317.92591,213.19739 320.55437,210.09085 321.03328,206.50548 321.51153,202.91861 321.98862,199.334 321.98962,198.85506 321.98962,198.37683 321.98862,197.89975 321.51253,195.51333 321.03345,193.11792 320.55437,190.72851 317.6878,189.29372 313.86221,187.38093 310.51463,185.70864" />
  <path
     style="fill:none;stroke:#000000;stroke-width:1px;stroke-linecap:butt;stroke-linejoin:miter;stroke-opacity:1"
     d="M 286.61122,274.51158 C 288.04594,273.1971 290.6754,271.76286 297.00757,271.52397 303.33975,271.28508 313.38403,272.24167 320.3162,271.76333 327.24838,271.28499 331.07338,269.37249 333.34351,271.76171 335.61365,274.15094 336.331,280.84619 336.68961,285.98575 337.04822,291.12532 337.04822,294.71047 336.68968,298.17695 336.33114,301.64344 335.61422,304.98908 332.26694,306.42386 328.91965,307.85864 322.94569,307.38073 318.40381,307.9781 313.86193,308.57547 310.75486,310.24851 307.28804,311.92218 303.82122,313.59584 299.99803,315.26849 300.23726,317.54018 300.47649,319.81186 304.77787,322.67945 311.3517,323.63551 317.92554,324.59157 326.77054,323.63535 331.55137,323.03762 336.3322,322.43989 337.04942,322.20082 337.64598,324.58678 338.24254,326.97274 338.72142,332.00101 337.76559,335.70632 336.80975,339.41162 334.41976,341.8016 330.47454,344.19276 326.52931,346.58391 321.03366,348.97332 316.25228,350.16878 311.47091,351.36425 307.4081,351.36425 305.13715,351.36425 302.86619,351.36425 302.38823,351.36425 301.19106,352.20218 299.99388,353.04011 298.08555,354.7099 298.68353,356.86251 299.28151,359.01511 302.38732,361.6431 308.72215,363.67496 315.05697,365.70681 324.6189,367.1411 330.47543,366.90161 336.33197,366.66212 338.48352,364.74964 339.6781,365.22702 340.87269,365.70441 341.11184,368.57432 340.99234,372.28009 340.87284,375.98586 340.39491,380.5262 338.72182,383.39513 337.04874,386.26407 334.18093,387.45899 330.71394,388.41546 327.24695,389.37192 323.18496,390.08875 317.68606,391.40368 312.18717,392.71861 305.25692,394.6304 299.99768,396.78176 294.73845,398.93312 291.15345,401.32312 286.84959,401.56234 282.54573,401.80156 277.52748,399.88985 275.01728,396.30334 272.50707,392.71683 272.50707,387.45849 273.22426,382.67798 273.94144,377.89746 275.37596,373.59389 276.92946,368.45535 278.48296,363.3168 280.15672,357.3391 281.23223,350.88573 282.30774,344.43237 282.78592,337.4988 283.02492,331.04517 283.26393,324.59155 283.26393,318.6146 283.26393,312.99757 283.26393,307.38054 283.26393,302.12075 283.38345,297.10131 283.50298,292.08187 283.74206,287.30014 283.98114,284.19272 284.22023,281.08529 284.45932,279.65073 284.69829,278.33647 284.93726,277.0222 285.17649,275.82606 286.61122,274.51158 Z"
     id="path4256"
     inkscape:connector-curvature="0"
     inkscape:path-effect="#path-effect4258"
     inkscape:original-d="M 285.4153,274.632 C 288.04575,273.19675 290.67521,271.76251 293.30366,270.32926 303.33985,271.28399 313.38413,272.24059 323.42286,273.19775 327.24818,271.28459 331.07318,269.37209 334.89684,267.46076 335.61474,274.15082 336.33209,280.84607 337.04822,287.54023 337.04922,291.12532 337.04922,294.71047 337.04822,298.29709 336.33189,301.6436 335.61497,304.98924 334.89684,308.33682 328.91974,307.85757 322.94578,307.37966 316.96875,306.90257 313.86174,308.57512 310.75467,310.24815 307.64614,311.92244 303.82101,313.59537 299.99782,315.26802 296.17216,316.94231 300.47726,319.81071 304.77864,322.6783 309.08039,325.5478 317.92544,324.59068 326.77044,323.63446 335.61397,322.6793 336.332,322.43929 337.04922,322.20022 337.76534,321.96218 338.24362,326.97264 338.72251,332.00091 339.19959,337.02178 336.80975,339.41162 334.41976,341.8016 332.02835,344.19302 326.5291,346.58343 321.03345,348.97284 315.5345,351.36425 311.47091,351.36325 307.4081,351.36325 303.34339,351.36425 302.86619,351.36325 302.38823,351.36325 301.90915,351.36425 299.99382,353.04004 298.08549,354.70983 296.17216,356.38412 299.28242,359.01404 302.38823,361.64203 305.49477,364.27248 315.05714,365.70569 324.61907,367.13998 334.17972,368.57523 336.33191,366.66206 338.48346,364.74957 340.63384,362.83824 340.87376,365.70432 341.11292,368.57423 341.35096,371.44372 340.87373,375.98595 340.39579,380.52629 339.91671,385.06908 337.04853,386.26357 334.18072,387.45849 331.31123,388.6547 327.24681,389.37112 323.18482,390.08794 319.12012,390.80607 312.18698,392.71793 305.25673,394.62973 298.32353,396.54306 294.73829,398.93288 291.15329,401.32288 287.56667,403.7143 282.54619,401.80035 277.52794,399.88864 272.50707,397.97731 272.50807,392.71683 272.50807,387.45849 272.50707,382.20058 273.94204,377.89766 275.37656,373.59409 276.80981,369.29235 278.48363,363.31699 280.15739,357.33929 281.82968,351.36425 282.30867,344.43243 282.78684,337.49886 283.26393,330.56766 283.26493,324.59155 283.26493,318.6146 283.26393,312.63957 283.26493,307.38054 283.26493,302.12075 283.26393,296.86284 283.50392,292.08192 283.74301,287.30019 283.98105,282.52036 284.22104,281.08543 284.46013,279.65087 284.69817,278.21762 284.93803,277.02236 285.17726,275.82621 285.4153,274.632 Z" />
  <path
     style="stroke-width:1.09890115"
     d=""
     id="path4260"
     inkscape:connector-curvature="0" />
  <path
     style="stroke-width:1.09890115"
     d="M 88.710199,221.32967 C 87.777198,220.27198 86.674578,217.81003 86.259933,215.85868 L 85.506034,212.31077 97.401368,206.50427 C 107.88168,201.38849 109.33848,200.33565 109.64789,197.65359 110.06562,194.03262 102.14784,151.61261 98.772593,139.38848 98.08629,136.90289 94.495834,131.61775 89.828229,126.2224 81.37651,116.45293 76.88241,108.0947 76.033992,100.56756 75.56624,96.417671 75.769485,95.783433 77.560382,95.804354 87.730956,95.923163 109.60118,118.03197 116.94839,135.62204 117.89661,137.89219 119.38028,147.13835 120.24544,156.16907 122.88125,183.68224 124.30514,186.12814 138.09143,186.82432 150.13312,187.4324 154.56869,185.82205 157.19294,179.8895 160.35055,172.75119 170.22926,130.51888 171.01939,120.78022 171.83185,110.76645 172.7013,111.17549 156.59285,113.99309 143.5553,116.27354 131.14024,116.51671 126.55257,114.58148 120.9768,112.22943 118.15824,105.17771 120.81197,100.21917 122.54185,96.986847 128.03475,95.780632 141.05409,95.774091 155.28466,95.766942 161.18602,94.470201 162.58325,91.043363 163.12281,89.720063 163.87973,85.763312 164.26532,82.250585 164.71506,78.15326 165.54469,75.641883 166.57969,75.244716 168.97915,74.32396 181.22938,80.941168 187.85469,86.736832 197.31866,95.015679 202.43842,108.79804 198.69075,115.90741 197.99482,117.22756 194.5891,122.01648 191.12245,126.54945 182.96088,137.22148 180.54337,142.18392 177.32476,154.87204 173.68793,169.20887 173.8155,173.83851 177.97802,178.57936 181.99142,183.15037 182.01995,183.73693 178.43605,187.99616 176.25863,190.58387 173.37876,192.03334 166.07341,194.21843 129.90405,205.03696 129.51807,205.24489 127.31264,215.0998 126.5673,218.4303 125.56783,221.39608 125.09158,221.69042 124.61533,221.98476 121.56843,220.72592 118.32069,218.89301 115.07294,217.0601 111.29977,215.56044 109.93585,215.56044 108.57194,215.56044 104.36111,217.29121 100.57845,219.40659 92.774834,223.77063 91.102431,224.0416 88.710199,221.32967 Z"
     id="path4262"
     inkscape:connector-curvature="0" />
  <path
     style="stroke-width:1.09890115"
     d="M 55.868348,400.79622 C 50.98179,397.47571 48.928929,392.78836 49.733655,386.78868 50.526957,380.87418 52.581074,378.25654 64.236104,368.30769 69.546456,363.77473 74.27283,359.02773 74.739155,357.75882 75.205481,356.4899 75.745866,342.891 75.94001,327.53904 76.324224,297.15729 76.377822,297.48688 69.603224,288.57275 66.637074,284.66984 57.614006,265.93306 56.473472,261.30826 55.712354,258.22198 55.891659,258.29052 64.913851,264.53496 85.495421,278.77986 92.44259,285.9123 94.042471,294.4404 95.233719,300.79029 93.55239,315.77161 90.485156,326.13753 85.689756,342.34389 85.278212,345.04977 86.673881,351.19648 87.369823,354.26149 88.875252,357.9939 90.019279,359.49072 92.002085,362.08498 92.321515,362.14827 96.851863,360.84449 99.465756,360.09224 105.80769,358.45615 110.94505,357.20874 148.04894,348.19945 158.27615,342.98933 161.50676,331.45075 163.08881,325.8002 162.35925,320.84546 158.64621,312.02367 157.19079,308.56575 156,304.75004 156,303.5443 156,300.35173 159.59929,298.92408 166.70635,299.29766 173.61643,299.66089 173.78757,299.83689 177.44076,310.3364 178.43884,313.20493 181.65484,319.22742 184.58744,323.71971 191.33858,334.06143 192.49266,338.09427 191.00458,346.144 189.45278,354.53848 187.29723,358.30912 183.03122,360.09157 181.05559,360.91704 171.32196,362.33803 161.40091,363.24933 144.66205,364.78688 132.71937,366.74371 124.68132,369.26588 114.71653,372.39263 81.98754,384.79142 79.642196,386.32814 78.131849,387.31776 75.672415,390.5423 74.176787,393.49378 69.166753,403.3806 63.183563,405.76703 55.868348,400.79622 Z"
     id="path4264"
     inkscape:connector-curvature="0" />
  <path
     style="stroke-width:1.09890115"
     d="M 122.95248,286.34258 C 120.96037,283.94223 121.31082,277.97277 123.65379,274.39695 125.33474,271.83149 126.10303,271.52344 129.31675,272.12634 132.62855,272.74763 133.71939,272.2413 139.29768,267.49351 142.7422,264.56182 148.83166,259.60013 152.82981,256.46753 156.82796,253.33494 161.49305,248.90702 163.19667,246.62771 168.52926,239.49314 179.25399,227.64835 180.38133,227.64835 180.97427,227.64835 179.99814,229.50275 178.21215,231.76923 176.42616,234.03571 172.44541,241.24326 169.36605,247.786 160.23796,267.18047 149.41417,280.60723 138.96703,285.49552 132.53615,288.50458 125.07434,288.89926 122.95248,286.34258 Z"
     id="path4266"
     inkscape:connector-curvature="0" />
  <path
     style="stroke-width:1.09890115"
     d="M 227.74159,216.13602 C 223.90361,214.4673 222.33075,210.81557 223.47917,206.23993 224.55623,201.94857 230.41572,196.01407 234.34276,195.23727 246.01287,192.92886 275.83333,185.31284 279.06315,183.81587 283.94051,181.5553 285.22568,178.77022 286.77499,167.10355 288.20033,156.37043 286.89209,142.68487 284.18165,139.97442 281.97708,137.76986 278.39488,138.83736 272.43519,143.47486 266.91265,147.7722 251.98055,152.63353 241.13738,153.66425 233.15332,154.42319 231.64103,153.18279 231.64103,145.87524 231.64103,140.19764 232.32678,138.63736 234.82215,138.63736 235.79531,138.63736 239.28881,137.11511 242.5855,135.25457 L 248.57947,131.87178 265.45871,132.22545 282.33796,132.57912 285.28582,129.63127 C 287.56988,127.34721 288.19583,125.71761 288.06561,122.39438 287.78391,115.20503 284.74592,101.23018 282.42045,96.426402 278.82068,88.990269 276.48833,88.230316 259.2967,88.891988 238.50842,89.692087 234.02198,87.512386 234.02198,76.612467 234.02198,70.705732 235.60199,70.182838 256.19676,69.273866 274.36061,68.472185 275.03571,68.3571 279.18062,65.35583 281.52931,63.655179 285.01246,61.151099 286.92096,59.791209 291.5538,56.490098 294.10393,56.670035 300.56508,60.75394 310.66326,67.136712 314.5102,70.826249 317.20546,76.713492 L 319.84576,82.480668 315.9745,93.810504 C 311.07783,108.1413 308.18231,122.21222 305.40017,145.19692 302.77347,166.89741 300.24903,176.05885 295.00297,182.92941 289.79977,189.74384 288.04531,190.53922 280.18009,189.64937 273.79235,188.92668 273.55614,188.99589 270.03978,192.62041 268.05966,194.66143 264.10218,199.40747 261.24537,203.16716 255.32161,210.96313 249.13661,214.68638 238.99575,216.56103 231.24073,217.99463 232.09,218.02669 227.74159,216.13602 Z"
     id="path4268"
     inkscape:connector-curvature="0" />
  <path
     style="stroke-width:1.09890115"
     d="M 332.77009,183.77767 330.17582,181.66523 333.38053,180.43869 C 335.14312,179.7641 342.51958,177.95919 349.77268,176.42779 365.95867,173.01032 379.88573,168.42004 385.65784,164.60024 392.59779,160.0076 393.70375,156.7523 393.14579,142.56008 392.88275,135.86962 392.06478,129.28297 391.32808,127.92308 389.48901,124.52835 385.40395,124.69939 369.5358,128.83553 352.71099,133.22103 341.35157,134.13176 336.16499,131.511 331.55043,129.17929 326.32967,124.43623 326.32967,122.57561 326.32967,121.8031 329.07196,120.62516 332.64835,119.86143 338.35166,118.6435 345.22243,118.5346 374.31488,119.20102 382.68063,119.39265 383.60496,119.18307 387.94759,116.10989 396.19558,110.27297 397.20879,108.07008 397.20879,95.974363 397.20879,83.789431 395.6578,78.872852 391.06462,76.497629 386.59953,74.188641 382.9469,74.49397 370.15289,78.245678 363.87979,80.085198 355.22845,81.882324 350.92768,82.239293 343.92272,82.820715 342.86379,82.644009 340.76285,80.543066 338.0504,77.830621 337.58568,70.56589 339.83957,66.10989 342.47384,60.901845 346.27958,60.07244 358.1238,62.125107 379.52705,65.834403 391.194,63.577315 403.34326,53.376951 407.99194,49.473981 415.62483,45.305853 418.21677,45.254903 418.89204,45.24163 422.72445,49.029141 426.73325,53.671595 436.73868,65.258538 436.61285,66.99748 424.42744,85.538368 420.781,91.086669 416.98039,98.009746 415.98164,100.92298 414.98289,103.83622 412.72766,115.36813 410.97001,126.54945 409.21236,137.73077 407.00419,149.04294 406.06297,151.68761 405.12174,154.33229 404.35165,157.40868 404.35165,158.52407 404.35165,159.72033 407.95708,163.53488 413.14286,167.82518 417.97802,171.82541 421.93407,175.49158 421.93407,175.97223 421.93407,176.45288 420.76697,177.61085 419.34053,178.54548 411.79608,183.48879 391.72105,185.8233 356.39647,185.86518 337.25834,185.88787 335.13074,185.69988 332.77009,183.77767 Z"
     id="path4270"
     inkscape:connector-curvature="0" />
  <path
     style="stroke-width:1.09890115"
     d="M 269.18159,477.43343 C 259.68608,467.04382 259.86828,467.57552 262.04474,456.60726 263.45637,449.49333 263.76594,444.28068 263.26893,435.99334 260.96975,397.65604 260.87719,398.84038 269.15995,360.61538 273.59844,340.13171 274.43451,320.3363 272.12076,290.5127 270.37796,268.04838 269.39455,264.55771 264.45969,263.31914 260.0431,262.21065 256.39811,264.66547 248.59061,274.00659 239.44532,284.9483 233.8809,290.09502 224.85171,295.96354 217.47052,300.76093 198.79732,310.06593 196.55114,310.06593 193.93561,310.06593 201.56794,303.29864 209.2967,298.76492 220.2701,292.3279 224.54527,288.78667 229.20401,282.27517 239.36162,268.07792 242.8329,264.24508 254.26352,254.60553 260.96034,248.95803 270.64286,240.54006 275.78022,235.89892 280.91758,231.25778 289.39413,224.02444 294.61698,219.82482 305.19349,211.32042 307.41971,207.59957 309.84056,194.38057 L 311.20374,186.93697 314.64582,189.08032 C 319.55837,192.13932 321.03519,195.38287 320.37434,201.66204 319.39201,210.99594 314.39921,217.03652 286.96221,242.08595 280.96697,247.55948 280.17582,248.75956 280.17582,252.38007 280.17582,255.67549 281.0116,257.31412 284.44215,260.74467 289.0059,265.30842 291.67043,265.97319 295.07568,263.39759 296.75593,262.12671 301.2485,261.77676 316.23708,261.74923 327.18026,261.72914 336.16852,261.23094 337.39092,260.57672 338.87623,259.78181 339.51648,258.27053 339.51648,255.55942 339.51648,250.76454 338.20804,248.1953 332.684,242.1432 327.59559,236.56839 324.18976,229.59757 324.156,224.68869 324.12114,219.62006 327.36321,217.75577 336.18957,217.76898 344.05775,217.78075 350.67911,220.27987 358.91995,226.34816 363.50478,229.72429 363.86145,230.50917 365.37843,240.56044 366.17357,245.82898 367.72148,246.41227 372.31388,243.1739 378.20968,239.01642 386.8011,235.34066 390.62263,235.34066 395.5972,235.34066 401.90648,238.54363 407.5992,243.95898 412.94825,249.04741 413.22479,252.03713 408.73438,256.2318 403.40068,261.21423 393.68409,263.85998 376.32967,265.05536 358.37809,266.29187 352.9402,267.03535 352.11804,268.36562 351.78982,268.8967 352.60716,271.44982 353.93436,274.03924 355.50553,277.10466 356.5286,281.52151 356.86669,286.69884 357.17832,291.47097 357.98052,295.14388 358.87291,295.88451 359.98279,296.80563 362.95446,296.6299 370.59105,295.19158 380.3193,293.35931 381.02044,293.35863 384.85424,295.17789 390.28798,297.75637 391.2111,300.9526 387.45515,304.18333 385.86434,305.55169 382.71032,306.9716 380.44622,307.33868 372.01947,308.70491 364.40774,311.71621 362.44157,314.46154 361.20067,316.1942 360.21024,320.25258 359.75975,325.45055 359.12988,332.71834 359.30797,334.01623 361.26681,336.43341 L 363.48815,339.17449 368.56468,336.70813 C 374.41602,333.86533 378.72143,333.60458 383.92312,335.77799 392.12986,339.20698 389.58592,342.40089 374.9294,347.06962 362.55621,351.011 359.08884,354.42166 352.93952,368.69979 347.48547,381.36355 347.07897,385.37738 351.06649,387.19422 354.12733,388.58884 358.68646,387.90941 374.6622,383.67784 383.01366,381.46575 384.71242,381.34307 390.98578,382.49898 395.55808,383.34146 400.64236,385.37252 405.63766,388.35207 418.77737,396.18955 421.56297,400.40603 416.00634,404.04687 411.57862,406.94803 406.32011,407.09895 393.71175,404.6867 384.77992,402.97787 377.34215,402.3744 365.2394,402.37658 350.80219,402.3792 347.35673,402.75813 336.21978,405.56825 329.26923,407.32204 318.14286,409.60358 311.49451,410.63835 304.84615,411.67312 297.42857,413.51078 295.01099,414.72205 288.34546,418.06164 281.18213,424.30487 279.55918,428.18912 277.67359,432.70199 277.24573,445.52442 278.38552,463.36264 279.27724,477.31842 278.50351,483.69231 275.91768,483.69231 275.35898,483.69231 272.32774,480.87581 269.18159,477.43343 Z M 297.8682,398.95554 C 302.28603,397.07558 312.56146,393.85984 320.70252,391.80944 328.84357,389.75903 336.41142,387.26063 337.51995,386.25742 340.37474,383.67387 341.93013,377.54629 341.51833,370.50549 341.18307,364.77316 341.02319,364.47986 338.41758,364.81674 321.84526,366.95938 299.95604,362.09089 299.95604,356.2623 299.95604,353.37585 300.74819,353.04478 310.59322,351.81674 320.28814,350.60742 333.73936,344.75565 336.49637,340.54792 338.87833,336.91259 339.80808,331.52752 338.94042,326.39192 L 338.17924,321.88654 326.36096,322.65252 C 318.47654,323.16353 312.93801,322.99109 309.72189,322.13448 304.40208,320.71757 300.73812,318.061 301.77959,316.37587 303.4103,313.73732 316.23559,309.23945 324.13187,308.53686 333.98374,307.66025 336.18173,305.96596 337.36625,298.33525 338.32078,292.1862 336.9289,276.08161 335.15673,272.77027 333.68588,270.02198 335.39874,270.19145 312.04396,270.48345 291.38815,270.74169 286.90011,271.66883 284.46008,276.18169 283.48935,277.97708 282.82797,288.64389 282.25694,311.71429 281.39976,346.3453 281.01668,349.74344 275.87717,368.30769 270.27667,388.53701 270.68623,395.03573 277.86581,399.86304 282.96463,403.29134 288.24187,403.0519 297.8682,398.95554 Z"
     id="path4272"
     inkscape:connector-curvature="0" />
  <path
     style="stroke-width:1.09890115"
     d=""
     id="path4274"
     inkscape:connector-curvature="0" />
  <path
     style="stroke-width:1.09890115"
     d=""
     id="path4276"
     inkscape:connector-curvature="0" />
  <path
     style="stroke-width:1.09890115"
     d=""
     id="path4278"
     inkscape:connector-curvature="0" />
  <path
     style="stroke-width:1.09890115"
     d=""
     id="path4280"
     inkscape:connector-curvature="0" />
  <path
     style="stroke-width:1.09890115"
     d=""
     id="path4282"
     inkscape:connector-curvature="0" />
</svg>
