<?xml version="1.0" encoding="UTF-8" standalone="no"?>
<!-- Created with Inkscape (http://www.inkscape.org/) -->

<svg
   xmlns:dc="http://purl.org/dc/elements/1.1/"
   xmlns:cc="http://creativecommons.org/ns#"
   xmlns:rdf="http://www.w3.org/1999/02/22-rdf-syntax-ns#"
   xmlns:svg="http://www.w3.org/2000/svg"
   xmlns="http://www.w3.org/2000/svg"
   xmlns:sodipodi="http://sodipodi.sourceforge.net/DTD/sodipodi-0.dtd"
   xmlns:inkscape="http://www.inkscape.org/namespaces/inkscape"
   width="512"
   height="512"
   viewBox="0 0 512 512"
   version="1.1"
   id="svg8"
   inkscape:version="0.92.4 (5da689c313, 2019-01-14)"
   sodipodi:docname="U+8A85.svg">
  <defs
     id="defs2">
    <inkscape:path-effect
       effect="bspline"
       id="path-effect3782"
       is_visible="true"
       weight="33.333333"
       steps="2"
       helper_size="0"
       apply_no_weight="true"
       apply_with_weight="true"
       only_selected="false" />
    <inkscape:path-effect
       effect="bspline"
       id="path-effect3778"
       is_visible="true"
       weight="33.333333"
       steps="2"
       helper_size="0"
       apply_no_weight="true"
       apply_with_weight="true"
       only_selected="false" />
    <inkscape:path-effect
       effect="bspline"
       id="path-effect3774"
       is_visible="true"
       weight="33.333333"
       steps="2"
       helper_size="0"
       apply_no_weight="true"
       apply_with_weight="true"
       only_selected="false" />
    <inkscape:path-effect
       effect="bspline"
       id="path-effect3758"
       is_visible="true"
       weight="33.333333"
       steps="2"
       helper_size="0"
       apply_no_weight="true"
       apply_with_weight="true"
       only_selected="false" />
    <inkscape:path-effect
       effect="bspline"
       id="path-effect3754"
       is_visible="true"
       weight="33.333333"
       steps="2"
       helper_size="0"
       apply_no_weight="true"
       apply_with_weight="true"
       only_selected="false" />
    <inkscape:path-effect
       effect="bspline"
       id="path-effect3750"
       is_visible="true"
       weight="33.333333"
       steps="2"
       helper_size="0"
       apply_no_weight="true"
       apply_with_weight="true"
       only_selected="false" />
    <inkscape:path-effect
       effect="bspline"
       id="path-effect3746"
       is_visible="true"
       weight="33.333333"
       steps="2"
       helper_size="0"
       apply_no_weight="true"
       apply_with_weight="true"
       only_selected="false" />
    <inkscape:path-effect
       effect="bspline"
       id="path-effect3742"
       is_visible="true"
       weight="33.333333"
       steps="2"
       helper_size="0"
       apply_no_weight="true"
       apply_with_weight="true"
       only_selected="false" />
    <inkscape:path-effect
       effect="bspline"
       id="path-effect3738"
       is_visible="true"
       weight="33.333333"
       steps="2"
       helper_size="0"
       apply_no_weight="true"
       apply_with_weight="true"
       only_selected="false" />
    <inkscape:path-effect
       effect="bspline"
       id="path-effect3734"
       is_visible="true"
       weight="33.333333"
       steps="2"
       helper_size="0"
       apply_no_weight="true"
       apply_with_weight="true"
       only_selected="false" />
    <inkscape:path-effect
       effect="bspline"
       id="path-effect3730"
       is_visible="true"
       weight="33.333333"
       steps="2"
       helper_size="0"
       apply_no_weight="true"
       apply_with_weight="true"
       only_selected="false" />
  </defs>
  <sodipodi:namedview
     id="base"
     pagecolor="#ffffff"
     bordercolor="#666666"
     borderopacity="1.0"
     inkscape:pageopacity="0.0"
     inkscape:pageshadow="2"
     inkscape:zoom="1.15"
     inkscape:cx="400"
     inkscape:cy="277.00876"
     inkscape:document-units="px"
     inkscape:current-layer="layer1"
     showgrid="false"
     units="px"
     inkscape:window-width="1920"
     inkscape:window-height="1017"
     inkscape:window-x="-8"
     inkscape:window-y="-8"
     inkscape:window-maximized="1" />
  <metadata
     id="metadata5">
    <rdf:RDF>
      <cc:Work
         rdf:about="">
        <dc:format>image/svg+xml</dc:format>
        <dc:type
           rdf:resource="http://purl.org/dc/dcmitype/StillImage" />
        <dc:title></dc:title>
      </cc:Work>
    </rdf:RDF>
  </metadata>
  <g
     inkscape:label="圖層 1"
     inkscape:groupmode="layer"
     id="layer1"
     transform="translate(0,-161.53331)">
    <path
       style="fill:none;stroke:#000000;stroke-width:1px;stroke-linecap:butt;stroke-linejoin:miter;stroke-opacity:1"
       d="M 128.01418,226.54711 C 124.11337,225.83741 124.82258,231.33387 125.70916,236.21016 126.59573,241.08646 127.65939,245.34111 129.34403,248.88775 131.02866,252.43438 133.33324,255.27079 137.50836,257.63924 141.68347,260.00769 148.05027,262.00868 152.39423,263.16111 156.73818,264.31353 159.2207,264.66818 160.01836,269.09876 160.81602,273.52934 159.92919,282.04286 160.10652,286.91937 160.28385,291.79588 161.52482,293.03686 163.38687,291.52917 165.24892,290.02149 167.73119,285.76617 171.80863,281.51161 175.88607,277.25706 181.5614,273.00056 184.22042,268.39108 186.87943,263.7816 186.52475,258.81608 180.14326,254.20711 173.76177,249.59814 161.34811,245.34202 150.88668,239.7567 140.42524,234.17137 131.915,227.2568 128.01418,226.54711 Z"
       id="path3744"
       inkscape:connector-curvature="0"
       inkscape:path-effect="#path-effect3746"
       inkscape:original-d="M 123.40426,220.34182 C 124.11448,225.83727 124.8237,231.33373 125.53191,236.83118 126.59691,241.08616 127.66057,245.34082 128.7234,249.59714 131.02975,252.43349 133.33433,255.2699 135.6383,258.10778 141.66791,260.05721 148.05065,262.00749 154.25532,263.95884 156.73834,264.31242 159.22086,264.66706 161.70213,265.02267 160.8169,273.52943 159.93008,282.04295 159.04255,290.55459 160.28485,291.79488 161.52582,293.03586 162.76596,294.27799 165.24923,290.02167 167.7315,285.76635 170.21277,281.51203 175.88595,277.2569 181.56128,273.0004 187.23404,268.74608 186.8805,263.78152 186.52582,258.816 186.17021,253.85246 173.76218,249.59693 161.34852,245.34082 148.93617,241.0865 140.42613,234.17028 131.91589,227.25571 123.40426,220.34182 Z" />
    <path
       style="fill:none;stroke:#000000;stroke-width:1px;stroke-linecap:butt;stroke-linejoin:miter;stroke-opacity:1"
       d="M 34.663312,314.0475 C 32.801283,315.909 37.943126,323.1785 43.174001,327.96597 48.404876,332.75344 53.72388,335.05834 58.777164,334.2601 63.830448,333.46185 68.618112,329.56079 95.385638,322.73599 122.15316,315.91119 170.92314,306.15719 195.8342,300.21701 220.74526,294.27684 221.80911,292.14913 220.12576,289.49112 218.4424,286.83311 214.00728,283.63982 211.08201,283.10731 208.15674,282.5748 206.73836,284.70237 182.25758,290.113 157.77679,295.52363 110.28483,304.20686 85.107482,309.61437 59.93013,315.02188 57.093319,317.14949 51.240203,316.44009 45.387088,315.7307 36.52534,312.186 34.663312,314.0475 Z"
       id="path3748"
       inkscape:connector-curvature="0"
       inkscape:path-effect="#path-effect3750"
       inkscape:original-d="M 27.659574,308.63969 C 32.802418,315.9082 37.944262,323.1777 43.085106,330.4482 48.405398,332.75223 53.724404,335.05713 59.042553,337.3631 63.830358,333.46174 68.618021,329.56068 73.404255,325.66097 122.15301,315.91042 170.92299,306.15642 219.68085,296.40565 220.74566,294.27704 221.80951,292.14933 222.87234,290.02267 218.44322,286.83198 214.00809,283.63869 209.57447,280.4482 208.15697,282.57495 206.73859,284.70252 205.31915,286.83118 157.77665,295.52284 110.28469,304.20607 62.765957,312.89501 59.93001,315.02172 57.093199,317.14933 54.255319,319.27799 45.387571,315.72949 36.525823,312.18479 27.659574,308.63969 Z" />
    <path
       style="fill:none;stroke:#000000;stroke-width:1px;stroke-linecap:butt;stroke-linejoin:miter;stroke-opacity:1"
       d="M 108.95405,356.77775 C 106.73741,358.28438 108.15585,363.78084 111.08199,367.50482 114.00812,371.22879 118.44019,373.1789 120.92211,375.39461 123.40404,377.61031 123.93601,380.09284 132.36115,377.60954 140.78629,375.12625 157.0934,367.6817 165.51486,362.27373 173.93631,356.86576 174.46826,353.49672 172.07571,350.74952 169.68315,348.00231 164.36222,345.87394 155.67403,347.55823 146.98585,349.24252 134.93029,354.73843 125.97573,356.24578 117.02118,357.75313 111.1707,355.27111 108.95405,356.77775 Z"
       id="path3752"
       inkscape:connector-curvature="0"
       inkscape:path-effect="#path-effect3754"
       inkscape:original-d="M 105.31915,352.78863 C 106.73859,358.28408 108.15703,363.78054 109.57447,369.27799 114.00865,371.22759 118.44072,373.1777 122.87234,375.12905 123.4052,377.61006 123.93717,380.09259 124.46809,382.57586 140.78608,375.1258 157.0932,367.68125 173.40426,360.23544 173.93713,356.86589 174.46909,353.49685 175,350.12905 169.68363,348.00111 164.3627,345.87274 159.04255,343.74608 146.98564,349.24206 134.93008,354.73798 122.87234,360.23544 117.02169,357.75192 111.17121,355.2699 105.31915,352.78863 Z" />
    <path
       style="fill:none;stroke:#000000;stroke-width:1px;stroke-linecap:butt;stroke-linejoin:miter;stroke-opacity:1"
       d="M 109.21979,424.50834 C 113.12063,428.4979 119.85822,434.52628 132.71331,432.30965 145.5684,430.09303 164.5402,419.63195 176.41948,413.07174 188.29876,406.51154 193.0863,403.8518 190.33923,402.25647 187.59216,400.66115 177.30591,400.1291 166.66724,402.25669 156.02857,404.38429 145.03667,409.17108 134.39774,412.00823 123.75882,414.84537 113.47626,415.7318 108.86575,417.15021 104.25524,418.56863 105.31896,420.51878 109.21979,424.50834 Z"
       id="path3756"
       inkscape:connector-curvature="0"
       inkscape:path-effect="#path-effect3758"
       inkscape:original-d="M 106.38298,422.46948 C 113.12157,428.49685 119.85916,434.52522 126.59574,440.55459 145.56821,430.09268 164.54001,419.6316 183.51064,409.17161 188.29857,406.5112 193.08611,403.85146 197.87234,401.19288 187.59221,400.6601 177.30596,400.12805 167.02128,399.59714 156.02836,404.38381 145.03646,409.17061 134.04255,413.95884 123.75874,414.84446 113.47618,415.73089 103.19149,416.61842 104.25643,418.56798 105.32015,420.51813 106.38298,422.46948 Z" />
    <path
       style="fill:none;stroke:#000000;stroke-width:1px;stroke-linecap:butt;stroke-linejoin:miter;stroke-opacity:1"
       d="M 75.09417,475.28092 C 74.032362,477.40335 76.529241,480.52445 79.775265,484.51956 83.02129,488.51466 87.016143,493.38339 90.574169,499.56305 94.132195,505.74271 97.253224,513.23318 99.625326,520.03729 101.99743,526.84139 103.62029,532.95834 105.30578,538.9512 106.99127,544.94406 108.73888,550.81107 110.92393,554.86898 113.10898,558.92689 115.73042,561.17383 118.10293,562.17249 120.47544,563.17114 122.59785,562.92145 124.15773,560.61245 125.7176,558.30345 126.71687,553.93164 127.96524,549.99951 129.2136,546.06737 130.71213,542.5708 135.0807,540.51154 139.44927,538.45228 146.69272,537.82785 153.68352,536.64185 160.67433,535.45586 167.41691,533.70779 173.6584,533.39581 179.8999,533.08383 185.64373,534.20762 188.95177,532.83394 192.25982,531.46025 193.13385,527.58957 191.63632,524.53191 190.1388,521.47424 186.26748,519.22638 184.45452,515.16799 182.64156,511.1096 182.89642,504.99294 184.58175,497.87747 186.26708,490.762 189.38872,482.52087 191.76066,476.46622 194.1326,470.41157 195.75581,466.54084 194.32056,462.42228 192.88531,458.30373 188.38953,453.93282 183.20904,452.12251 178.02856,450.31219 172.16091,451.06125 168.10314,452.87128 164.04538,454.68131 161.79861,457.55218 157.73654,459.72295 153.67447,461.89372 147.56672,463.42066 141.19895,464.29472 134.83118,465.16878 128.09093,465.41841 124.34513,467.66538 120.59933,469.91235 119.85038,474.15639 123.22251,476.71643 126.59464,479.27647 134.08327,480.15014 140.1381,479.46329 146.19292,478.77643 150.81269,476.52898 154.7445,476.09224 158.6763,475.6555 161.92309,477.02915 163.85784,481.0231 165.79258,485.01706 166.4169,491.63478 165.79275,498.43911 165.1686,505.24344 163.2962,512.23375 159.86301,516.79107 156.42983,521.34839 151.43692,523.47038 145.81811,524.71909 140.1993,525.9678 133.95861,526.34224 130.02526,524.09436 126.09191,521.84649 124.46921,516.9784 122.03496,511.54818 119.60071,506.11797 116.35436,500.12472 113.17101,495.44333 109.98766,490.76193 106.86638,487.39095 102.24731,483.5209 97.62823,479.65085 91.510803,475.28126 86.142933,473.6581 80.775062,472.03493 76.155979,473.15849 75.09417,475.28092 Z"
       id="path3772"
       inkscape:connector-curvature="0"
       inkscape:path-effect="#path-effect3774"
       inkscape:original-d="M 71.535581,474.28237 C 74.033459,477.40247 76.530338,480.52357 79.026217,483.64567 83.02238,488.51377 87.01723,493.3825 91.011236,498.25241 94.133403,505.74221 97.254433,513.23268 100.37453,520.72432 101.99861,526.84108 103.62147,532.95803 105.24345,539.07638 106.99246,544.94371 108.74008,550.81071 110.48689,556.67938 113.1099,558.92582 115.73134,561.17276 118.35206,563.42095 120.47534,563.17027 122.59775,562.92057 124.7191,562.67189 125.71833,558.30362 126.7176,553.93181 127.71536,549.56327 129.21408,546.06758 130.71261,542.57101 132.20974,539.07638 139.44919,538.45138 146.69264,537.82694 153.93258,537.20372 160.67415,535.45517 167.41673,533.70709 174.1573,531.96028 179.90012,533.08268 185.64395,534.20647 191.38577,535.33106 192.26056,531.46042 193.13458,527.58974 194.00749,523.72058 190.13949,521.47306 186.26817,519.22519 182.397,516.979 182.64771,511.10986 182.89738,504.99298 183.14607,499.00147 186.26762,490.7622 189.38926,482.52107 192.50936,474.28237 194.1331,470.41178 195.75631,466.54105 197.37828,462.67189 192.8863,458.30271 188.39051,453.93181 183.89513,449.56327 178.02845,450.31134 172.1608,451.0604 166.29213,451.81046 164.04552,454.68142 161.79875,457.55229 159.55056,460.4247 153.68164,461.9224 147.56654,463.41995 141.57303,464.91908 134.83114,465.16781 128.09089,465.41745 121.34831,465.66814 120.60014,469.91249 119.85119,474.15653 119.10112,478.40222 126.59477,479.27537 134.0834,480.14904 141.57303,481.02395 146.19272,478.77602 150.81249,476.52856 155.43071,474.28237 158.67681,475.6543 161.9236,477.02794 165.16854,478.40222 165.79366,485.01696 166.41798,491.63468 167.0412,498.25241 165.16929,505.24362 163.29688,512.23393 161.42322,519.22619 156.42962,521.3479 151.43671,523.46989 146.44195,525.59324 140.19924,525.96686 133.95855,526.3413 127.71536,526.71683 126.09311,521.84609 124.47041,516.978 122.84644,512.11009 119.6019,506.11732 116.35556,500.12407 113.10861,494.13256 109.9887,490.76097 106.86742,487.38999 103.74532,484.0202 97.629038,479.64972 91.511612,475.28013 85.393258,470.91159 80.774889,472.03422 76.155806,473.15778 71.535581,474.28237 Z" />
    <path
       style="fill:none;stroke:#000000;stroke-width:1px;stroke-linecap:butt;stroke-linejoin:miter;stroke-opacity:1"
       d="M 263.23394,276.34168 C 262.92114,279.52528 264.7938,284.39419 264.73155,290.19948 264.6693,296.00477 262.67202,302.7456 260.54959,308.4264 258.42715,314.10721 256.18036,318.72561 253.37099,323.84496 250.56162,328.9643 247.19171,334.58082 244.25764,339.32531 241.32357,344.06979 238.82722,347.93914 240.88828,346.87717 242.94935,345.81521 249.5641,339.8245 255.24412,334.64382 260.92413,329.46314 265.66896,325.0929 270.28767,320.66141 274.90638,316.22992 279.40175,311.73456 282.08534,304.49468 284.76894,297.2548 285.64304,287.26506 284.14538,281.64779 282.64772,276.03052 278.77714,274.78195 275.7806,273.59584 272.78405,272.40973 270.66204,271.28631 268.35261,271.47326 266.04319,271.66021 263.54675,273.15807 263.23394,276.34168 Z"
       id="path3776"
       inkscape:connector-curvature="0"
       inkscape:path-effect="#path-effect3778"
       inkscape:original-d="M 261.04869,274.65691 C 262.92235,279.52482 264.79501,284.39373 266.66667,289.26365 264.66994,296.00496 262.67266,302.74579 260.67416,309.48837 258.42757,314.10741 256.18078,318.72582 253.93258,323.34604 250.56192,328.96448 247.19201,334.581 243.82022,340.19998 241.32382,344.06995 238.82747,347.9393 236.32959,351.81046 242.9493,345.81516 249.56405,339.82444 256.17978,333.83294 260.92409,329.46309 265.66892,325.09286 270.41199,320.72432 274.90638,316.22992 279.40175,311.73456 283.89513,307.24118 284.76984,297.25488 285.64395,287.26514 286.51685,277.27863 282.64811,276.02932 278.77753,274.78075 274.90637,273.53331 272.78468,272.40854 270.66267,271.28512 268.53933,270.16252 266.04301,271.65991 263.54657,273.15778 261.04869,274.65691 Z" />
    <path
       style="fill:none;stroke:#000000;stroke-width:1px;stroke-linecap:butt;stroke-linejoin:miter;stroke-opacity:1"
       d="M 295.88006,179.96234 C 298.37697,183.39591 303.12104,188.7642 306.11727,195.19334 309.11349,201.62248 310.36191,209.11302 310.17478,216.04202 309.98764,222.97102 308.36485,229.33737 307.92777,236.64165 307.49069,243.94592 308.23961,252.18409 308.3021,259.11314 308.36459,266.04219 307.74044,271.65955 307.42827,278.33951 307.1161,285.01947 307.1161,292.75828 307.36579,300.624 307.61548,308.48972 308.1148,316.4787 308.55175,322.09689 308.98871,327.71509 309.3632,330.96065 304.99299,332.64649 300.62278,334.33233 291.51162,334.45714 288.26524,336.64202 285.01885,338.82689 287.64028,343.07111 291.19906,345.1936 294.75785,347.31608 299.25194,347.31608 301.9354,349.18796 304.61886,351.05984 305.49296,354.80599 305.86758,360.73672 306.24219,366.66745 306.11737,374.78073 305.99255,379.77459 305.86772,384.76844 305.74289,386.64086 303.6824,388.20211 301.6219,389.76335 297.62917,391.01109 291.94764,392.44709 286.26612,393.8831 278.90254,395.50559 273.09698,397.191 267.29143,398.87641 263.0474,400.62395 259.86357,401.81013 256.67974,402.99631 254.55799,403.62035 251.81049,404.68185 249.06299,405.74335 245.69408,407.24064 241.94368,407.44351 238.19328,407.64638 233.8334,406.4923 230.21293,406.30485 226.59246,406.11741 223.59669,406.86635 223.84644,409.23928 224.09619,411.61221 227.59045,415.60565 231.96026,418.91417 236.33008,422.2227 241.57343,424.84437 245.50593,426.7794 249.43843,428.71444 252.06036,429.96297 254.61969,429.08867 257.17902,428.21437 259.67631,425.21762 263.35848,422.53415 267.04064,419.85068 271.91131,417.47779 275.59356,416.79142 279.27581,416.10505 281.7733,417.10405 282.0231,421.22246 282.2729,425.34086 280.27498,432.58331 276.65436,439.4503 273.03373,446.31729 267.79114,452.80812 264.85693,457.67728 261.92272,462.54644 261.2986,465.79184 254.30525,477.4683 247.31189,489.14477 233.95832,509.23753 224.09561,522.09672 214.2329,534.95592 207.86623,540.57358 203.37148,545.38029 198.87673,550.187 196.25544,554.18134 193.63353,557.11562 191.01161,560.04989 188.39065,561.92201 191.32633,561.85942 194.26202,561.79684 202.74774,559.8002 210.92436,554.43212 219.10099,549.06405 226.96723,540.32377 232.89704,533.33279 238.82684,526.34181 242.82232,521.09774 246.75447,515.66761 250.68661,510.23748 254.55759,504.61831 258.30253,499.06331 262.04746,493.5083 265.66868,488.01405 269.66316,481.14848 273.65764,474.28291 278.0281,466.04147 281.3987,459.61235 284.76931,453.18322 287.14169,448.56332 289.45095,443.44544 291.7602,438.32756 294.00797,432.70813 295.31865,428.77582 296.62932,424.84352 297.00394,422.59584 296.44233,420.16246 295.88073,417.72907 294.38184,415.10601 294.56963,413.04591 294.75742,410.9858 296.63031,409.48749 299.25099,408.73887 301.87168,407.99024 305.24445,407.99024 307.05411,409.36266 308.86376,410.73509 309.11353,413.48247 309.11355,417.54071 309.11358,421.59895 308.86397,426.96548 308.80153,433.64543 308.73908,440.32539 308.8639,448.31385 308.61421,457.42805 308.36453,466.54225 307.74038,476.77819 307.42824,485.26796 307.1161,493.75773 307.1161,500.4986 306.99126,506.86606 306.86642,513.23353 306.61677,519.22515 306.24224,524.40652 305.8677,529.5879 305.36841,533.95668 304.24488,537.63991 303.12135,541.32315 301.37397,544.31865 298.87671,546.4416 296.37946,548.56455 293.13479,549.8125 289.0137,549.56282 284.89261,549.31314 279.9007,547.56597 276.59222,546.37992 273.28375,545.19387 271.66095,544.56972 271.41109,546.25534 271.16123,547.94095 272.28446,551.93464 273.59544,555.49308 274.90641,559.05151 276.40429,562.17209 278.58928,565.79295 280.77428,569.41382 283.6453,573.53311 286.51676,578.33965 289.38821,583.1462 292.25948,588.63906 294.4443,593.1335 296.62911,597.62795 298.12714,601.12334 300.81224,602.30935 303.49735,603.49536 307.36698,602.37192 310.113,600.12482 312.85901,597.87772 314.48248,594.50589 315.60574,590.07496 316.72899,585.64403 317.35344,580.14894 317.79033,574.96843 318.22722,569.78792 318.47696,564.91803 318.53935,560.17449 318.60175,555.43096 318.47688,550.81074 318.47689,544.69417 318.47689,538.57759 318.60176,530.9605 318.7266,524.5938 318.85144,518.22711 318.9763,513.10782 319.03871,505.80541 319.10112,498.503 319.10112,489.01296 318.97626,482.1468 318.8514,475.28063 318.60169,471.03549 318.41446,466.04235 318.22722,461.0492 318.10235,455.30511 317.79026,448.81387 317.47817,442.32263 316.97871,435.08044 316.47934,429.65001 315.97997,424.21957 315.48053,420.59863 315.85523,419.03855 316.22994,417.47847 317.47867,417.97796 321.84636,422.53284 326.21406,427.08772 333.7078,435.70552 339.88753,444.4445 346.06726,453.18348 350.93614,462.04733 354.61912,468.16483 358.3021,474.28234 360.79887,477.65299 365.98017,483.14641 371.16146,488.63982 379.02624,496.25493 386.07993,502.87166 393.13362,509.4884 399.37584,515.10639 404.99376,520.41221 410.61169,525.71803 415.60549,530.71183 420.59985,532.3346 425.59421,533.95736 430.58797,532.20954 435.08186,530.14976 439.57574,528.08998 443.57172,525.71737 449.00124,525.031 454.43077,524.34462 461.29922,525.34367 466.60501,525.53082 471.91079,525.71797 475.65657,525.09367 478.34026,523.4706 481.02395,521.84754 482.64742,519.22502 481.58694,517.04133 480.52646,514.85764 476.77947,513.10905 468.97613,510.48711 461.1728,507.86518 449.31401,504.36996 439.88784,499.87538 430.46167,495.3808 423.4708,489.88797 418.1027,486.51722 412.73461,483.14647 408.98936,481.89805 404.99378,479.58812 400.9982,477.27819 396.75418,473.90794 391.19855,469.72561 385.64292,465.54328 378.77671,460.54967 373.15863,456.18005 367.54054,451.81044 363.17112,448.06522 358.05247,443.75806 352.93382,439.45091 347.06627,434.58209 342.32222,430.8992 337.57818,427.21631 333.95776,424.71947 330.83651,422.2849 327.71526,419.85032 325.09369,417.47842 322.22233,415.23126 319.35097,412.9841 316.22993,410.8618 314.98159,408.80113 313.73325,406.74046 314.35742,404.7431 316.91578,403.12094 319.47415,401.49877 323.97123,400.24958 328.27779,399.12614 332.58435,398.0027 336.70529,397.00369 341.63575,396.37962 346.5662,395.75556 352.31065,395.5058 356.99204,394.94396 361.67342,394.38213 365.29455,393.50806 367.72882,392.88386 370.16308,392.25966 371.41193,391.88501 373.40811,391.38598 375.40429,390.88695 378.15348,390.26214 379.33894,388.20264 380.52441,386.14315 380.14972,382.64604 377.5291,380.64908 374.90849,378.65213 370.03834,378.15263 365.79346,378.33979 361.54857,378.52694 357.92876,379.40069 354.43253,379.96263 350.93631,380.52457 347.56661,380.77418 343.8207,381.5233 340.0748,382.27242 335.95625,383.52047 332.39773,384.39453 328.83921,385.2686 325.84383,385.76783 322.97185,386.08003 320.09987,386.39223 317.35435,386.51703 316.41786,385.20507 315.48136,383.89311 316.35493,381.14759 316.54207,377.52826 316.72921,373.90892 316.22962,369.41258 315.85512,365.60513 315.48063,361.79768 315.23089,358.67597 315.10608,355.74249 314.98127,352.80902 314.98127,350.06165 316.10505,348.00211 317.22882,345.94258 319.47683,344.56879 323.7823,342.44729 328.08777,340.32578 334.45814,337.45287 338.88985,335.70523 343.32156,333.9576 345.81891,333.33327 350.31176,332.14765 354.80461,330.96203 361.29956,329.21339 365.35666,327.21568 369.41376,325.21798 371.03702,322.97038 370.84976,319.97545 370.66249,316.98053 368.66398,313.23332 367.16642,311.29848 365.66887,309.36364 364.67002,309.23878 363.79559,310.17532 362.92115,311.11185 362.17273,313.10764 361.66741,314.15051 361.16209,315.19339 360.67536,315.35563 359.23558,315.48085 357.7958,315.60607 355.30692,315.73051 352.06022,316.7294 348.81351,317.72829 344.82018,319.60016 339.01378,321.78539 333.20739,323.97062 325.59421,326.46675 321.72343,319.53632 317.85266,312.6059 317.72784,296.25392 318.47697,284.08179 319.22611,271.90966 320.84917,263.91917 322.59687,255.8049 324.34456,247.69063 326.2175,239.44974 328.02763,232.02199 329.83777,224.59424 331.58583,217.97657 331.8978,212.35924 332.20976,206.74191 331.08597,202.12185 329.40078,198.37705 327.7156,194.63224 325.46806,191.76039 323.34581,189.32605 321.22356,186.89171 319.22597,184.89411 317.10379,183.27124 314.98161,181.64836 312.73442,180.39992 310.42474,179.33869 308.11506,178.27745 305.74338,177.40367 302.86691,176.48371 299.99045,175.56375 296.38019,174.53225 294.75684,174.78158 293.1335,175.03091 293.38314,176.52876 295.88006,179.96234 Z"
       id="path3780"
       inkscape:connector-curvature="0"
       inkscape:path-effect="#path-effect3782"
       inkscape:original-d="M 293.63296,178.02769 C 298.37803,183.39498 303.1221,188.76327 307.86517,194.13256 309.11462,201.62229 310.36305,209.11283 311.61049,216.60447 309.98834,222.9712 308.36554,229.33755 306.74157,235.7056 307.49178,243.94582 308.2407,252.18399 308.98876,260.4247 308.36548,266.04229 307.74132,271.65965 307.1161,277.27863 307.1171,285.01947 307.1171,292.75828 307.1161,300.4996 307.61655,308.48965 308.11586,316.47863 308.61423,324.46964 308.98981,327.71496 309.3643,330.96052 309.73783,334.20747 300.62277,334.33134 291.51161,334.45616 282.397,334.582 285.02002,338.82617 287.64145,343.07039 290.26217,347.31608 294.75785,347.31508 299.25194,347.31508 303.74532,347.31608 304.62003,351.05957 305.49413,354.80572 306.36704,358.55204 306.24317,366.66747 306.11835,374.78075 305.99251,382.89661 305.86865,384.7685 305.74382,386.64092 305.61798,388.51458 301.62171,389.76273 297.62897,391.01046 293.63296,392.2599 286.26596,393.88236 278.90237,395.50484 271.53558,397.12882 267.29122,398.87591 263.04719,400.62345 258.8015,402.37226 256.67955,402.99566 254.5578,403.6197 252.43446,404.24492 249.06278,405.74289 245.69388,407.24018 242.3221,408.7393 238.20177,407.6143 233.83371,406.49111 229.58801,405.36852 226.59228,406.1167 223.59651,406.86564 220.59925,407.61571 224.09725,411.61128 227.59151,415.60472 231.08614,419.60073 236.33068,422.2215 241.57403,424.84317 246.81648,427.46589 249.439,428.71324 252.06093,429.96177 254.68165,431.21121 257.17912,428.21445 259.67641,425.2177 262.17228,422.22245 267.04044,419.85027 271.91111,417.47738 276.77903,415.10634 279.27629,416.10385 281.77378,417.10285 284.26966,418.1026 282.27357,425.34105 280.27566,432.5835 278.27715,439.82544 273.03385,446.31739 267.79126,452.80822 262.54682,459.3011 261.92349,462.54659 261.29938,465.79199 260.67416,469.03893 247.31212,489.14492 233.95855,509.23768 220.59925,529.33855 214.23284,534.95585 207.86617,540.57351 201.49813,546.19249 198.87697,550.18716 196.25568,554.1815 193.63296,558.1775 191.01148,560.04971 188.39051,561.92182 185.76779,563.79548 194.26185,561.79611 202.74757,559.79948 211.23596,557.80297 219.10104,549.0641 226.96729,540.32382 234.83146,531.58574 238.82699,526.34193 242.82247,521.09785 246.81648,515.85541 250.68682,510.23762 254.5578,504.61845 258.42697,499.00147 262.0477,493.50846 265.66892,488.01421 269.28839,482.52207 273.65801,474.28311 278.02847,466.04167 282.397,457.80297 284.76969,453.18342 287.14207,448.56352 289.51311,443.9453 291.76072,438.32777 294.00849,432.70834 296.25468,427.09136 296.63013,424.84365 297.00475,422.59598 297.37828,420.34979 295.88191,417.72839 294.38302,415.10534 292.8839,412.48462 294.75732,410.98568 296.63021,409.48737 298.50187,407.99024 301.87168,407.98924 305.24445,407.98924 308.61423,407.99024 308.86485,410.73499 309.11461,413.48237 309.3633,416.22994 309.11453,421.59899 308.86492,426.96552 308.61423,432.33481 308.7401,440.32537 308.86492,448.31383 308.98876,456.30485 308.36547,466.54231 307.74132,476.77825 307.1161,487.01646 307.1171,493.75773 307.1171,500.4986 307.1161,507.24118 306.86738,513.23357 306.61773,519.22519 306.36704,525.2187 305.86858,529.588 305.36929,533.95678 304.86891,538.32732 303.12166,541.32333 301.37428,544.31883 299.62547,547.31608 296.37925,548.56401 293.13458,549.81196 289.88764,551.0614 284.89303,549.31194 279.90112,547.56477 274.90637,545.81795 273.28421,545.19266 271.66142,544.56851 270.03745,543.9453 271.16242,547.94062 272.28564,551.93431 273.40824,555.93031 274.90762,559.05093 276.40549,562.17151 277.90262,565.29361 280.77542,569.41302 283.64644,573.53231 286.51685,577.65316 289.38941,583.14557 292.26068,588.63843 295.13109,594.13256 296.63032,597.62743 298.12834,601.12282 299.62547,604.61945 303.49716,603.4947 307.36679,602.37126 311.23596,601.24867 312.85943,597.87792 314.4829,594.50609 316.10487,591.13631 316.72987,585.64413 317.35431,580.14904 317.97753,574.65691 318.22817,569.78797 318.4779,564.91808 318.72659,560.05016 318.60277,555.43093 318.4779,550.81071 318.35206,546.19249 318.47788,538.57761 318.60275,530.96052 318.72659,523.34604 318.85242,518.22713 318.97728,513.10784 319.10112,507.99024 319.10212,498.503 319.10212,489.01296 319.10112,479.52582 318.85246,475.28057 318.60275,471.03543 318.35206,466.79174 318.22824,461.04918 318.10337,455.30509 317.97753,449.56327 317.47924,442.32256 316.97978,435.08037 316.4794,427.84043 315.98109,424.21942 315.48165,420.59848 314.98127,416.979 316.23042,417.47726 317.47915,417.97675 318.72659,418.47713 326.21513,427.08679 333.70887,435.70459 341.1985,444.31983 346.06846,453.18282 350.93733,462.04667 355.80524,470.91159 358.30322,474.28151 360.8,477.65216 363.29588,481.02395 371.16244,488.63881 379.02722,496.25391 386.89139,503.87039 393.13457,509.48735 399.37678,515.10534 405.61798,520.72432 410.61269,525.71703 415.60649,530.71084 420.59925,535.70559 425.59401,533.95678 430.58777,532.20896 435.58052,530.46215 439.57557,528.08969 443.57154,525.71708 447.56554,523.34604 454.43093,524.3435 461.29938,525.34255 468.16479,526.3423 471.91066,525.71716 475.65643,525.09286 479.40075,524.46964 481.02423,521.84771 482.64769,519.22519 484.26966,516.60447 480.52702,514.85644 476.78003,513.10784 473.03371,511.36103 461.17315,507.86399 449.31436,504.36876 437.45318,500.87413 430.46254,495.3797 423.47166,489.88687 416.4794,484.39473 412.73501,483.14527 408.98976,481.89685 405.24345,480.64941 400.99907,477.27709 396.75506,473.90684 392.50936,470.53706 385.64374,465.54215 378.77753,460.54854 371.91011,455.55578 367.54146,451.80937 363.17204,448.06415 358.8015,444.31983 352.93472,439.44982 347.06717,434.581 341.1985,429.71309 337.57897,427.21516 333.95855,424.71833 330.33708,422.22245 327.7162,419.84928 325.09463,417.47738 322.47191,415.10634 319.35175,412.98295 316.23071,410.86065 313.10861,408.7393 313.73388,406.74066 314.35805,404.7433 314.98127,402.74679 319.47396,401.4981 323.97104,400.24891 328.46442,399.00147 332.58418,398.00199 336.70512,397.00297 340.82397,396.00522 346.56616,395.7546 352.31061,395.50484 358.05243,395.25616 361.67325,394.38141 365.29438,393.50734 368.91386,392.63443 370.16289,392.25902 371.41174,391.88437 372.65918,391.51084 375.40412,390.88621 378.15331,390.2614 380.89888,389.63818 380.5255,386.14303 380.15081,382.64592 379.77528,379.15129 374.9086,378.65104 370.03845,378.15154 365.16854,377.65316 361.5484,378.52623 357.92859,379.39998 354.30712,380.27488 350.93624,380.52365 347.56654,380.77326 344.19476,381.02395 340.0746,382.27178 335.95606,383.51983 331.83521,384.76927 328.83908,385.26779 325.8437,385.76702 322.84644,386.26739 320.09983,386.39128 317.35431,386.51608 314.60674,386.64192 315.48198,383.89331 316.35556,381.14779 317.22846,378.40222 316.73031,373.9088 316.23071,369.41246 315.73034,364.91908 315.4817,361.79759 315.23196,358.67588 314.98127,355.55578 314.98227,352.80902 314.98227,350.06165 314.98127,347.31608 317.22865,345.9423 319.47666,344.56851 321.72285,343.19623 328.08756,340.32532 334.45793,337.45241 340.82397,334.582 343.32138,333.9569 345.81873,333.33256 348.31461,332.70934 354.80443,330.96135 361.29938,329.21271 367.79026,327.46589 369.41394,325.21811 371.0372,322.97051 372.65918,320.72432 370.66368,316.97989 368.66517,313.23268 366.66667,309.48837 365.66901,309.36253 364.67016,309.23768 363.67041,309.11383 362.9217,311.11206 362.17328,313.10784 361.42322,315.10634 361.17438,315.23026 360.67516,315.35503 360.29963,315.48088 357.79575,315.60512 355.30687,315.72956 352.80899,315.85541 348.81331,317.72785 344.81998,319.59973 340.82397,321.47338 333.20719,323.97002 325.59401,326.46614 317.97753,328.96402 317.85366,312.60589 317.72884,296.25391 317.603,279.90035 319.22687,271.90982 320.84994,263.91933 322.47191,255.93031 324.3453,247.6908 326.21823,239.44991 328.08989,231.21121 329.83846,224.59442 331.58652,217.97675 333.33333,211.36102 332.21094,206.74162 331.08714,202.12157 329.96255,197.50335 327.7167,194.63138 325.46916,191.75953 323.22097,188.88911 321.22456,186.89071 319.22697,184.89311 317.22846,182.89661 314.98227,181.64717 312.73508,180.39873 310.48689,179.15129 308.1155,178.27625 305.74382,177.40247 303.37079,176.52956 300.00021,175.52958 296.38053,174.53106 292.8839,173.53331 293.13463,175.03072 293.38427,176.52857 293.63296,178.02769 Z" />
    <path
       style="stroke-width:0.86956519"
       d="M 116.82588,398.7057 C 113.01886,396.38433 109.5428,388.78986 104.80047,372.43266 97.924379,348.71574 93.964452,340.29036 82.47669,324.93524 78.723206,319.91814 75.652174,315.55003 75.652174,315.22833 75.652174,313.66635 78.11017,312.55646 81.569368,312.55646 87.58425,312.55646 95.773194,317.22662 105.08257,325.96606 110.25739,330.82406 114.48149,337.2077 120.66373,349.51298 123.54711,355.25211 126.95871,360.92602 128.24506,362.12167 130.41207,364.13588 131.20126,364.2929 138.9876,364.25898 148.28507,364.21849 153.83242,362.42863 158.5579,357.94462 167.55549,349.40678 169.96461,323.32025 162.40702,316.26551 159.29005,313.35594 156.42827,313.10862 148.78956,315.08867 134.11376,318.89282 120.1832,316.21995 122.1637,309.97995 123.07643,307.1042 127.19051,305.61321 138.99247,303.88105 151.47413,302.04913 155.94219,300.5696 162.10894,296.22634 168.09683,292.00905 171.37143,290.81733 176.97177,290.81733 183.86489,290.81733 189.82658,294.18125 192.69131,299.68719 194.58872,303.33395 194.2281,305.45173 189.54037,318.19108 184.23657,332.60468 182.63844,339.09626 182.62155,346.29529 182.60734,352.34988 183.57108,354.76922 188.20782,360.31905 191.64495,364.43302 192.10712,367.21259 189.71414,369.37821 188.48563,370.48999 186.35943,370.81847 180.36631,370.82236 176.09963,370.82513 170.45652,371.19185 167.82609,371.63728 146.15504,375.30704 136.92461,377.08698 135.33568,377.90254 131.07535,380.08927 128.7063,383.38973 126.43427,390.3036 124.13083,397.31302 122.32656,400.38546 120.5174,400.37929 119.9937,400.37751 118.33252,399.62439 116.82588,398.7057 Z"
       id="path3784"
       inkscape:connector-curvature="0"
       transform="translate(0,161.53331)" />
    <path
       style="stroke-width:0.86956519"
       d="M 117.8303,268.14582 C 113.9914,266.2312 106.95652,259.74124 106.95652,258.11431 106.95652,257.01252 109.62609,256.30498 124.64713,253.42562 129.83348,252.43146 140.73198,249.4835 148.86602,246.87461 157.00005,244.26571 166.06102,241.74068 169.0015,241.26342 175.16524,240.26301 186.61779,240.20146 189.05116,241.15566 190.57313,241.75248 190.5009,241.95252 188.1816,243.56372 179.23352,249.77988 151.0419,263.97746 140.89931,267.37554 131.44468,270.54313 123.18969,270.81876 117.8303,268.14582 Z"
       id="path3786"
       inkscape:connector-curvature="0"
       transform="translate(0,161.53331)" />
    <path
       style="stroke-width:0.86956519"
       d="M 118.39117,210.96337 C 112.08585,206.10113 108.80332,201.72458 108.7321,198.08509 108.69738,196.31065 109.15904,196.20506 118.47826,195.85603 127.31728,195.52498 129.63007,195.05462 142.45601,190.97957 158.18145,185.9833 163.64278,185.38174 168.70922,188.08785 176.10782,192.03961 171.61604,197.16267 152.6087,206.45111 139.40304,212.90441 130.92276,216.07549 127.17045,215.96337 125.67271,215.91862 122.4001,214.05479 118.39117,210.96337 Z"
       id="path3788"
       inkscape:connector-curvature="0"
       transform="translate(0,161.53331)" />
    <path
       style="stroke-width:0.86956519"
       d="M 49.800198,169.86491 C 43.484557,166.73871 33.829195,154.95915 35.891761,152.89658 36.138408,152.64993 39.738038,153.25511 43.890937,154.24142 48.043837,155.22774 52.240222,156.03472 53.216237,156.03472 54.192253,156.03472 60.911357,154.63353 68.147579,152.92097 75.383802,151.20841 105.36957,144.96822 134.78261,139.05388 164.19565,133.13954 193.3057,126.90576 199.47161,125.20102 L 210.68235,122.1015 214.45562,124.31278 C 216.53091,125.52899 218.63396,127.28095 219.12904,128.20603 221.18742,132.05214 217.41135,133.07506 130.86957,152.11515 99.048866,159.11604 85.021139,162.76451 70.495615,167.8178 57.972681,172.17441 55.049987,172.46351 49.800198,169.86491 Z"
       id="path3790"
       inkscape:connector-curvature="0"
       transform="translate(0,161.53331)" />
    <path
       style="stroke-width:0.86956519"
       d="M 161.45807,128.73043 C 161.13439,127.88695 160.86957,122.38088 160.86957,116.49471 160.86957,107.54342 160.62062,105.50854 159.34783,104.05621 158.49383,103.08174 153.87517,101.07861 148.82219,99.491193 138.74405,96.325094 133.67305,93.038999 130.67794,87.733405 128.34758,83.605361 125.85122,73.047633 126.24117,68.969177 126.6197,65.01012 127.99653,65.336376 138.26087,71.817396 145.45777,76.361602 152.44479,79.965203 172.92226,89.694239 178.34196,92.269186 183.32789,96.395547 184.38769,99.183042 185.77108,102.82164 183.72345,106.5433 175.8744,114.65636 171.67074,119.00141 166.8398,124.29066 165.13897,126.41025 162.55034,129.63623 161.95069,130.0142 161.45807,128.73043 Z"
       id="path3792"
       inkscape:connector-curvature="0"
       transform="translate(0,161.53331)" />
    <path
       style="stroke-width:0.86956519"
       d=""
       id="path3794"
       inkscape:connector-curvature="0"
       transform="translate(0,161.53331)" />
    <path
       style="stroke-width:0.86956519"
       d="M 242.6087,182.73222 C 242.6087,182.48842 245.603,177.26218 249.2627,171.11835 256.85659,158.36989 259.82105,152.11017 263.09259,141.9153 265.23442,135.24086 265.36236,133.97651 264.89323,124.1201 264.35381,112.78657 264.92221,110.81733 268.73297,110.81733 271.24789,110.81733 279.35595,114.67843 281.19916,116.75379 284.77974,120.78537 284.59029,133.20963 280.79119,143.50778 279.15472,147.94373 277.40204,150.1288 267.92656,159.54609 257.03695,170.36883 242.6087,183.58224 242.6087,182.73222 Z"
       id="path3796"
       inkscape:connector-curvature="0"
       transform="translate(0,161.53331)" />
    <path
       style="stroke-width:0.86956519"
       d="M 299.91093,438.94094 C 299.15565,438.05991 296.17101,432.83906 293.27839,427.33906 290.38577,421.83906 285.29318,412.96052 281.96155,407.60895 276.42841,398.72115 271.18367,386.30032 272.43537,385.04862 272.70873,384.77526 275.40303,385.36359 278.42271,386.356 286.21653,388.91745 290.62198,389.43827 294.28072,388.23078 302.82724,385.41017 305.81057,378.98755 306.99773,360.85313 308.94075,331.1725 310.44623,252.30082 309.13389,248.94042 307.76754,245.44175 300.55974,244.90603 295.76636,247.94687 293.91122,249.12374 293.76669,249.6551 294.3113,253.2963 294.64387,255.51982 295.1157,258.73293 295.35983,260.43656 296.61677,269.20825 272.85703,315.36078 251.42813,345.77247 226.62867,380.96764 211.04698,395.42856 193.99149,399.0778 L 191.02645,399.7122 195.73062,394.25146 C 198.31791,391.24806 203.87249,385.09039 208.07412,380.56773 218.58613,369.2526 224.63655,361.71386 234.87344,347.17625 245.31069,332.35409 255.90537,315.47592 260.42566,306.4695 262.22595,302.88254 266.86344,295.05646 270.73121,289.0782 279.03977,276.23599 281.92391,269.67846 282.42411,262.49269 282.85385,256.31915 281.54206,254.29517 277.1118,254.29627 273.41341,254.29719 264.89871,258.44613 259.66744,262.79634 257.33236,264.73814 254.66626,266.52448 253.74277,266.76599 252.7552,267.02424 248.52438,265.43323 243.46977,262.9028 233.59122,257.95743 224.97337,250.78866 225.39098,247.86395 225.64143,246.10993 226.04649,246.047 235.24163,246.33362 L 244.83109,246.63253 257.97373,241.84791 C 265.20219,239.21637 277.44956,235.44165 285.1901,233.45965 292.93066,231.47765 300.59577,229.22086 302.22366,228.44457 306.59303,226.36096 307.21406,223.46193 306.81675,207.00373 306.39188,189.40365 305.73749,187.86352 297.47263,185.01205 288.65222,181.96891 285.14045,177.27998 290.21739,175.3248 291.53261,174.81828 295.50957,173.94206 299.0551,173.37764 303.8073,172.62111 306.05102,171.80188 307.59242,170.26047 L 309.68335,168.16955 308.9721,153.62387 C 308.58093,145.62375 308.29848,134.38254 308.34445,128.64341 308.39042,122.90428 308.49877,108.62167 308.58522,96.904282 308.6797,84.098392 309.29252,70.8506 310.12146,63.694072 312.25143,45.305305 310.17324,36.683632 300.29463,22.9261 297.17695,18.584228 294.86956,14.788347 295.1671,14.49081 296.03347,13.624438 303.40504,15.858526 310,18.986185 317.54842,22.566026 324.28433,29.211888 328.02457,36.769791 332.13411,45.073945 331.8242,50.567422 325.78494,76.469499 318.36608,108.28859 317.93011,111.3318 317.87465,131.68689 317.83472,146.34372 318.098,150.39177 319.35553,154.45593 322.4175,164.35177 327.72821,165.33029 344.44177,159.0782 350.19512,156.92602 355.8217,155.16515 356.9453,155.16515 360.17403,155.16515 361.70632,154.27266 363.09797,151.58152 363.80996,150.20469 364.70169,149.0782 365.0796,149.0782 366.35259,149.0782 369.56522,155.81347 369.56522,158.48231 369.56522,163.24209 366.00651,165.28859 349.93649,169.77013 344.64069,171.247 336.61895,174.0715 332.1104,176.0468 313.49838,184.20113 313.29727,184.51166 314.82688,202.7329 315.40465,209.61554 315.64598,216.93494 315.36318,218.99822 314.54683,224.95412 315.83604,225.99894 323.13189,225.2943 326.43109,224.97566 332.06522,223.93514 335.65217,222.98203 344.25037,220.69736 362.31817,217.77385 367.83963,217.77385 375.67758,217.77385 380.16733,220.9631 378.72533,225.50641 377.75095,228.57645 367.99922,231.17161 350.43478,233.0352 343.5,233.77099 333.98784,235.33569 329.29667,236.51233 316.68088,239.6766 313.54431,241.66486 314.0676,246.166 314.37172,248.78192 317.30717,251.40454 336.03663,265.79377 341.74807,270.18169 351.53068,278.03663 357.77576,283.2492 374.81931,297.47491 401.43423,317.23446 407.82609,320.40776 410.93478,321.9511 418.30099,326.33199 424.19543,330.14306 437.04066,338.4482 441.97843,340.75753 459.91784,346.84991 477.17572,352.71084 481.07221,354.62826 480.7067,357.07992 480.55714,358.083 479.32836,359.72558 477.97607,360.73008 475.7203,362.40571 474.32071,362.5628 461.01955,362.63322 445.79647,362.71383 445.49112,362.77176 434.6769,367.63069 422.74207,372.99311 420.88173,372.2026 399.8889,352.84839 366.07603,321.67481 362.0635,317.1829 349.91514,296.90428 338.24206,277.41901 319.56937,255.01285 316.11019,256.34026 314.71474,256.87574 314.61162,257.66451 315.15421,263.65219 317.8745,293.67161 318.64565,332.54942 317.49548,381.68689 316.58077,420.7644 316.04646,426.52693 312.6827,433.59249 310.04192,439.13944 302.71237,442.20884 299.91093,438.94094 Z"
       id="path3798"
       inkscape:connector-curvature="0"
       transform="translate(0,161.53331)" />
  </g>
</svg>
