<?xml version="1.0" encoding="UTF-8" standalone="no"?>
<!-- Created with Inkscape (http://www.inkscape.org/) -->

<svg
   xmlns:dc="http://purl.org/dc/elements/1.1/"
   xmlns:cc="http://creativecommons.org/ns#"
   xmlns:rdf="http://www.w3.org/1999/02/22-rdf-syntax-ns#"
   xmlns:svg="http://www.w3.org/2000/svg"
   xmlns="http://www.w3.org/2000/svg"
   xmlns:sodipodi="http://sodipodi.sourceforge.net/DTD/sodipodi-0.dtd"
   xmlns:inkscape="http://www.inkscape.org/namespaces/inkscape"
   version="1.1"
   id="svg4102"
   width="512"
   height="512"
   viewBox="0 0 512 512"
   sodipodi:docname="U+8CCA.svg"
   inkscape:version="0.92.4 (5da689c313, 2019-01-14)">
  <metadata
     id="metadata4108">
    <rdf:RDF>
      <cc:Work
         rdf:about="">
        <dc:format>image/svg+xml</dc:format>
        <dc:type
           rdf:resource="http://purl.org/dc/dcmitype/StillImage" />
        <dc:title></dc:title>
      </cc:Work>
    </rdf:RDF>
  </metadata>
  <defs
     id="defs4106">
    <inkscape:path-effect
       effect="bspline"
       id="path-effect4122"
       is_visible="true"
       weight="33.333333"
       steps="2"
       helper_size="0"
       apply_no_weight="true"
       apply_with_weight="true"
       only_selected="false" />
    <inkscape:path-effect
       effect="bspline"
       id="path-effect4118"
       is_visible="true"
       weight="33.333333"
       steps="2"
       helper_size="0"
       apply_no_weight="true"
       apply_with_weight="true"
       only_selected="false" />
    <inkscape:path-effect
       effect="bspline"
       id="path-effect4114"
       is_visible="true"
       weight="33.333333"
       steps="2"
       helper_size="0"
       apply_no_weight="true"
       apply_with_weight="true"
       only_selected="false" />
  </defs>
  <sodipodi:namedview
     pagecolor="#ffffff"
     bordercolor="#666666"
     borderopacity="1"
     objecttolerance="10"
     gridtolerance="10"
     guidetolerance="10"
     inkscape:pageopacity="0"
     inkscape:pageshadow="2"
     inkscape:window-width="1920"
     inkscape:window-height="1017"
     id="namedview4104"
     showgrid="false"
     inkscape:zoom="0.69"
     inkscape:cx="256"
     inkscape:cy="285.76725"
     inkscape:window-x="-8"
     inkscape:window-y="-8"
     inkscape:window-maximized="1"
     inkscape:current-layer="svg4102" />
  <path
     style="fill:none;stroke:#000000;stroke-width:1px;stroke-linecap:butt;stroke-linejoin:miter;stroke-opacity:1"
     d="M 169.75342,82.7816 C 170.64556,82.644839 172.566,82.919187 175.58285,83.604849 178.5997,84.290511 182.71673,85.388385 185.66539,87.651193 188.61405,89.914001 190.39761,93.343931 189.64367,95.881632 188.88973,98.419332 185.59791,100.06524 182.85403,101.30003 180.11014,102.53483 177.91616,103.35757 176.81816,105.62169 175.72016,107.88581 175.72016,111.58748 176.68054,116.11517 177.64092,120.64285 179.56084,125.9912 181.61857,130.72403 183.67631,135.45687 185.87086,139.57166 187.58559,143.20683 189.30031,146.842 190.53478,149.99673 191.70101,146.77205 192.86725,143.54736 193.96446,133.94677 195.06198,127.84262 196.15951,121.73846 197.25703,119.13185 200.27391,118.03501 203.2908,116.93816 208.23136,117.34987 211.11139,119.06389 213.99143,120.77791 214.81463,123.7963 214.60897,127.70606 214.40332,131.61581 213.16903,136.41583 212.20864,141.56057 211.24826,146.70531 210.56255,152.19093 210.35673,157.95294 210.1509,163.71495 210.4252,169.74939 212.14006,175.23709 213.85493,180.7248 217.00944,185.66229 219.34142,189.57177 221.67341,193.48125 223.18225,196.36176 221.33015,195.19563 219.47806,194.0295 214.26612,188.81756 209.80794,184.2222 205.34976,179.62685 201.64606,175.64879 198.21668,171.67072 194.78731,167.69264 191.63227,163.71455 188.75161,159.05057 185.87094,154.38659 183.26455,149.03662 181.13842,143.54976 179.01229,138.06289 177.36606,132.43831 176.20014,128.04887 175.03421,123.65942 174.34826,120.50405 173.86824,115.70361 173.38823,110.90317 173.11382,104.45446 172.83945,100.20227 172.56509,95.95007 172.2907,93.892152 171.67356,91.560879 171.05643,89.229605 170.09582,86.622215 169.54715,85.044695 168.99848,83.467176 168.86128,82.91836 169.75342,82.7816 Z"
     id="path4112"
     inkscape:connector-curvature="0"
     inkscape:path-effect="#path-effect4114"
     inkscape:original-d="M 168.72428,82.37037 C 170.64572,82.643719 172.56616,82.918067 174.4856,83.193416 178.60002,84.289329 182.71705,85.387203 186.83128,86.485597 188.61524,89.913381 190.39881,93.343307 192.18107,96.773663 188.88953,98.418934 185.59771,100.06484 182.30453,101.71193 180.10994,102.53428 177.91595,103.35702 175.72016,104.18107 175.72116,107.88581 175.72116,111.58748 175.72016,115.29218 177.64212,120.64242 179.56204,125.99077 181.48148,131.34156 183.6775,135.45623 185.87206,139.57102 188.06584,143.68724 189.30152,146.84153 190.53598,149.99626 191.76955,153.15226 192.86812,143.54746 193.96533,133.94687 195.06173,124.34568 196.16,121.73867 197.25752,119.13206 198.35391,116.52675 203.29089,116.93708 208.23145,117.34879 213.16872,117.76132 213.99262,120.77759 214.81581,123.79598 215.63786,126.81481 214.40402,131.61599 213.16972,136.41601 211.93416,141.21811 211.24912,146.70542 210.56341,152.19104 209.87654,157.67901 210.15195,163.7149 210.42624,169.74934 210.69959,175.78601 213.85609,180.72406 217.0106,185.66155 220.16461,190.60082 221.6746,193.48063 223.18344,196.36114 224.69136,199.2428 219.47906,194.0285 214.26712,188.81656 209.0535,183.60494 205.35079,179.62589 201.64709,175.64783 197.94239,171.67078 194.78841,167.69177 191.63337,163.71368 188.47737,159.73663 185.87214,154.386 183.26575,149.03604 180.65844,143.68724 179.01347,138.06254 177.36726,132.43796 175.72016,126.81481 175.03537,123.65917 174.34942,120.5038 173.66255,117.34979 173.38927,110.90313 173.11485,104.45442 172.83951,98.00823 172.5662,95.949922 172.29181,93.892004 172.01646,91.835391 171.05764,89.22916 170.09702,86.621771 169.1358,84.016461 168.99966,83.466881 168.86245,82.918067 168.72428,82.37037 Z" />
  <path
     style="fill:none;stroke:#000000;stroke-width:1px;stroke-linecap:butt;stroke-linejoin:miter;stroke-opacity:1"
     d="M 243.00511,228.18561 C 244.03407,227.22557 245.26865,226.40252 249.79133,228.18421 254.31401,229.96591 262.14025,234.35958 266.04955,237.85688 269.95885,241.35417 269.95885,243.96059 270.43904,246.36182 270.91923,248.76306 271.87909,250.95701 276.7504,250.95686 281.62172,250.95671 290.39899,248.76239 295.40513,248.41945 300.41127,248.07651 301.646,249.58562 301.57764,252.12293 301.50928,254.66023 300.13764,258.2265 296.29605,260.83354 292.45446,263.44058 286.14658,265.08611 281.9625,266.86923 277.77842,268.65235 275.72119,270.57243 274.76049,278.39479 273.79978,286.21715 273.93689,299.92768 272.35943,312.89099 270.78197,325.85429 267.49003,338.06192 264.88369,346.77272 262.27735,355.48352 260.3571,360.69564 258.36821,363.64537 256.37933,366.5951 254.32219,367.28081 253.56733,363.57441 252.81246,359.86802 253.36084,351.77946 254.04669,344.30389 254.73254,336.82833 255.55569,329.96872 256.3101,323.93347 257.06451,317.89822 257.75049,312.68476 258.02476,307.95278 258.29903,303.22079 258.16183,298.96748 257.88749,295.26419 257.61315,291.5609 257.20153,288.40519 256.99583,285.73051 256.79012,283.05584 256.79012,280.86045 254.52828,279.76356 252.26644,278.66667 247.73763,278.66667 244.78763,277.36304 241.83764,276.05941 240.4662,273.45368 241.28961,270.57292 242.11303,267.69216 245.1313,264.5367 247.59996,263.23406 250.06863,261.93143 251.98969,262.4803 253.22407,262.06832 254.45846,261.65634 255.00735,260.28411 254.52756,257.74837 254.04777,255.21263 252.53752,251.50566 251.23449,248.96823 249.93147,246.43079 248.83392,245.05886 247.11945,243.41296 245.40497,241.76706 243.0728,239.84645 241.83815,237.78828 240.6035,235.73011 240.46633,233.53542 240.80954,231.88947 241.15275,230.24352 241.97614,229.14566 243.00511,228.18561 Z"
     id="path4116"
     inkscape:connector-curvature="0"
     inkscape:path-effect="#path-effect4118"
     inkscape:original-d="M 242.79835,228.04938 C 244.03392,227.22534 245.26849,226.40229 246.50206,225.58025 254.31468,229.96472 262.14092,234.3584 269.95885,238.74897 269.95985,241.35417 269.95985,243.96059 269.95885,246.5679 270.92044,248.76253 271.88029,250.95648 272.83951,253.15226 281.62154,250.956 290.39881,248.76169 299.17695,246.5679 300.41236,248.07562 301.64709,249.58473 302.88066,251.09465 301.50982,254.66044 300.13817,258.22671 298.76543,261.79424 292.45428,263.43989 286.1464,265.08542 279.83539,266.73251 277.77839,268.65231 275.72116,270.57239 273.66255,272.49383 273.80079,286.21714 273.9379,299.92767 274.07407,313.64609 270.78266,325.85448 267.49071,338.0621 264.19753,350.2716 262.27791,355.48373 260.35765,360.69584 258.43621,365.90947 256.37913,366.59449 254.32199,367.28021 252.26337,367.96708 252.81339,359.86808 253.36177,351.77952 253.90947,343.68724 254.7334,336.82843 255.55656,329.96882 256.3786,323.11111 257.06536,317.89833 257.75134,312.68487 258.43621,307.47325 258.30007,303.22076 258.16287,298.96745 258.02469,294.71605 257.61426,291.56076 257.20265,288.40504 256.79012,285.25103 256.79112,283.05584 256.79112,280.86045 256.79012,278.66667 252.26644,278.66567 247.73763,278.66567 243.20988,278.66667 241.83883,276.05878 240.46739,273.45305 239.09465,270.84774 242.11305,267.69218 245.13132,264.53672 248.14815,261.38272 250.06897,261.93024 251.99003,262.47911 253.90947,263.02881 254.45897,261.65654 255.00786,260.28432 255.55556,258.91358 254.04897,255.21214 252.53872,251.50517 251.02881,247.80247 249.93256,246.42992 248.83502,245.05798 247.73663,243.68724 245.40587,241.76597 243.0737,239.84536 240.74074,237.92593 240.60456,235.73004 240.46739,233.53535 240.32922,231.34156 241.15291,230.24364 241.97631,229.14578 242.79835,228.04938 Z" />
  <path
     style="fill:none;stroke:#000000;stroke-width:1px;stroke-linecap:butt;stroke-linejoin:miter;stroke-opacity:1"
     d="M 291.08457,152.53405 C 289.57595,153.97464 287.38116,155.20921 281.48004,156.51299 275.57892,157.81677 265.98192,159.18777 259.05441,160.90235 252.1269,162.61694 247.875,164.67432 244.85663,165.42908 241.83826,166.18385 240.0555,165.63531 243.07449,168.24261 246.09348,170.84991 253.90964,176.60918 260.49443,177.63757 267.07921,178.66596 272.42913,174.96217 275.58393,172.56161 278.73872,170.16104 279.69915,169.06341 281.54981,168.03539 283.40047,167.00737 286.1466,166.04622 288.20335,166.18336 290.26009,166.3205 291.63243,167.5556 293.55269,171.9447 295.47295,176.33379 297.94219,183.87868 300.75438,191.62939 303.56657,199.38009 306.72133,207.33556 309.12194,214.33156 311.52255,221.32756 313.16853,227.36283 315.15768,232.91879 317.14683,238.47475 319.47853,243.54962 321.60483,247.80223 323.73112,252.05484 325.65139,255.48389 327.43474,258.63904 329.21809,261.7942 330.86402,264.67458 331.68715,266.9377 332.51029,269.20083 332.51029,270.84674 333.12786,272.76818 333.74542,274.68962 334.97923,276.88307 333.12744,282.37028 331.27564,287.85748 326.33812,296.6353 322.8401,302.53402 319.34207,308.43273 317.28474,311.45016 314.95223,315.22329 312.61972,318.99643 310.0144,323.52145 306.65326,327.77447 303.29213,332.02749 299.17797,336.00451 296.3656,339.09112 293.55323,342.17772 292.04469,344.37196 291.56422,346.0873 291.08376,347.80265 291.63217,349.03657 295.26925,348.55609 298.90633,348.0756 305.62534,345.88164 310.49462,343.06954 315.3639,340.25744 318.38228,336.82748 320.91955,333.26146 323.45682,329.69543 325.51507,325.99058 327.57235,322.28747 329.62963,318.58436 331.6879,314.87947 334.22535,311.72502 336.76279,308.57056 339.78159,305.96341 342.18133,305.41495 344.58108,304.86648 346.36497,306.37593 351.09716,313.91997 355.82934,321.46401 363.51148,335.04494 367.62675,344.09822 371.74203,353.1515 372.29071,357.67814 374.8289,362.34294 377.3671,367.00775 381.89298,371.80792 385.18508,376.06018 388.47719,380.31244 390.53479,384.01612 392.7297,387.65145 394.92461,391.28678 397.25636,394.85298 406.10472,403.70134 414.95308,412.54969 430.31555,426.67768 439.30095,433.67352 448.28636,440.66935 450.89268,440.53218 453.08676,437.44641 455.28084,434.36064 457.06483,428.32254 457.95628,421.9447 458.84774,415.56686 458.84774,408.84399 458.57334,404.45473 458.29894,400.06546 457.75016,398.00754 457.27018,394.03035 456.7902,390.05316 456.37854,384.15271 456.10416,380.86066 455.82977,377.56861 455.69258,376.88263 453.70627,378.59487 451.71995,380.30711 447.87477,384.42695 446.09101,387.85672 444.30725,391.28649 444.58153,394.02929 443.27843,395.33289 441.97532,396.63649 439.0956,396.49936 435.59656,394.78417 432.09753,393.06897 427.98366,389.77788 424.69155,387.44594 421.39944,385.114 418.93038,383.7423 414.95185,380.92989 410.97332,378.11749 405.48711,373.86568 401.71463,369.95595 397.94215,366.04623 395.88459,362.47979 394.16996,359.18768 392.45534,355.89557 391.08347,352.87746 389.02607,348.83125 386.96867,344.78504 384.22477,339.70884 380.79556,333.53626 377.36636,327.36369 373.25084,320.09295 370.23304,314.46885 367.21525,308.84475 365.29472,304.86652 363.64871,301.5059 362.00269,298.14529 360.6308,295.40152 359.60204,293.00102 358.57329,290.60052 357.88732,288.54261 357.47582,287.37677 357.06431,286.21093 356.9271,285.9365 357.81751,278.95026 358.70792,271.96401 360.63116,258.22659 362.89461,248.41883 365.15807,238.61107 367.76459,232.7121 367.90164,227.22603 368.03868,221.73996 365.70624,216.66347 363.58013,212.20551 361.45402,207.74754 359.53341,203.90632 357.33911,201.50612 355.14482,199.10593 352.67543,198.14561 350.75477,197.32249 348.83412,196.49937 347.46268,195.81365 347.39399,198.14592 347.32529,200.4782 348.5595,205.82643 349.45122,211.45089 350.34293,217.07535 350.89155,222.97304 350.54875,227.91147 350.20594,232.8499 348.97157,236.82734 347.60001,239.22828 346.22845,241.62923 344.71998,242.45203 342.11152,237.16634 339.50305,231.88066 335.80227,220.50419 333.40178,213.98865 331.00128,207.47311 329.90382,205.82693 328.94366,202.80913 327.9835,199.79132 327.16035,195.40113 326.06306,190.53197 324.96577,185.66281 323.59379,180.31206 322.56505,175.30544 321.53632,170.29882 320.85036,165.63428 320.91935,162.75358 320.98834,159.87288 321.81153,158.77529 323.11396,157.81577 324.41639,156.85625 326.20148,156.03237 329.01217,155.55256 331.82285,155.07276 335.66632,154.93549 340.94672,153.35814 346.22711,151.78079 352.95045,148.76215 356.6541,147.11611 360.35774,145.47008 361.04373,145.19568 365.83697,143.75771 370.63022,142.31974 379.56224,139.70884 382.85388,136.00542 386.14551,132.30201 383.81324,127.50027 381.55017,124.34561 379.28709,121.19095 377.09212,119.68191 373.93705,118.03576 370.78197,116.38961 366.66715,114.60652 362.14047,115.01778 357.6138,115.42903 352.67609,118.03504 348.0802,120.98457 343.48431,123.93409 339.23293,127.22548 335.46024,129.90071 331.68755,132.57594 328.39623,134.63301 324.82904,136.2795 321.26184,137.92598 317.42232,139.16011 315.02144,139.70904 312.62057,140.25796 311.66065,140.12083 310.97415,136.75666 310.28765,133.39249 309.87648,126.81388 308.77916,122.0819 307.68184,117.34993 305.89832,114.46886 304.80095,112.13676 303.70358,109.80465 303.29202,108.02122 301.44149,107.40409 299.59096,106.78696 296.29743,107.33588 294.10213,108.98194 291.90683,110.628 290.80981,113.37053 289.91806,115.49707 289.02631,117.6236 288.34074,119.13186 287.24278,121.3278 286.14482,123.52374 284.63712,126.40209 283.19657,128.87168 281.75603,131.34127 280.38486,133.39803 279.08156,134.56453 277.77826,135.73103 276.54437,136.00523 273.66157,136.55434 270.77876,137.10345 266.25628,137.92572 266.80545,139.16069 267.35461,140.39567 272.97733,142.04134 277.22984,142.24682 281.48235,142.4523 284.36335,141.21759 286.4204,140.80634 288.47745,140.39509 289.71253,140.80679 290.87784,142.10911 292.04316,143.41143 293.14109,145.60728 293.27859,147.52747 293.41609,149.44766 292.59319,151.09345 291.08457,152.53405 Z"
     id="path4120"
     inkscape:connector-curvature="0"
     inkscape:path-effect="#path-effect4122"
     inkscape:original-d="M 291.76955,152.74074 C 289.57576,153.97431 287.38097,155.20888 285.18519,156.44444 275.5788,157.81593 265.9818,159.18693 256.3786,160.55967 252.1267,162.61652 247.8748,164.6739 243.6214,166.73251 241.83863,166.18266 240.05587,165.63412 238.2716,165.08642 246.09431,170.84878 253.91047,176.60805 261.7284,182.37037 267.07907,178.66575 272.42898,174.96196 277.77778,171.25926 278.73879,170.1611 279.69922,169.06347 280.65844,167.96708 283.40027,167.00679 286.1464,166.04564 288.88889,165.08642 290.26103,166.31945 291.63337,167.55456 293.00412,168.79012 295.47415,176.3334 297.94339,183.87829 300.41152,191.42387 303.56778,199.37961 306.72254,207.33508 309.87654,215.29218 311.52374,221.32724 313.16972,227.36251 314.81481,233.39918 317.14804,238.47419 319.47974,243.54907 321.8107,248.62551 323.73231,252.05417 325.65258,255.48322 327.57202,258.91358 329.21927,261.79352 330.8652,264.6739 332.51029,267.55556 332.51129,269.20083 332.51129,270.84674 332.51029,272.49383 333.74661,274.68895 334.98042,276.8824 336.21399,279.07819 331.27597,287.85767 326.33845,296.63549 321.39918,305.41564 319.34229,308.43288 317.28495,311.4503 315.22634,314.46914 312.62004,318.99661 310.01472,323.52163 307.40741,328.04938 303.29211,332.02747 299.17795,336.00449 295.06173,339.98354 293.55344,342.17787 292.0449,344.37211 290.53498,346.5679 291.08496,347.80211 291.63337,349.03604 292.18107,350.2716 298.90613,348.07499 305.62514,345.88103 312.34568,343.68724 315.36397,340.2575 318.38234,336.82753 321.39918,333.39918 323.45715,329.69562 325.5154,325.99077 327.57202,322.28807 329.62997,318.58455 331.68824,314.87966 333.74486,311.17695 336.76272,308.57048 339.78152,305.96333 342.79835,303.35802 344.58199,304.86541 346.36588,306.37486 348.14815,307.88477 355.83052,321.46334 363.51266,335.04427 371.19342,348.62551 371.74313,353.15137 372.29181,357.67801 372.83951,362.20576 377.36812,367.00678 381.894,371.80696 386.41975,376.60905 388.47838,380.31178 390.53598,384.01546 392.59259,387.72016 394.92577,391.28602 397.25752,394.85222 399.58848,398.41975 414.95403,412.54866 430.3165,426.67664 445.67901,440.80658 448.28631,440.66841 450.89263,440.53124 453.49794,440.39506 455.28149,434.36083 457.06547,428.32273 458.84774,422.28807 458.84874,415.56686 458.84874,408.84399 458.84774,402.12346 458.30012,400.06515 457.75134,398.00723 457.20165,395.95062 456.79126,390.05309 456.3796,384.15264 455.96708,378.25514 455.83093,377.56838 455.69373,376.8824 455.55556,376.19753 451.71999,380.30714 447.8748,384.42698 444.03292,388.54321 444.30834,391.28638 444.58262,394.02918 444.85597,396.77366 441.97537,396.63544 439.09565,396.49831 436.21399,396.36214 432.09841,393.06787 427.98454,389.77678 423.86831,386.4856 421.4001,385.11281 418.93104,383.74111 416.46091,382.37037 410.97418,378.11638 405.48797,373.86457 400,369.61317 397.94333,366.04555 395.88577,362.47911 393.82716,358.91358 392.45654,355.89502 391.08468,352.87691 389.71193,349.86008 386.96986,344.7844 384.22597,339.70819 381.48148,334.63374 377.36754,327.36302 373.25203,320.09228 369.1358,312.82305 367.21645,308.84417 365.29592,304.86594 363.37449,300.88889 362.00389,298.14469 360.632,295.40092 359.25926,292.65844 358.57449,290.60012 357.88852,288.54221 357.20165,286.4856 357.06551,286.21033 356.9283,285.9359 356.79012,285.66255 358.70876,271.96413 360.632,258.22671 362.55144,244.51029 365.15854,238.61128 367.76506,232.71231 370.37037,226.81481 368.03989,221.73941 365.70745,216.66292 363.37449,211.58848 361.45522,207.74694 359.53461,203.90572 357.61317,200.06584 355.14529,199.10472 352.6759,198.1444 350.20576,197.18519 348.83472,196.49817 347.46328,195.81244 346.09053,195.12757 347.32646,200.47793 348.56067,205.82616 349.79424,211.17695 350.34401,217.07525 350.89263,222.97294 351.44033,228.87243 350.20657,232.85009 348.97219,236.82753 347.73663,240.80658 346.22826,241.62888 344.71979,242.45167 343.20988,243.27572 339.50425,231.88027 335.80347,220.5038 332.09877,209.11934 331.00243,207.47234 329.90498,205.82616 328.80658,204.18107 327.98465,199.79111 327.16149,195.40092 326.33745,191.01235 324.96695,185.66251 323.59496,180.31176 322.22222,174.96296 321.53744,170.29865 320.85148,165.63412 320.16461,160.97119 320.98851,159.873 321.8117,158.77541 322.63374,157.67901 324.41619,156.85581 326.20127,156.03192 327.98354,155.20988 331.82282,155.0718 335.66629,154.93453 339.50617,154.79835 346.2269,151.78033 352.95025,148.76169 359.67078,145.74486 360.35753,145.46956 361.04352,145.19516 361.7284,144.92181 370.63003,142.31909 379.56205,139.70819 388.47737,137.10288 386.14672,132.30142 383.81444,127.49969 381.48148,122.69959 379.28788,121.1898 377.09291,119.68076 374.89712,118.17284 370.7825,116.3884 366.66767,114.60531 362.55144,112.82305 357.6136,115.42866 352.6759,118.03467 347.73663,120.64198 343.4842,123.93395 339.23282,127.22534 334.97942,130.51852 331.68738,132.57567 328.39606,134.63274 325.10288,136.69136 321.26164,137.92536 317.42212,139.15949 313.58025,140.39506 312.62073,140.25684 311.66081,140.11971 310.69959,139.98354 310.28871,133.39242 309.87754,126.81381 309.46502,120.23045 307.68301,117.3492 305.89949,114.46814 304.11523,111.58848 303.70474,109.80438 303.29318,108.02095 302.88066,106.23868 299.59083,106.78616 296.2973,107.33508 293.00412,107.88477 291.90734,110.6282 290.81033,113.37074 289.71193,116.11523 289.02676,117.62381 288.34119,119.13206 287.65432,120.64198 286.1452,123.52394 284.63749,126.40229 283.12757,129.28395 281.75626,131.34142 280.38509,133.39818 279.01235,135.45679 277.77809,135.73029 276.54421,136.00449 275.30864,136.27984 270.77862,137.10266 266.25614,137.92493 261.7284,138.74897 267.35496,140.39448 272.97768,142.04015 278.60082,143.68724 281.48215,142.45182 284.36314,141.21711 287.2428,139.98354 288.47785,140.39389 289.71293,140.80558 290.9465,141.21811 292.04436,143.41083 293.14229,145.60668 294.23868,147.80247 293.41649,149.44786 292.59359,151.09365 291.76955,152.74074 Z" />
  <path
     style="stroke-width:1.44927537"
     d="M 210.0377,160.58058 C 210.04858,156.59507 210.33004,155.13665 210.66316,157.33963 210.99628,159.54262 210.98738,162.80349 210.64338,164.58601 210.29938,166.36853 210.02682,164.56608 210.0377,160.58058 Z"
     id="path4124"
     inkscape:connector-curvature="0" />
  <path
     style="stroke-width:1.44927537"
     d="M 205.39203,177.67455 C 193.28722,164.50228 186.41225,153.84661 181.36251,140.43068 175.86908,125.83599 177.10125,124.28433 183.48767,137.75449 191.19492,154.01052 192.02969,153.77908 195.24876,134.49362 197.48962,121.0686 198.55302,119.27134 204.2394,119.29842 213.36845,119.3419 214.64464,122.65671 211.63406,138.50549 208.52106,154.8934 209.33706,173.05045 213.567,181.51599 215.33755,185.05945 216.55831,188.18652 216.2798,188.46503 216.00129,188.74354 211.10179,183.88782 205.39203,177.67455 Z"
     id="path4126"
     inkscape:connector-curvature="0" />
  <path
     style="stroke-width:1.44927537"
     d="M 174.28465,101.16029 C 173.77463,97.971881 172.78555,92.850558 172.08667,89.779568 L 170.816,84.195951 175.18336,85.069423 C 177.58541,85.549833 179.9984,85.942896 180.54556,85.942896 181.09272,85.942896 182.96772,87.272649 184.71223,88.897903 189.53029,93.386605 188.73585,97.043637 182.22064,100.36745 179.10577,101.95654 176.25454,104.08936 175.88459,105.10705 175.51464,106.12473 174.79467,104.34869 174.28465,101.16029 Z"
     id="path4128"
     inkscape:connector-curvature="0" />
  <path
     style="stroke-width:1.44927537"
     d="M 439.89296,432.3293 C 424.53371,420.78859 400.81748,397.24335 393.36309,386.13492 389.28046,380.05104 383.73083,372.35111 381.03058,369.02395 378.33032,365.69679 374.16074,357.87071 371.76483,351.63265 366.85547,338.85045 357.00283,320.16658 350.30775,310.9429 342.63642,300.37424 336.54533,303.51485 325.13206,323.92369 317.19944,338.10853 304.60083,347.63321 295.2505,346.51448 291.85831,346.10861 292.07741,345.66432 299.74927,337.39217 308.91057,327.51404 323.55929,304.9604 331.02617,289.23727 335.91063,278.952 336.00758,278.4134 334.16134,271.81932 333.11352,268.07684 329.165,259.12581 325.38687,251.92813 321.60873,244.73045 315.6035,230.36319 312.0419,220.00087 304.05725,196.76984 296.06703,174.93379 293.61338,169.63855 290.94368,163.87704 284.9525,164.32465 275.24435,171.0109 269.723,174.8136 266.01439,176.32765 262.4674,176.2271 256.91124,176.06961 243.41567,168.90178 245.34852,167.13484 247.39484,165.26417 260.34658,161.57205 273.19719,159.19607 279.86579,157.9631 286.97487,156.13979 288.99514,155.14426 293.71718,152.81738 295.38353,148.21976 293.12083,143.76112 291.50521,140.57755 290.62187,140.32929 282.43324,140.75738 271.74339,141.31624 265.68068,139.07026 273.77838,137.55112 279.95218,136.39291 281.17563,135.02848 288.6087,121.01197 292.33245,113.9901 295.60312,109.65671 297.75352,108.89578 300.77169,107.82779 301.43674,108.45874 304.50945,115.3053 306.38396,119.48206 308.34446,126.19148 308.86612,130.2151 309.38778,134.23873 310.36217,138.4168 311.03144,139.49971 313.20889,143.0229 324.97153,138.32713 340.825,127.6058 358.2066,115.85103 363.81386,114.39018 373.19039,119.17373 377.07635,121.1562 380.14978,124.09246 381.66517,127.27028 383.89725,131.951 383.88378,132.43207 381.44518,135.1267 380.01646,136.70541 375.5003,139.09138 371.40926,140.42884 367.31823,141.7663 358.68107,145.03193 352.21558,147.68579 345.7501,150.33966 337.59792,152.94996 334.09964,153.48648 323.944,155.044 319.76812,157.76251 319.76812,162.81632 319.76812,171.46072 327.23026,201.37258 333.64939,218.45919 343.1852,243.84183 345.64848,246.78168 349.55221,237.43872 352.03369,231.49971 352.2538,220.16451 350.11257,208.58152 349.26578,204.00084 348.79225,199.59513 349.06027,198.79106 350.0326,195.87408 357.65765,203.82965 361.85057,212.13577 367.0587,222.45301 367.14879,226.37554 362.61939,245.60949 360.68035,253.84359 358.30349,266.62511 357.33748,274.0129 L 355.58111,287.4452 363.72842,303.72304 C 385.61502,347.45111 396.49509,366.35763 403.53709,372.89942 413.92729,382.55158 437.0968,397.75365 440.64154,397.24455 442.58207,396.96584 444.75548,394.47959 446.76419,390.24053 448.47699,386.62597 450.89112,382.82808 452.12891,381.80081 454.0782,380.18304 454.52636,380.67478 455.47681,385.47419 456.08035,388.52184 456.60325,399.16753 456.63881,409.1313 456.70662,428.1322 454.31564,438.11681 449.69774,438.11681 448.54145,438.11681 444.12929,435.51243 439.89296,432.3293 Z"
     id="path4130"
     inkscape:connector-curvature="0" />
  <path
     style="stroke-width:1.44927537"
     d="M 254.56332,356.59507 C 254.57024,352.41029 255.54284,340.8342 256.72464,330.87043 258.99587,311.72167 259.51717,292.29687 257.96775,284.54978 257.02961,279.85907 254.85061,278.28704 246.94203,276.5953 243.98089,275.96187 242.95652,274.87633 242.95652,272.37179 242.95652,268.67825 245.87117,265.68379 252.01449,263.06579 254.20652,262.13165 256,260.35417 256,259.11582 256,255.07889 252.18047,247.66586 246.78984,241.24056 241.02632,234.37078 240.41699,232.13018 243.59498,229.49268 248.26726,225.61503 267.90599,238.58879 269.51089,246.61328 270.58727,251.99519 273.57153,252.69973 287.19448,250.78811 294.85395,249.71331 298.60696,249.70927 299.67237,250.77468 302.66682,253.76914 297.90239,258.62926 287.18417,263.51371 281.3579,266.16883 276.11843,269.10575 275.54091,270.0402 274.96339,270.97464 273.57232,282.75228 272.44965,296.21273 270.40513,320.7258 266.64893,339.30733 260.39003,355.87043 258.65808,360.45377 256.6357,364.20377 255.89587,364.20377 255.15604,364.20377 254.55639,360.77985 254.56332,356.59507 Z"
     id="path4132"
     inkscape:connector-curvature="0" />
</svg>
