<?xml version="1.0" encoding="UTF-8" standalone="no"?>
<!-- Created with Inkscape (http://www.inkscape.org/) -->

<svg
   xmlns:dc="http://purl.org/dc/elements/1.1/"
   xmlns:cc="http://creativecommons.org/ns#"
   xmlns:rdf="http://www.w3.org/1999/02/22-rdf-syntax-ns#"
   xmlns:svg="http://www.w3.org/2000/svg"
   xmlns="http://www.w3.org/2000/svg"
   xmlns:sodipodi="http://sodipodi.sourceforge.net/DTD/sodipodi-0.dtd"
   xmlns:inkscape="http://www.inkscape.org/namespaces/inkscape"
   version="1.1"
   id="svg4006"
   width="512"
   height="512"
   viewBox="0 0 512 512"
   sodipodi:docname="U+9A64.svg"
   inkscape:version="0.92.4 (5da689c313, 2019-01-14)">
  <metadata
     id="metadata4012">
    <rdf:RDF>
      <cc:Work
         rdf:about="">
        <dc:format>image/svg+xml</dc:format>
        <dc:type
           rdf:resource="http://purl.org/dc/dcmitype/StillImage" />
        <dc:title></dc:title>
      </cc:Work>
    </rdf:RDF>
  </metadata>
  <defs
     id="defs4010">
    <inkscape:path-effect
       effect="bspline"
       id="path-effect4074"
       is_visible="true"
       weight="33.333333"
       steps="2"
       helper_size="0"
       apply_no_weight="true"
       apply_with_weight="true"
       only_selected="false" />
    <inkscape:path-effect
       effect="bspline"
       id="path-effect4070"
       is_visible="true"
       weight="33.333333"
       steps="2"
       helper_size="0"
       apply_no_weight="true"
       apply_with_weight="true"
       only_selected="false" />
    <inkscape:path-effect
       effect="bspline"
       id="path-effect4066"
       is_visible="true"
       weight="33.333333"
       steps="2"
       helper_size="0"
       apply_no_weight="true"
       apply_with_weight="true"
       only_selected="false" />
    <inkscape:path-effect
       effect="bspline"
       id="path-effect4062"
       is_visible="true"
       weight="33.333333"
       steps="2"
       helper_size="0"
       apply_no_weight="true"
       apply_with_weight="true"
       only_selected="false" />
    <inkscape:path-effect
       effect="bspline"
       id="path-effect4058"
       is_visible="true"
       weight="33.333333"
       steps="2"
       helper_size="0"
       apply_no_weight="true"
       apply_with_weight="true"
       only_selected="false" />
    <inkscape:path-effect
       effect="bspline"
       id="path-effect4054"
       is_visible="true"
       weight="33.333333"
       steps="2"
       helper_size="0"
       apply_no_weight="true"
       apply_with_weight="true"
       only_selected="false" />
    <inkscape:path-effect
       effect="bspline"
       id="path-effect4050"
       is_visible="true"
       weight="33.333333"
       steps="2"
       helper_size="0"
       apply_no_weight="true"
       apply_with_weight="true"
       only_selected="false" />
    <inkscape:path-effect
       effect="bspline"
       id="path-effect4046"
       is_visible="true"
       weight="33.333333"
       steps="2"
       helper_size="0"
       apply_no_weight="true"
       apply_with_weight="true"
       only_selected="false" />
    <inkscape:path-effect
       effect="bspline"
       id="path-effect4042"
       is_visible="true"
       weight="33.333333"
       steps="2"
       helper_size="0"
       apply_no_weight="true"
       apply_with_weight="true"
       only_selected="false" />
    <inkscape:path-effect
       effect="bspline"
       id="path-effect4030"
       is_visible="true"
       weight="33.333333"
       steps="2"
       helper_size="0"
       apply_no_weight="true"
       apply_with_weight="true"
       only_selected="false" />
    <inkscape:path-effect
       effect="bspline"
       id="path-effect4026"
       is_visible="true"
       weight="33.333333"
       steps="2"
       helper_size="0"
       apply_no_weight="true"
       apply_with_weight="true"
       only_selected="false" />
    <inkscape:path-effect
       effect="bspline"
       id="path-effect4022"
       is_visible="true"
       weight="33.333333"
       steps="2"
       helper_size="0"
       apply_no_weight="true"
       apply_with_weight="true"
       only_selected="false" />
    <inkscape:path-effect
       effect="bspline"
       id="path-effect4018"
       is_visible="true"
       weight="33.333333"
       steps="2"
       helper_size="0"
       apply_no_weight="true"
       apply_with_weight="true"
       only_selected="false" />
  </defs>
  <sodipodi:namedview
     pagecolor="#ffffff"
     bordercolor="#666666"
     borderopacity="1"
     objecttolerance="10"
     gridtolerance="10"
     guidetolerance="10"
     inkscape:pageopacity="0"
     inkscape:pageshadow="2"
     inkscape:window-width="1920"
     inkscape:window-height="1017"
     id="namedview4008"
     showgrid="false"
     inkscape:zoom="0.61"
     inkscape:cx="256"
     inkscape:cy="241.01023"
     inkscape:window-x="-8"
     inkscape:window-y="-8"
     inkscape:window-maximized="1"
     inkscape:current-layer="svg4006" />
  <path
     style="fill:none;stroke:#000000;stroke-width:1px;stroke-linecap:butt;stroke-linejoin:miter;stroke-opacity:1"
     d="M 114.81538,87.445822 C 119.20544,86.759886 128.94481,86.211189 137.24355,84.153487 145.5423,82.095785 152.40175,78.52887 156.85973,76.26561 161.31772,74.002351 163.37569,73.041961 168.10597,72.287906 172.83624,71.53385 180.24798,70.984832 186.96912,68.584227 193.69026,66.183622 199.72679,61.930612 204.5956,61.382053 209.46441,60.833495 213.16881,63.989096 212.27775,67.760861 211.38669,71.532627 205.89959,75.922304 201.44107,78.254689 196.98255,80.587074 193.55388,80.861368 189.43794,81.410139 185.322,81.958909 180.5224,82.781698 176.61259,84.153393 172.70278,85.525089 169.68566,87.445075 167.97044,89.434291 166.25522,91.423508 165.84385,93.480328 166.11826,96.087781 166.39266,98.695235 167.35235,101.84847 167.96969,104.2491 168.58703,106.64973 168.86132,108.29549 168.99856,111.10844 169.1358,113.9214 169.1358,117.89749 168.86151,121.12131 168.58722,124.34513 168.03867,126.81364 167.55844,129.14613 167.07821,131.47862 166.66688,133.67238 169.20653,133.39759 171.74618,133.12279 177.23028,130.38074 182.23659,128.80354 187.24289,127.22633 191.77063,126.81471 194.71943,126.88339 197.66823,126.95206 199.0403,127.50089 201.78301,128.59797 204.52572,129.69506 208.6425,131.34177 210.22005,133.32994 211.7976,135.31811 210.83726,137.65037 205.96561,139.36587 201.09396,141.08136 192.31935,142.17819 186.21493,143.48124 180.11051,144.78429 176.68159,146.29302 173.25157,147.18493 169.82154,148.07683 166.39339,148.35108 164.54113,148.96796 162.68887,149.58484 162.41461,150.54476 162.48324,153.35986 162.55187,156.17497 162.96289,160.83311 163.03156,164.26258 163.10022,167.69205 162.82593,169.88641 162.41442,171.73859 162.0029,173.59077 161.45448,175.09893 161.1113,177.29495 160.76812,179.49096 160.63105,182.36932 160.42527,185.3191 160.21948,188.26888 159.94523,191.28561 160.63193,192.58909 161.31864,193.89257 162.96414,193.48119 165.43211,192.45282 167.90008,191.42445 171.19462,189.77718 175.37744,188.7487 179.56026,187.72023 184.63756,187.30856 187.58679,186.96549 190.53601,186.62243 191.35922,186.34802 193.75643,187.37542 196.15363,188.40281 200.13748,190.73818 202.19487,192.31515 204.25226,193.89213 204.38944,194.71524 203.63472,196.01916 202.87999,197.32308 201.23553,199.10458 197.32432,200.20258 193.4131,201.30058 187.24386,201.71187 183.47152,202.12328 179.69917,202.53469 178.32766,202.94614 176.54345,203.63234 174.75924,204.31855 172.56637,205.27793 170.64546,206.23834 168.72455,207.19874 167.07937,208.15843 165.56997,208.98177 164.06057,209.8051 162.68981,210.49048 161.11123,212.61794 159.53265,214.7454 157.75094,218.30881 156.65325,221.80738 155.55555,225.30595 155.14417,228.73415 154.59538,232.5757 154.0466,236.41725 153.36095,240.66828 153.01793,244.09804 152.6749,247.52781 152.6749,250.13343 154.45926,251.7116 156.24363,253.28977 159.80879,253.83826 164.40359,253.90679 168.99839,253.97532 174.62384,253.56371 178.46458,253.08353 182.30532,252.60335 184.36332,252.05455 186.35177,251.64319 188.34021,251.23182 190.26175,250.95732 192.11284,251.09451 193.96392,251.2317 195.74823,251.78072 197.39374,252.80916 199.03924,253.8376 200.54869,255.34705 201.989,256.85595 203.42931,258.36484 204.80105,259.87375 206.03556,261.72547 207.27007,263.57718 208.36743,265.77189 209.32776,269.95604 210.2881,274.14019 211.111,280.31191 210.97395,285.59326 210.83691,290.8746 209.73967,295.26357 208.162,299.85953 206.58433,304.4555 204.52727,309.25531 203.01814,313.37098 201.50901,317.48665 200.54903,320.91513 199.58861,324.75676 198.62819,328.59838 197.6683,332.84931 196.50225,336.62203 195.3362,340.39475 193.96484,343.68603 192.52425,346.97882 191.08367,350.2716 189.57531,353.56258 187.99749,357.12981 186.41967,360.69704 184.77418,364.53651 183.47086,367.6233 182.16754,370.71009 181.20763,373.04131 180.10991,375.71699 179.0122,378.39267 177.77827,381.40894 176.81794,383.67262 175.85761,385.9363 175.17202,387.44461 173.86819,389.70921 172.56436,391.97382 170.64546,394.98923 169.61646,396.70397 168.58745,398.41871 168.45033,398.83008 166.93739,401.30583 165.42444,403.78159 162.55218,408.29514 160.63116,408.77503 158.71013,409.25492 157.75016,405.68931 155.48714,401.36905 153.22413,397.04879 149.65692,391.97237 146.98203,387.23979 144.30713,382.50721 142.5238,378.11746 140.60348,373.79677 138.68316,369.47607 136.62531,365.22317 135.11646,361.10799 133.6076,356.99281 132.64729,353.01437 134.56739,353.28869 136.4875,353.563 141.28947,358.09056 145.47332,361.72571 149.65718,365.36086 153.22373,368.10436 155.69332,369.40741 158.1629,370.71046 159.5347,370.57328 161.7968,369.06508 164.05889,367.55689 167.2164,364.67395 169.20505,362.34215 171.1937,360.01036 172.01702,358.22651 174.00501,354.25054 175.99299,350.27458 179.15013,344.09757 181.48181,338.33678 183.81349,332.57598 185.3227,327.22515 187.4489,323.04174 189.5751,318.85834 192.31919,315.83984 194.78774,311.794 197.25628,307.74815 199.45183,302.67095 200.54896,299.17334 201.64609,295.67573 201.64609,293.75483 201.02907,288.61306 200.41204,283.47129 199.17683,275.0993 194.65094,270.23017 190.12504,265.36104 182.30533,263.98916 177.64143,263.30322 172.97753,262.61728 171.46876,262.61728 168.72396,262.61728 165.97916,262.61728 162.00374,262.61728 158.23109,263.71459 154.45844,264.8119 150.8928,267.00614 147.87457,268.85824 144.85633,270.71034 142.38801,272.21877 140.05554,273.31649 137.72307,274.41422 135.52932,275.09977 131.48101,275.64872 127.43269,276.19768 121.53742,276.60898 116.73605,277.77486 111.93469,278.94074 108.23165,280.86083 105.07617,282.85007 101.9207,284.8393 99.31523,286.89625 96.090559,287.23943 92.865887,287.58261 89.026633,286.21145 84.842275,283.81061 80.657916,281.40976 76.131843,277.98091 74.623307,275.30537 73.114771,272.62983 74.623638,270.70946 76.200436,270.16118 77.777234,269.61289 79.424267,270.43641 81.276185,269.88737 83.128104,269.33832 85.186218,267.41742 86.694626,265.29168 88.203033,263.16594 89.163734,260.83281 89.84934,258.36439 90.534945,255.89597 90.946681,253.28831 91.152353,250.27129 91.358025,247.25426 91.358025,243.82342 90.946532,240.53185 90.535038,237.24028 89.711755,234.08436 89.368898,223.86661 89.026041,213.64887 89.163246,196.36113 87.448677,186.00509 85.734108,175.64905 82.167374,172.2195 79.149479,168.99583 76.131583,165.77216 73.662462,162.75435 73.868716,161.24549 74.07497,159.73663 76.955733,159.73663 79.493173,159.39363 82.030613,159.05062 84.226163,158.36451 85.802918,155.55339 87.379673,152.74228 88.340416,147.80132 88.957626,144.23507 89.574835,140.66881 89.849248,138.47351 89.91779,133.94856 89.986332,129.42361 89.849089,122.56143 89.711867,118.7207 89.574645,114.87997 89.43745,114.0568 88.957738,113.02889 88.478025,112.00099 87.654167,110.7652 85.734058,108.43364 83.813949,106.10208 80.79555,102.67208 79.904172,99.379365 79.012793,96.086647 80.247385,92.931578 81.618979,90.188562 82.990572,87.445547 84.500065,85.112694 86.488521,82.301462 88.476977,79.490231 90.947342,76.196411 92.662029,74.276287 94.376715,72.356163 95.337262,71.807279 95.26886,74.61531 95.200459,77.423341 94.101712,83.603796 93.278714,87.513385 92.455717,91.422973 91.907122,93.068759 91.495414,94.578198 91.083707,96.087637 90.809558,97.45838 91.907797,99.998121 93.006035,102.53786 95.473095,106.23845 97.050634,110.28493 98.628173,114.33142 99.314001,118.72072 99.657,123.04201 100,127.36331 100,131.61491 100.13717,135.52484 100.27434,139.43476 100.54863,143.00045 100.75441,145.74418 100.96019,148.48791 101.09733,150.40786 102.5388,151.50582 103.98026,152.60379 106.72243,152.878 112.00248,152.39796 117.28254,151.91792 125.10401,150.68295 129.90484,148.89938 134.70567,147.11582 136.48919,144.78352 137.72347,142.93195 138.95774,141.08039 139.64395,139.70799 141.08362,138.6799 142.52329,137.65181 144.71999,136.96534 146.36525,132.37195 148.01052,127.77856 149.10851,119.26912 149.58852,114.05672 150.06854,108.84432 149.93135,106.92363 149.79421,104.86654 149.65707,102.80945 149.51983,100.61361 146.57217,98.694078 143.62451,96.77455 137.86074,95.127759 133.67705,94.853126 129.49337,94.578493 126.88736,95.675761 125.5836,96.841781 124.27984,98.007802 124.27984,99.241798 122.49525,98.692737 120.71066,98.143676 117.14702,95.813602 115.15776,94.029916 113.1685,92.24623 112.757,91.011745 112.07151,89.983475 111.38601,88.955205 110.42532,88.131758 114.81538,87.445822 Z"
     id="path4016"
     inkscape:connector-curvature="0"
     inkscape:path-effect="#path-effect4018"
     inkscape:original-d="M 109.46502,87.308642 C 119.20539,86.758945 128.94476,86.210248 138.68313,85.662551 145.5421,82.095408 152.40155,78.528492 159.25926,74.962963 161.31751,74.001911 163.37549,73.041524 165.4321,72.082305 172.83617,71.532929 180.24791,70.983911 187.65432,70.436214 193.69012,66.183427 199.72665,61.930413 205.76132,57.679012 209.46532,60.832424 213.16972,63.988026 216.87243,67.144033 211.38659,71.532506 205.89949,75.922182 200.41152,80.312757 196.98248,80.586161 193.55381,80.860454 190.12346,81.135802 185.32186,81.958105 180.52226,82.780893 175.72016,83.604938 172.70262,85.524832 169.6855,87.444816 166.66667,89.366255 166.25599,91.423662 165.84462,93.480481 165.4321,95.539095 166.39386,98.694871 167.35354,101.84811 168.31276,105.00412 168.58816,106.64954 168.86245,108.2953 169.1358,109.94239 169.1368,113.9214 169.1368,117.89749 169.1358,121.87654 168.58797,124.3453 168.03941,126.81381 167.48971,129.28395 167.079,131.47877 166.66767,133.67253 166.25514,135.86831 171.74598,133.12239 177.23008,130.38034 182.71605,127.63786 187.24281,127.22543 191.77055,126.81381 196.2963,126.40329 197.66871,126.95086 199.04078,127.49969 200.41152,128.04938 204.5262,129.69385 208.64298,131.34056 212.7572,132.98765 211.7981,135.31832 210.83776,137.65058 209.87654,139.98354 201.09385,141.0805 192.31924,142.17733 183.53909,143.27572 180.11031,144.78383 176.68138,146.29255 173.25103,147.80247 169.82147,148.07591 166.39332,148.35017 162.96296,148.62551 162.68953,149.58503 162.41527,150.54495 162.13992,151.50617 162.55295,156.17487 162.96396,160.83302 163.37449,165.49794 163.10108,167.69216 162.82679,169.88652 162.55144,172.0823 162.00347,173.59098 161.45505,175.09914 160.90535,176.60905 160.76907,179.49101 160.632,182.36937 160.49383,185.25103 160.22038,188.26896 159.94613,191.28569 159.67078,194.30453 161.31846,193.89186 162.96396,193.48048 164.60905,193.06996 167.89988,191.42404 171.19442,189.77678 174.4856,188.13169 179.56019,187.71931 184.63749,187.30764 189.71193,186.89712 190.53581,186.62183 191.35902,186.34742 192.18107,186.07407 196.15432,188.40164 200.13817,190.737 204.11523,193.06996 204.25339,193.89194 204.39057,194.71505 204.52675,195.53909 202.88004,197.32312 201.23557,199.10462 199.58848,200.88889 193.41304,201.29965 187.2438,201.71093 181.06996,202.12346 179.69898,202.53405 178.32747,202.9455 176.95473,203.35802 174.75904,204.31808 172.56616,205.27746 170.37037,206.23868 168.72437,207.19843 167.07919,208.15812 165.4321,209.11934 164.06037,209.8047 162.68961,210.49008 161.31687,211.17695 159.53305,214.7456 157.75134,218.30901 155.96708,221.87654 155.55642,225.30605 155.14503,228.73425 154.73251,232.16461 154.04742,236.41738 153.36177,240.66841 152.6749,244.92181 152.6759,247.52781 152.6759,250.13343 152.6749,252.74074 156.2438,253.28865 159.80896,253.83713 163.37449,254.38683 168.99832,253.9744 174.62377,253.56279 180.24691,253.15226 182.30514,252.60267 184.36314,252.05387 186.41975,251.50617 188.34009,251.23098 190.26163,250.95648 192.18107,250.68313 193.96429,251.2305 195.7486,251.77952 197.53086,252.32922 199.04025,253.8366 200.5497,255.34605 202.05761,256.85597 203.43036,258.36388 204.8021,259.8728 206.17284,261.38272 207.27127,263.57658 208.36863,265.77129 209.46502,267.96708 210.28922,274.14004 211.11211,280.31176 211.93416,286.4856 210.83761,290.87478 209.74037,295.26375 208.64198,299.65432 206.58481,304.4557 204.52775,309.25552 202.46914,314.05761 201.50967,317.48683 200.5497,320.91532 199.58848,324.34568 198.62893,328.59855 197.66904,332.84948 196.70782,337.10288 195.3367,340.39496 193.96533,343.68624 192.59259,346.97942 191.08412,350.27181 189.57576,353.56279 188.06584,356.85597 186.42015,360.69725 184.77466,364.53672 183.12757,368.3786 182.16805,370.7103 181.20813,373.04152 180.24691,375.37449 179.01271,378.39288 177.77878,381.40915 176.54321,384.42798 175.85806,385.9365 175.17247,387.44482 174.4856,388.95473 172.56462,391.97398 170.64572,394.9894 168.72428,398.00823 168.58805,398.41891 168.45093,398.83028 168.31276,399.2428 165.4247,403.78175 162.55244,408.2953 159.67078,412.82305 158.71132,409.2546 157.75134,405.68899 156.79012,402.12346 153.22528,397.04798 149.65806,391.97157 146.09053,386.89712 144.30834,382.50672 142.52501,378.11697 140.74074,373.7284 138.68437,369.47549 136.62651,365.22259 134.5679,360.97119 133.60878,356.99253 132.64846,353.01409 131.68724,349.03704 136.48847,353.56197 141.29044,358.08953 146.09053,362.61728 149.65804,365.35975 153.22459,368.10325 156.79012,370.84774 158.16281,370.70957 159.53461,370.57239 160.90535,370.43621 164.05885,367.55684 167.21636,364.6739 170.37037,361.79424 171.19414,360.01056 172.01746,358.22671 172.83951,356.44444 175.99338,350.27478 179.15052,344.09777 182.30453,337.92593 183.81415,332.57617 185.32336,327.22534 186.83128,321.87654 189.57515,318.85838 192.31924,315.83988 195.06173,312.82305 197.25676,307.74836 199.4523,302.67115 201.64609,297.59671 201.64709,295.67573 201.64709,293.75483 201.64609,291.83539 200.41317,283.47112 199.17795,275.09914 197.94239,266.73251 190.12524,265.35991 182.30553,263.98803 174.4856,262.61728 172.97753,262.61628 171.46876,262.61628 169.95885,262.61728 165.97916,262.61628 162.00374,262.61628 158.02469,262.61728 154.45827,264.81162 150.89263,267.00586 147.3251,269.20165 144.85616,270.71006 142.38783,272.21848 139.9177,273.7284 137.72287,274.41359 135.52912,275.09914 133.33333,275.78601 127.43263,276.19676 121.53735,276.60805 115.63786,277.02058 111.93449,278.94036 108.23145,280.86045 104.52675,282.78189 101.9206,284.83917 99.315129,286.89612 96.707819,288.95473 92.866317,287.58141 89.027063,286.21025 85.185185,284.83951 80.658764,281.40864 76.132687,277.9798 71.604938,274.55144 73.114906,272.62994 74.623771,270.70956 76.131687,268.79012 77.777831,269.6117 79.424868,270.43521 81.069959,271.25926 83.128072,269.33829 85.186185,267.41738 87.242798,265.49794 88.203536,263.16615 89.164237,260.83302 90.123457,258.50206 90.535766,255.8961 90.947502,253.28844 91.358025,250.68313 91.359025,247.25426 91.359025,243.82342 91.358025,240.39506 90.536219,237.23997 89.712934,234.08405 88.888889,230.93004 89.027033,213.64888 89.164237,196.36114 89.300412,179.07819 85.73509,175.64803 82.168353,172.21848 78.600823,168.79012 76.132673,165.77127 73.663551,162.75346 71.193416,159.73663 74.07497,159.73563 76.955733,159.73563 79.835391,159.73663 82.030416,159.04999 84.225966,158.36388 86.419753,157.67901 87.380449,152.74243 88.341192,147.80147 89.300412,142.8642 89.575696,140.66892 89.850108,138.47362 90.123457,136.27984 89.987352,129.42359 89.850108,122.56141 89.711934,115.7037 89.57578,114.87978 89.438586,114.05661 89.300412,113.23457 88.479177,112.00022 87.655321,110.76443 86.831276,109.53086 83.815007,106.10115 80.79661,102.67115 77.777778,99.242798 79.013321,96.086854 80.247914,92.931785 81.481481,89.777778 82.990821,87.445708 84.500314,85.112855 86.00823,82.781893 88.477137,79.490351 90.947502,76.196531 93.415638,72.90535 94.376531,72.35584 95.337077,71.806956 96.296296,71.259259 95.201256,77.423483 94.102509,83.603938 93.004115,89.777778 92.456317,91.423173 91.907722,93.068959 91.358025,94.716049 91.084476,96.087791 90.810328,97.458534 90.534979,98.831276 93.007192,102.53709 95.474251,106.23768 97.942387,109.94239 98.629301,114.33124 99.315129,118.72054 100,123.11111 100.001,127.36331 100.001,131.61491 100,135.86831 100.27541,139.43468 100.5497,143.00037 100.82305,146.5679 100.96125,148.48783 101.09839,150.40778 101.23457,152.32922 103.98037,152.6027 106.72254,152.87691 109.46502,153.15226 117.28241,151.9171 125.10388,150.68213 132.92181,149.44856 134.70582,147.11593 136.48934,144.78364 138.2716,142.45267 138.95815,141.08059 139.64435,139.70819 140.32922,138.33745 142.52309,137.65118 144.71979,136.96471 146.91358,136.27984 148.01138,127.77867 149.10937,119.26923 150.20576,110.76543 150.06961,108.84424 149.93241,106.92355 149.79424,105.00412 149.65813,102.80938 149.52089,100.61354 149.38272,98.419753 143.62485,96.773363 137.86108,95.126572 132.09877,93.481481 129.49316,94.578001 126.88715,95.675269 124.27984,96.773663 124.28084,98.007802 124.28084,99.241798 124.27984,100.47737 120.71142,98.142516 117.14778,95.812443 113.58025,93.481481 113.1697,92.24583 112.7582,91.011346 112.34568,89.777778 111.38693,88.954132 110.42624,88.130687 109.46502,87.308642 Z" />
  <path
     style="fill:none;stroke:#000000;stroke-width:1px;stroke-linecap:butt;stroke-linejoin:miter;stroke-opacity:1"
     d="M 101.5781,172.0129 C 103.15621,170.02406 106.31121,168.37798 110.01411,166.86944 113.71701,165.3609 117.97102,163.98864 122.22272,163.30296 126.47442,162.61728 130.72802,162.61728 134.22561,162.68588 137.72321,162.75447 140.46734,162.89168 142.24988,163.91989 144.03243,164.9481 144.85576,166.8692 145.26738,170.57333 145.67901,174.27747 145.67901,179.76306 145.1304,184.29004 144.58178,188.81701 143.48459,192.3829 142.2499,195.60697 141.0152,198.83104 139.64392,201.71072 135.80197,203.35747 131.96002,205.00422 125.65264,205.41557 121.19433,206.30703 116.73602,207.1985 114.13014,208.57002 111.59178,209.32479 109.05342,210.07957 106.58541,210.21668 104.86992,208.36368 103.15442,206.51068 102.19461,202.67144 101.50882,198.6251 100.82304,194.57876 100.41144,190.32557 100.20572,186.96502 100,183.60446 100,181.1348 100,178.73473 100,176.33465 100,174.00174 101.5781,172.0129 Z"
     id="path4020"
     inkscape:connector-curvature="0"
     inkscape:path-effect="#path-effect4022"
     inkscape:original-d="M 100,171.67078 C 103.15601,170.02369 106.31101,168.3776 109.46502,166.73251 113.71681,165.36029 117.97082,163.98803 122.22222,162.61728 126.47442,162.61628 130.72802,162.61628 134.97942,162.61728 137.72326,162.75343 140.46739,162.89063 143.20988,163.02881 144.03364,164.94758 144.85697,166.86868 145.67901,168.79012 145.68001,174.27747 145.68001,179.76306 145.67901,185.25103 144.58242,188.81721 143.48522,192.38309 142.38683,195.95062 141.01563,198.83124 139.64435,201.71093 138.2716,204.59259 131.95996,205.00329 125.65258,205.41464 119.34156,205.82716 116.73582,207.19813 114.12994,208.56964 111.52263,209.94239 109.05337,210.07862 106.58536,210.21574 104.11523,210.35391 103.1556,206.51039 102.19579,202.67115 101.23457,198.83128 100.82412,194.57866 100.41252,190.32547 100,186.07407 100.001,183.60446 100.001,181.1348 100,178.66667 100.001,176.33465 100.001,174.00174 100,171.67078 Z" />
  <path
     style="fill:none;stroke:#000000;stroke-width:1px;stroke-linecap:butt;stroke-linejoin:miter;stroke-opacity:1"
     d="M 101.71524,230.312 C 101.37167,231.34065 101.50884,232.98674 101.50885,236.62336 101.50887,240.25998 101.37177,245.88101 101.30317,250.06508 101.23457,254.24916 101.23457,256.99214 101.30315,259.32449 101.37173,261.65684 101.50885,263.57658 105.2149,263.91958 108.92096,264.26259 116.1877,263.02861 120.57718,261.99964 124.96666,260.97067 126.47581,260.1475 129.08067,258.98219 131.68553,257.81688 135.39216,256.30677 137.58636,254.04355 139.78056,251.78033 140.46666,248.76152 141.22094,245.19579 141.97522,241.63007 142.79859,237.51325 143.20999,232.9187 143.6214,228.32415 143.6214,223.24729 141.42736,220.02443 139.23332,216.80156 134.84288,215.42955 131.55074,215.77205 128.2586,216.11455 126.06413,218.17187 124.00607,220.09273 121.948,222.0136 120.02847,223.79602 116.94096,225.09977 113.85345,226.40352 109.60334,227.22611 107.20273,227.70621 104.80213,228.1863 104.25358,228.32344 103.56683,228.59808 102.88009,228.87271 102.05881,229.28335 101.71524,230.312 Z"
     id="path4024"
     inkscape:connector-curvature="0"
     inkscape:path-effect="#path-effect4026"
     inkscape:original-d="M 101.23457,229.69547 C 101.37274,231.34056 101.50992,232.98665 101.64609,234.63374 101.50984,240.26 101.37274,245.88103 101.23457,251.50617 101.23557,254.24916 101.23557,256.99214 101.23457,259.73663 101.37279,261.65676 101.50992,263.5765 101.64609,265.49794 108.92082,264.26178 116.18756,263.02781 123.45679,261.79424 124.96647,260.97032 126.47562,260.14715 127.98354,259.3251 131.68532,257.81638 135.39195,256.30627 139.09465,254.79835 139.7813,251.7805 140.46739,248.76169 141.15226,245.74486 141.97599,241.63022 142.79935,237.5134 143.6214,233.39918 143.6224,228.32415 143.6224,223.24729 143.6214,218.17284 139.23369,216.80037 134.84325,215.42836 130.45267,214.05761 128.25857,216.11452 126.0641,218.17184 123.86831,220.23045 121.94797,222.01356 120.02843,223.79598 118.107,225.58025 113.8533,226.40274 109.60319,227.22534 105.34979,228.04938 104.80195,228.18559 104.2534,228.32273 103.7037,228.46091 102.87989,228.87231 102.05861,229.28295 101.23457,229.69547 Z" />
  <path
     style="fill:none;stroke:#000000;stroke-width:1px;stroke-linecap:butt;stroke-linejoin:miter;stroke-opacity:1"
     d="M 40.123875,327.43221 C 40.60432,327.22649 42.524757,327.63802 46.227565,327.50083 49.930373,327.36364 55.419489,326.6775 60.151636,325.78589 64.883784,324.89427 68.86264,323.79666 75.719865,322.56238 82.57709,321.3281 92.319363,319.95595 100.48089,317.48677 108.64241,315.01759 115.22753,311.45065 120.78268,308.91319 126.33783,306.37573 130.8654,304.86654 136.42006,303.42647 141.97472,301.9864 148.56083,300.6143 153.36167,299.51694 158.16251,298.41958 161.18088,297.59638 157.61634,300.26987 154.05179,302.94337 143.89692,309.11863 137.5866,313.85113 131.27628,318.58362 128.80742,321.87542 126.68109,324.0706 124.55475,326.26577 122.77209,327.36279 118.38023,329.0784 113.98837,330.794 106.99708,333.12443 100.0692,335.59376 93.141318,338.06309 86.283785,340.66895 81.75677,342.93226 77.229756,345.19557 75.035356,347.11567 73.388881,348.83061 71.742406,350.54555 70.645542,352.05374 68.998816,353.15177 67.352091,354.2498 65.158946,354.93516 61.453487,354.24901 57.748028,353.56287 52.538246,351.50638 48.69697,349.17417 44.855694,346.84196 42.386805,344.23591 40.19194,341.01215 37.997075,337.78839 36.076615,333.94747 35.185118,331.13516 34.293621,328.32285 34.430809,326.5394 35.66476,326.40239 36.898711,326.26537 39.232071,327.77519 39.917911,328.11813 40.603751,328.46106 39.643431,327.63793 40.123875,327.43221 Z"
     id="path4028"
     inkscape:connector-curvature="0"
     inkscape:path-effect="#path-effect4030"
     inkscape:original-d="M 38.683128,326.81481 C 40.604567,327.22534 42.525005,327.63686 44.444444,328.04938 49.930266,327.36278 55.419381,326.67664 60.90535,325.99177 64.883599,324.8936 68.862454,323.79598 72.839506,322.69959 82.576972,321.32726 92.319244,319.9551 102.05761,318.58436 108.64222,315.01724 115.22734,311.4503 121.8107,307.88477 126.33763,306.37513 130.8652,304.86594 135.39095,303.35802 141.97456,301.98565 148.56067,300.61354 155.14403,299.2428 158.16233,298.4189 161.1807,297.59571 164.19753,296.77366 154.05162,302.94308 143.89675,309.11834 133.74486,315.29218 131.27643,318.58374 128.80758,321.87554 126.33745,325.16872 124.55458,326.26549 122.77192,327.36251 120.98765,328.46091 113.98817,330.7934 106.99688,333.12383 100,335.45679 93.141113,338.06255 86.283579,340.66841 79.423868,343.27572 77.229695,345.1955 75.035294,347.1156 72.839506,349.03704 71.742582,350.54568 70.645719,352.05387 69.547325,353.56379 67.351894,354.24917 65.15875,354.93453 62.962963,355.6214 57.748503,353.56167 52.538723,351.50517 47.325103,349.44856 44.856719,346.84099 42.387831,344.23494 39.917695,341.62963 37.998277,337.78779 36.077818,333.94687 34.156379,330.107 34.294539,328.32292 34.431727,326.53947 34.567901,324.7572 36.899463,326.26421 39.232824,327.77403 41.563786,329.28395 40.604669,328.45999 39.644347,327.63686 38.683128,326.81481 Z" />
  <path
     style="fill:none;stroke:#000000;stroke-width:1px;stroke-linecap:butt;stroke-linejoin:miter;stroke-opacity:1"
     d="M 260.8369,31.752766 C 262.27749,32.027634 265.29532,33.536548 268.93053,33.879329 272.56574,34.22211 276.81871,33.398954 279.28772,32.712831 281.75674,32.026707 282.4428,31.47786 285.04487,34.353816 287.64694,37.229772 292.18094,43.549882 294.92441,48.487959 297.66789,53.426036 298.62808,56.99246 299.0397,60.35335 299.45132,63.714239 299.31417,66.868642 298.62831,70.024087 297.94245,73.179532 296.70829,76.333497 302.95271,74.823732 309.19713,73.313968 322.9093,67.14349 336.35179,61.999722 349.79428,56.855955 362.96416,52.740368 371.33161,50.271322 379.69906,47.802275 383.26592,46.979154 387.10549,49.036043 390.94507,51.092931 395.06165,56.032825 395.33659,59.530495 395.61153,63.028166 392.04508,65.085736 386.35099,66.320686 380.65689,67.555637 372.84056,67.967023 366.80468,68.858583 360.7688,69.750142 356.51698,71.121697 351.71513,72.836626 346.91328,74.551556 341.565,76.608587 334.08789,78.666541 326.61079,80.724495 317.01076,82.781645 309.53437,83.810575 302.05797,84.839506 296.70882,84.839506 293.62176,84.290628 290.53471,83.741751 289.71181,82.644557 286.55786,82.918688 283.40391,83.192818 277.91614,84.839149 273.18319,86.896845 268.45024,88.954541 264.47305,91.423142 262.3463,93.686625 260.21955,95.950108 259.94528,98.007116 261.72969,100.06594 263.5141,102.12476 267.3529,104.18126 269.68456,105.89563 272.01621,107.61 272.83933,108.98188 272.83947,111.38235 272.83961,113.78283 272.01675,117.21145 270.09615,120.43565 268.17555,123.65984 265.15875,126.67664 262.62059,129.6263 260.08243,132.57596 258.0255,135.45566 258.84906,137.85725 259.67262,140.25884 263.37487,142.17853 267.07874,142.93285 270.78261,143.68717 274.4867,143.2756 277.70985,141.76664 280.933,140.25769 283.67729,137.6506 283.60868,134.49671 283.54006,131.34281 280.65833,127.63772 279.35531,124.89378 278.05229,122.14983 278.32665,120.3665 280.58878,120.57223 282.85092,120.77796 287.106,122.97413 289.91774,125.16859 292.72947,127.36304 294.10134,129.55803 295.67896,132.02735 297.25657,134.49666 299.03962,137.2398 299.58851,140.05155 300.13739,142.86329 299.45158,145.74369 298.62863,147.80158 297.80568,149.85947 296.84585,151.09354 294.51199,150.7504 292.17813,150.40726 288.47775,148.48854 282.64785,149.10565 276.81795,149.72275 268.86266,152.87744 262.82666,154.93522 256.79067,156.99301 252.67607,157.95309 248.97179,158.36475 245.26751,158.77641 241.97627,158.63927 239.23209,157.81606 236.48791,156.99285 234.29376,155.48437 233.67663,153.35736 233.0595,151.23036 234.01962,148.48714 236.48828,146.4988 238.95693,144.51046 242.93672,143.27535 246.77696,140.87503 250.61719,138.47471 254.32201,134.90711 256.44772,131.47813 258.57342,128.04915 259.12227,124.75606 259.32794,121.39598 259.53362,118.03589 259.3964,114.60535 258.50493,111.58823 257.61346,108.57111 255.96691,105.96407 254.66393,104.2496 253.36095,102.53513 252.40063,101.712 251.30305,99.036539 250.20547,96.361076 248.97101,91.834712 249.31436,88.473917 249.65771,85.113121 251.57843,82.918007 254.11551,80.861031 256.65259,78.804056 259.80913,76.882685 262.20906,74.13962 264.60899,71.396555 266.2557,67.828699 267.69574,64.194209 269.13578,60.55972 270.37077,56.854767 270.98785,54.454496 271.60494,52.054225 271.60494,50.956476 270.43994,48.626518 269.27494,46.29656 266.94086,42.726784 264.95193,39.983443 262.963,37.240102 261.3168,35.319534 260.42515,33.878846 259.53349,32.438159 259.39631,31.477898 260.8369,31.752766 Z"
     id="path4040"
     inkscape:connector-curvature="0"
     inkscape:path-effect="#path-effect4042"
     inkscape:original-d="M 259.25926,30.518519 C 262.27809,32.026435 265.29592,33.535351 268.31276,35.045267 272.56559,34.221331 276.81856,33.398177 281.06996,32.576132 281.75664,32.026583 282.4427,31.477738 283.12757,30.930041 287.64808,37.228957 292.18207,43.549069 296.70782,49.860082 297.66907,53.425717 298.62926,56.992141 299.58848,60.559671 299.45228,63.714281 299.31513,66.868684 299.17695,70.024691 297.94298,73.17974 296.70882,76.333705 295.47325,79.489712 309.19692,73.313512 322.90909,67.143033 336.62551,60.971193 349.79408,56.855329 362.96396,52.739741 376.13169,48.625514 379.69889,47.801544 383.26575,46.978424 386.83128,46.156379 390.94615,51.092032 395.06273,56.031922 399.17695,60.971193 395.61135,63.027847 392.0449,65.08542 388.47737,67.144033 380.65684,67.554692 372.84051,67.966078 365.02058,68.378601 360.7686,69.749527 356.51678,71.121085 352.26337,72.493827 346.91307,74.55102 341.56479,76.608053 336.21399,78.666667 326.61063,80.723744 317.0106,82.780893 307.40741,84.839506 302.05797,84.838506 296.70882,84.838506 291.35802,84.839506 290.53583,83.740907 289.71293,82.643719 288.88889,81.547325 283.40372,83.192176 277.91595,84.838506 272.42798,86.485597 268.45007,88.954269 264.47288,91.422868 260.49383,93.893004 260.2204,95.950222 259.94613,98.00723 259.67078,100.06584 263.51474,102.12357 267.35354,104.18007 271.19342,106.23868 272.01738,107.6093 272.84051,108.98117 273.66255,110.35391 272.84033,113.783 272.01746,117.21162 271.19342,120.64198 268.17555,123.65984 265.15875,126.67664 262.13992,129.69547 260.08262,132.57609 258.02569,135.45579 255.96708,138.33745 259.67324,140.25764 263.37549,142.17733 267.07819,144.09877 270.78251,143.68628 274.4866,143.27472 278.1893,142.8642 280.93297,140.25766 283.67727,137.65058 286.41975,135.04527 283.54117,131.34195 280.65944,127.63686 277.77778,123.93416 278.05312,122.14996 278.32747,120.36663 278.60082,118.58436 282.85154,120.77676 287.10662,122.97294 291.35802,125.16872 292.73064,127.36231 294.10251,129.5573 295.47325,131.75309 297.25773,134.49591 299.04078,137.23905 300.82305,139.98354 300.13811,142.86346 299.4523,145.74386 298.76543,148.62551 297.80582,149.85958 296.84599,151.09365 295.88477,152.32922 292.17875,150.40606 288.47837,148.48734 284.77366,146.5679 276.81774,149.72223 268.86245,152.87691 260.90535,156.03292 256.7905,156.99229 252.6759,157.95236 248.55967,158.91358 245.26755,158.77537 241.97631,158.63823 238.68313,158.50206 236.4887,156.9917 234.29455,155.48322 232.09877,153.97531 233.06008,151.23056 234.0202,148.48734 234.97942,145.74486 238.95673,144.50983 242.93653,143.27472 246.91358,142.04115 250.61717,138.47469 254.32199,134.90709 258.02469,131.34156 258.57424,128.04929 259.12309,124.7562 259.67078,121.46502 259.53465,118.03585 259.39743,114.60531 259.25926,111.17695 257.61463,108.57037 255.96808,105.96333 254.32099,103.35802 253.36187,102.53406 252.40155,101.71093 251.44033,100.88889 250.20666,96.360752 248.97219,91.834391 247.73663,87.308642 249.65778,85.113183 251.5785,82.918067 253.49794,80.72428 256.65242,78.80377 259.80896,76.882402 262.96296,74.962963 264.60944,71.396761 266.25614,67.828904 267.90123,64.263374 269.13639,60.559922 270.37137,56.854967 271.60494,53.152263 271.60594,52.054225 271.60594,50.956476 271.60494,49.860082 269.2761,46.295803 266.94202,42.726023 264.60905,39.160494 262.96407,37.239185 261.31787,35.318616 259.67078,33.399177 259.53461,32.437999 259.39743,31.477738 259.25926,30.518519 Z" />
  <path
     style="fill:none;stroke:#000000;stroke-width:1px;stroke-linecap:butt;stroke-linejoin:miter;stroke-opacity:1"
     d="M 343.20988,83.193416 C 343.20988,89.365255 343.20988,95.538095 342.2498,100.54516 341.28973,105.55223 339.3696,109.39249 336.69431,113.43985 334.01901,117.48721 330.59073,121.73827 327.29823,125.23665 324.00573,128.73503 320.85154,131.47781 318.51912,134.22162 316.1867,136.96544 314.67829,139.708 314.06069,142.315 313.44309,144.922 313.71732,147.39007 314.40335,150.61447 315.08937,153.83888 316.18637,157.81552 316.94089,161.10784 317.69541,164.40017 318.10687,167.00604 318.03842,169.33814 317.96997,171.67025 317.42144,173.72722 313.16719,175.99171 308.91295,178.2562 300.96142,180.72391 296.36597,182.36987 291.77052,184.01582 290.53613,184.83874 289.78157,185.31899 289.02701,185.79925 288.75291,185.9363 286.75524,184.48971 284.75757,183.04313 281.07007,180.0385 277.8465,177.63796 274.62294,175.23742 271.87954,173.45421 269.61649,172.63105 267.35345,171.80788 265.57034,171.94504 264.40375,173.86608 263.23715,175.78711 262.68878,179.48859 263.44349,182.30153 264.19819,185.11447 266.25518,187.03432 267.28397,189.02282 268.31276,191.01131 268.31276,193.06896 265.70574,194.5099 263.09873,195.95084 257.88865,196.77348 254.18474,197.66505 250.48084,198.55661 248.28653,199.51662 244.37547,200.40866 240.46442,201.3007 234.84337,202.12329 231.2081,202.672 227.57282,203.22072 225.92707,203.49501 225.30927,204.59278 224.69148,205.69056 225.10272,207.60968 228.39658,209.18787 231.69043,210.76607 237.86085,212.00015 242.45621,212.13712 247.05158,212.27409 250.06979,211.31375 253.56691,209.39366 257.06402,207.47358 261.04365,204.59177 264.54116,202.94607 268.03867,201.30038 271.05736,200.88874 272.83989,202.25957 274.62242,203.63041 275.17132,206.78658 275.5143,208.98149 275.85727,211.17639 275.99442,212.41064 276.2003,215.29288 276.40618,218.17512 276.68033,222.69865 276.20054,225.78515 275.72075,228.87165 274.48644,230.5174 271.53574,231.61547 268.58503,232.71355 263.92428,233.26187 258.43661,234.35937 252.94893,235.45687 246.64041,237.10257 242.66221,238.40563 238.684,239.70868 237.03822,240.66872 234.01872,241.14918 230.99922,241.62963 226.6128,241.62963 222.0856,242.10973 217.5584,242.58983 212.89554,243.54983 213.58174,245.74526 214.26794,247.94068 220.30211,251.36918 225.24065,252.94656 230.17919,254.52394 234.02027,254.24958 238.54636,252.80935 243.07246,251.36912 248.28652,248.76209 252.88138,247.04769 257.47624,245.33328 261.45521,244.51005 264.26705,243.89279 267.07889,243.27554 268.72545,242.8639 270.85018,243.75493 272.97491,244.64597 275.58308,246.84233 277.22906,250.47689 278.87503,254.11145 279.56093,259.18708 279.83534,263.50827 280.10975,267.82946 279.9726,271.39539 278.46385,273.7278 276.95509,276.06022 274.07528,277.15729 269.75304,278.11783 265.43081,279.07837 259.6719,279.90107 252.88103,281.06717 246.09016,282.23327 238.27275,283.74189 233.81444,284.49646 229.35612,285.25103 228.25889,285.25103 227.02374,285.31962 225.78859,285.38822 224.4181,285.52527 222.70244,285.38806 220.98679,285.25085 218.93081,284.83966 217.07875,285.52527 215.22668,286.21088 213.58121,287.99347 213.78711,289.84642 213.993,291.69937 216.04942,293.61869 217.69585,294.71614 219.34228,295.8136 220.57687,296.08795 221.94772,297.32168 223.31857,298.5554 224.82838,300.7515 229.97351,300.68275 235.11863,300.614 243.89693,298.28227 249.31519,296.70473 254.73344,295.1272 256.79133,294.30405 260.76765,292.93291 264.74397,291.56178 270.64592,289.64021 273.73221,288.68018 276.8185,287.72016 277.09291,287.72016 277.7762,288.6084 278.45948,289.49665 279.56087,291.28641 281.48213,292.10956 283.4034,292.93271 286.14645,292.79556 287.58628,291.97229 289.02611,291.14902 289.16334,289.63952 289.30046,288.19968 289.43759,286.75984 289.57487,285.38711 289.71193,284.01646"
     id="path4044"
     inkscape:connector-curvature="0"
     inkscape:path-effect="#path-effect4046"
     inkscape:original-d="M 343.20988,83.193416 C 343.21088,89.365255 343.21088,95.538095 343.20988,101.71193 341.29013,105.55243 339.37,109.39269 337.44856,113.23457 334.01913,117.4873 330.59085,121.73837 327.16049,125.99177 324.00567,128.73496 320.85148,131.47774 317.69547,134.22222 316.18705,136.96563 314.67864,139.70819 313.16872,142.45267 313.44419,144.92188 313.71842,147.38995 313.99177,149.86008 315.09055,153.83855 316.18756,157.81519 317.28395,161.79424 317.69654,164.39999 318.108,167.00586 318.51852,169.61317 317.97065,171.67043 317.42212,173.7274 316.87243,175.78601 308.91275,178.25556 300.96122,180.72328 293.00412,183.19342 291.77036,184.01558 290.53598,184.83851 289.30041,185.66255 289.02681,185.79885 288.75271,185.9359 288.47737,186.07407 284.75846,183.04204 281.07096,180.03741 277.36626,177.02058 274.62369,175.23626 271.88029,173.45305 269.1358,171.67078 267.35338,171.80697 265.57027,171.94413 263.78601,172.0823 263.23798,175.78723 262.68961,179.48871 262.13992,183.19342 264.19915,185.11344 266.25614,187.03329 268.31276,188.95473 268.31376,191.01131 268.31376,193.06896 268.31276,195.12757 263.0986,195.95002 257.88852,196.77266 252.6749,197.59671 250.48063,198.55614 248.28632,199.51615 246.09053,200.47737 240.4643,201.29986 234.84325,202.12246 229.21811,202.9465 227.57269,203.21991 225.92693,203.4942 224.27984,203.76955 224.69264,205.69031 225.10388,207.60943 225.5144,209.53086 231.69066,210.76492 237.86108,211.999 244.03292,213.23457 247.05138,212.27347 250.06959,211.31313 253.08642,210.35391 257.06389,207.47339 261.04352,204.59159 265.02058,201.71193 268.03855,201.29953 271.05724,200.88789 274.07407,200.47737 274.62357,203.63021 275.17247,206.78638 275.72016,209.94239 275.85837,211.17627 275.99551,212.41052 276.13169,213.64609 276.40723,218.17506 276.68138,222.69859 276.95473,227.22634 275.72091,228.87177 274.4866,230.51752 273.25103,232.16461 268.58493,232.71268 263.92418,233.261 259.25926,233.8107 252.94875,235.45618 246.64023,237.10188 240.32922,238.74897 238.68382,239.70837 237.03804,240.66841 235.39095,241.62963 230.99922,241.62863 226.6128,241.62863 222.22222,241.62963 217.55824,242.58907 212.89538,243.54907 208.23045,244.51029 214.26862,247.93949 220.30278,251.368 226.33745,254.79835 230.17912,254.52302 234.0202,254.24866 237.86008,253.97531 243.07226,251.36872 248.28632,248.76169 253.49794,246.15638 257.47608,245.33252 261.45505,244.50929 265.4321,243.68724 267.07871,243.27484 268.72528,242.8632 270.37037,242.45267 272.97582,244.64489 275.58399,246.84125 278.1893,249.03704 278.87615,254.1113 279.56204,259.18693 280.24691,264.26337 280.11072,267.8295 279.97357,271.39543 279.83539,274.96296 276.95489,276.05968 274.07507,277.15675 271.19342,278.25514 265.43069,279.07753 259.67178,279.90023 253.90947,280.72428 246.09001,282.23249 238.2726,283.74111 230.45267,285.25103 229.35612,285.25003 228.25889,285.25003 227.16049,285.25103 225.7885,285.38733 224.41801,285.52438 223.04527,285.66255 220.98702,285.2497 218.93104,284.83851 216.87243,284.42798 215.22672,286.21091 213.58125,287.99351 211.93416,289.77778 213.99397,291.69833 216.05038,293.61766 218.107,295.53909 219.34254,295.81244 220.57713,296.08679 221.8107,296.36214 223.31971,298.55461 224.82953,300.75071 226.33745,302.9465 235.11845,300.61332 243.89675,298.28158 252.6749,295.95062 254.73323,295.12668 256.79112,294.30353 258.84774,293.48148 264.74377,291.56117 270.64572,289.6396 276.54321,287.72016 276.8185,287.71916 277.09291,287.71916 277.36626,287.72016 278.46065,289.49593 279.56204,291.28569 280.65844,293.06996 283.40335,292.93176 286.1464,292.79461 288.88889,292.65844 289.02701,291.1491 289.16424,289.6396 289.30041,288.13169 289.43849,286.75993 289.57576,285.3872 289.71193,284.01646" />
  <path
     style="fill:none;stroke:#000000;stroke-width:1px;stroke-linecap:butt;stroke-linejoin:miter;stroke-opacity:1"
     d="M 289.71193,284.01646 C 294.92576,281.68396 300.13838,279.352 304.45897,277.56893 308.77956,275.78586 312.2097,274.55101 314.95218,275.23657 317.69465,275.92214 319.75299,278.52936 320.91897,280.9296 322.08495,283.32984 322.35929,285.52452 323.86915,284.35749 325.37902,283.19046 328.12142,278.6655 329.69864,275.44216 331.27586,272.21882 331.6875,270.29788 336.21207,268.65269 340.73665,267.00751 349.38385,265.63493 355.41924,264.88055 361.45464,264.12617 364.88444,263.98898 368.51905,262.8916 372.15366,261.79422 375.9957,259.73599 378.73886,257.9528 381.48201,256.16961 383.12861,254.66022 382.92302,253.01521 382.71743,251.37019 380.65851,249.5858 377.22952,248.62556 373.80052,247.66532 368.9996,247.52815 365.02129,248.76252 361.04298,249.99689 357.8886,252.60267 353.84114,254.31784 349.79368,256.03302 344.8571,256.85578 342.11349,257.26739 339.36987,257.67901 338.8213,257.67901 337.92794,256.23582 337.03458,254.79262 335.80226,251.91722 335.25369,249.31082 334.70511,246.70441 334.84231,244.37205 335.11666,242.24624 335.39101,240.12042 335.80272,238.19911 336.1455,235.79947 336.48828,233.39984 336.76279,230.51743 338.06596,227.91161 339.36912,225.30578 341.70196,222.97294 347.46127,222.08172 353.22059,221.1905 362.41521,221.73943 368.10788,221.94514 373.80056,222.15084 375.99557,222.01365 377.57251,220.50486 379.14946,218.99607 380.11014,216.11403 380.38437,214.46862 380.65861,212.82322 380.24691,212.41152 377.29797,211.31423 374.34903,210.21693 368.86206,208.43367 364.061,208.98203 359.25995,209.53039 355.14517,212.41073 352.1957,214.05714 349.24622,215.70355 347.46345,216.11496 344.85579,215.90915 342.24813,215.70334 338.82102,214.88083 337.72356,212.20478 336.6261,209.52874 337.86041,205.00294 338.47753,201.57397 339.09465,198.14501 339.09465,195.81244 339.09465,192.10982 339.09465,188.40721 339.09465,183.32959 340.94657,180.99813 342.7985,178.66668 346.50294,179.07828 351.7833,179.83263 357.06367,180.58698 363.924,181.68463 369.47949,181.13569 375.03498,180.58675 379.28789,178.3917 381.48209,176.12844 383.67629,173.86517 383.81351,171.53256 380.93433,168.79041 378.05516,166.04827 372.154,162.89183 367.76476,161.93129 363.37552,160.97075 360.49504,162.20524 356.65315,164.05757 352.81126,165.90989 348.01217,168.37799 344.85677,169.47573 341.70137,170.57346 340.19283,170.29918 338.88891,167.89702 337.58499,165.49485 336.48817,160.97047 335.73374,157.88419 334.97932,154.7979 334.56773,153.15155 335.04813,151.64279 335.52853,150.13402 336.90086,148.76169 339.43733,147.04793 341.9738,145.33417 345.6802,143.27506 349.31474,141.21777 352.94929,139.16047 356.51696,137.1022 359.67151,135.25061 362.82606,133.39902 365.57045,131.75239 369.20418,132.16382 372.83791,132.57526 377.36661,135.04546 381.00202,135.38799 384.63744,135.73052 387.38113,133.94712 388.54657,131.13579 389.71202,128.32447 389.30032,124.48197 387.24322,120.98487 385.18612,117.48777 381.48157,114.33203 377.77791,111.58857 374.07426,108.8451 370.37064,106.5132 367.62742,106.37548 364.8842,106.23777 363.10106,108.29523 363.23821,111.17721 363.37536,114.05919 365.43191,117.76098 366.52935,120.2299 367.6268,122.69882 367.76396,123.93328 365.97996,124.68823 364.19597,125.44319 360.4949,125.71734 355.55563,125.44297 350.61635,125.1686 344.44529,124.34579 343.48544,121.80722 342.52559,119.26865 346.77741,115.01683 350.34368,111.99935 353.90996,108.98186 356.79129,107.19818 358.84833,104.86656 360.90537,102.53494 362.14044,99.653114 361.66045,96.567872 361.18047,93.48263 358.98476,90.189069 356.72159,87.582987 354.45843,84.976905 352.12631,83.056328 350.82309,81.958885 349.51988,80.861443 349.24554,80.587106 348.14875,80.92974 347.05196,81.272374 345.13152,82.232595 343.20988,83.193416"
     id="path4048"
     inkscape:connector-curvature="0"
     inkscape:path-effect="#path-effect4050"
     inkscape:original-d="M 289.71193,284.01646 C 294.92555,281.6835 300.13817,279.35154 305.34979,277.02058 308.77936,275.78529 312.2095,274.55044 315.63786,273.31687 317.69575,275.92127 319.75409,278.52849 321.8107,281.1358 322.08606,283.3297 322.3604,285.52438 322.63374,287.72016 325.37931,283.19064 328.12171,278.66567 330.8642,274.13992 331.27661,272.21898 331.68824,270.29804 332.09877,268.3786 340.73652,267.00669 349.38372,265.63412 358.02469,264.26337 361.4546,264.12522 364.8844,263.98803 368.31276,263.85185 372.15347,261.79386 375.99551,259.73563 379.83539,257.67901 381.48197,256.16956 383.12857,254.66018 384.77366,253.15226 382.71835,251.36913 380.65944,249.58473 378.60082,247.80247 373.80055,247.66429 368.99963,247.52712 364.19753,247.39095 361.04289,249.99678 357.88852,252.60257 354.73251,255.20988 349.79354,256.0322 344.85697,256.85497 339.9177,257.67901 339.36987,257.67801 338.8213,257.67801 338.2716,257.67901 337.03579,254.7921 335.80347,251.9167 334.5679,249.03704 334.70605,246.70447 334.84325,244.37211 334.97942,242.04115 335.39176,240.12058 335.80347,238.19927 336.21399,236.27984 336.48917,233.39992 336.76369,230.51752 337.03704,227.63786 339.36912,225.30578 341.70196,222.97294 344.03292,220.64198 353.22065,221.18944 362.41527,221.73837 371.60494,222.28807 373.8005,222.14991 375.99551,222.01272 378.1893,221.87654 379.15006,218.99627 380.11074,216.11423 381.06996,213.23457 380.65961,212.82222 380.24791,212.41052 379.83539,212 374.34942,210.21574 368.86245,208.43247 363.37449,206.65021 359.2598,209.53018 355.14503,212.41052 351.02881,215.29218 349.24605,215.70282 347.46328,216.11423 345.67901,216.52675 342.24841,215.70216 338.8213,214.87966 335.39095,214.05761 336.62677,209.52892 337.86108,205.00312 339.09465,200.47737 339.09565,198.14501 339.09565,195.81244 339.09465,193.48148 339.09565,188.40721 339.09565,183.32959 339.09465,178.25514 342.79862,178.66559 346.50306,179.07719 350.20576,179.48971 357.06385,180.58585 363.92418,181.6835 370.78189,182.78189 375.03479,180.58637 379.28769,178.39132 383.53909,176.19753 383.67723,173.86523 383.81444,171.53261 383.95062,169.20165 378.0558,166.04707 372.15464,162.89063 366.25514,159.73663 363.37531,160.97027 360.49483,162.20476 357.61317,163.44033 352.81106,165.9095 348.01197,168.3776 343.20988,170.84774 341.70158,170.57232 340.19304,170.29804 338.68313,170.02469 337.58616,165.49457 336.48934,160.97019 335.39095,156.44444 334.98049,154.79761 334.5689,153.15126 334.15638,151.50617 335.52853,150.13402 336.90086,148.76169 338.2716,147.39095 341.97361,145.33383 345.68001,143.27472 349.38272,141.21811 352.9491,139.16015 356.51678,137.10188 360.0823,135.04527 362.82588,133.39872 365.57027,131.75209 368.31276,130.107 372.83856,132.57407 377.36726,135.04427 381.893,137.5144 384.63728,135.73028 387.38097,133.94687 390.12346,132.16461 389.71311,128.32435 389.30141,124.48185 388.88889,120.64198 385.18704,117.48669 381.48248,114.33096 377.77778,111.17695 374.07499,108.84394 370.37137,106.51203 366.66667,104.18107 364.88427,106.23783 363.10114,108.2953 361.31687,110.35391 363.37655,114.05853 365.4331,117.76032 367.48971,121.46502 367.6279,122.6987 367.76506,123.93316 367.90123,125.16872 364.1959,125.44227 360.49483,125.71642 356.79012,125.99177 350.6165,125.16749 344.44544,124.34468 338.2716,123.52263 342.52559,119.26865 346.77741,115.01683 351.02881,110.76543 353.90979,108.98159 356.79112,107.1979 359.67078,105.41564 360.90585,102.53515 362.14092,99.653321 363.37449,96.773663 361.18162,93.481861 358.98591,90.1883 356.79012,86.897119 354.45933,84.975815 352.1272,83.055241 349.79424,81.135802 349.52088,80.860442 349.24654,80.586106 348.97119,80.312757 347.05176,81.271977 345.13132,82.232196 343.20988,83.193416" />
  <path
     style="fill:none;stroke:#000000;stroke-width:1px;stroke-linecap:butt;stroke-linejoin:miter;stroke-opacity:1"
     d="M 310.4264,190.73769 C 307.82003,191.14938 303.29328,191.69808 299.86362,193.00109 296.43396,194.30409 294.10257,196.3612 292.93606,198.48787 291.76955,200.61454 291.76955,202.80833 291.63235,205.827 291.49515,208.84567 291.22093,212.6848 290.94659,215.49709 290.67225,218.30938 290.39798,220.09215 292.38879,220.84705 294.37961,221.60195 298.62932,221.32778 302.19556,220.71045 305.7618,220.09312 308.64318,219.13266 311.18045,218.24117 313.71771,217.34968 315.91341,216.5263 317.3532,215.2918 318.79299,214.05731 319.47924,212.41031 319.95907,210.55926 320.4389,208.70822 320.71345,206.6491 320.98769,203.90656 321.26194,201.16402 321.53644,197.73281 320.98791,195.33301 320.43939,192.93321 319.06721,191.56104 317.90061,190.81508 316.734,190.06912 315.50155,189.91506 314.60982,189.98346 313.71809,190.05186 313.03276,190.32599 310.4264,190.73769 Z"
     id="path4052"
     inkscape:connector-curvature="0"
     inkscape:path-effect="#path-effect4054"
     inkscape:original-d="M 312.34568,190.60082 C 307.81993,191.14852 303.29318,191.69722 298.76543,192.24691 296.4339,194.30403 294.10251,196.36114 291.76955,198.41975 291.77055,200.61454 291.77055,202.80833 291.76955,205.00412 291.49607,208.84574 291.22185,212.68487 290.9465,216.52675 290.67308,218.30951 290.39881,220.09228 290.12346,221.87654 294.37955,221.60102 298.62926,221.32685 302.88066,221.0535 305.7616,220.09252 308.64298,219.13206 311.52263,218.17284 313.71751,217.34914 315.91321,216.52575 318.107,215.7037 318.79349,214.05752 319.47974,212.41052 320.16461,210.76543 320.43976,208.70833 320.71431,206.64921 320.98765,204.59259 321.26285,201.16409 321.53735,197.73288 321.8107,194.30453 320.44039,192.93221 319.06822,191.56004 317.69547,190.1893 316.73625,190.05113 315.50169,189.91395 314.40329,189.77778 313.71788,190.05134 313.03255,190.32547 312.34568,190.60082 Z" />
  <path
     style="fill:none;stroke:#000000;stroke-width:1px;stroke-linecap:butt;stroke-linejoin:miter;stroke-opacity:1"
     d="M 290.46698,238.47396 C 289.71193,239.43384 289.71193,240.94276 289.64331,244.09934 289.5747,247.25592 289.43761,252.05384 289.36901,255.14042 289.30041,258.227 289.30041,259.59845 289.30041,260.97069 289.30041,262.34294 289.30041,263.71368 291.97778,264.26275 294.65516,264.81182 300.00105,264.53767 304.45893,263.85175 308.91681,263.16583 312.48404,262.06822 314.67834,260.49064 316.87263,258.91306 317.69595,256.85476 318.79285,253.01555 319.88974,249.17633 321.26229,243.5489 321.94801,239.91404 322.63374,236.27918 322.63374,234.63274 322.01687,233.26186 321.39999,231.89098 320.16467,230.79292 317.01004,230.44992 313.85541,230.10693 308.78022,230.51843 306.17366,230.86084 303.5671,231.20325 303.42995,231.47754 301.84615,232.44163 300.26234,233.40573 297.25771,235.04462 294.99403,236.07367 292.73036,237.10272 291.22204,237.51408 290.46698,238.47396 Z"
     id="path4056"
     inkscape:connector-curvature="0"
     inkscape:path-effect="#path-effect4058"
     inkscape:original-d="M 289.71193,237.92593 C 289.71293,239.43384 289.71293,240.94276 289.71193,242.45267 289.57567,247.25595 289.43859,252.05387 289.30041,256.85597 289.30141,258.227 289.30141,259.59845 289.30041,260.97119 289.30141,262.34294 289.30141,263.71368 289.30041,265.08642 294.65511,264.81087 300.001,264.53672 305.34979,264.26337 308.91662,263.1652 312.48385,262.06759 316.04938,260.97119 316.87315,258.91327 317.69647,256.85497 318.51852,254.79835 319.89046,249.17651 321.263,243.54907 322.63374,237.92593 322.63474,236.27918 322.63474,234.63274 322.63374,232.98765 321.40093,231.88993 320.16561,230.79187 318.93004,229.69547 313.85534,230.10602 308.78015,230.51752 303.7037,230.93004 303.5675,231.20345 303.43036,231.47774 303.29218,231.75309 300.26215,233.40538 297.25752,235.04427 294.23868,236.69136 292.73017,237.10204 291.22185,237.5134 289.71193,237.92593 Z" />
  <path
     style="fill:none;stroke:#000000;stroke-width:1px;stroke-linecap:butt;stroke-linejoin:miter;stroke-opacity:1"
     d="M 275.7203,293.54908 C 274.89754,292.52006 274.0745,294.85202 272.35919,299.10601 270.64388,303.36001 268.03892,309.52965 265.3639,314.60552 262.68887,319.68139 259.94592,323.65867 256.24168,327.706 252.53744,331.75334 247.87486,335.86738 243.55342,339.70866 239.23197,343.54994 235.25482,347.11566 232.8539,349.85926 230.45298,352.60286 229.63014,354.5228 228.66953,357.06151 227.70892,359.60023 226.61221,362.75326 224.27992,365.7032 221.94763,368.65314 218.38245,371.39558 215.15845,373.59071 211.93444,375.78584 209.05468,377.43142 206.79098,378.6662 204.52727,379.90098 202.88186,380.72368 201.92099,382.78226 200.96011,384.84083 200.68596,388.13061 200.41156,391.69777 200.13716,395.26493 199.8629,399.10455 200.13723,402.39733 200.41156,405.69011 201.23438,408.43283 204.73368,407.33474 208.23299,406.23665 214.40439,401.29953 218.79362,397.18449 223.18285,393.06944 225.78962,389.77668 227.98416,387.17072 230.17869,384.56477 231.96255,382.64369 234.2249,377.50183 236.48726,372.35997 239.23222,363.98783 241.49551,357.60954 243.75881,351.23124 245.54233,346.84104 248.2169,342.17783 250.89147,337.51463 254.45898,332.575 257.88811,328.87172 261.31724,325.16845 264.61017,322.69875 267.97015,318.6529 271.33014,314.60705 274.76066,308.98099 276.06347,303.97479 277.36628,298.96859 276.54306,294.5781 275.7203,293.54908 Z"
     id="path4060"
     inkscape:connector-curvature="0"
     inkscape:path-effect="#path-effect4062"
     inkscape:original-d="M 275.72016,290.1893 C 274.89812,292.52026 274.07507,294.85222 273.25103,297.18519 270.64437,303.36021 268.03941,309.52986 265.4321,315.7037 262.68908,319.68153 259.94613,323.65881 257.20165,327.63786 252.53738,331.75327 247.8748,335.86731 243.20988,339.98354 239.23192,343.54988 235.25477,347.1156 231.27572,350.68313 230.45346,352.60307 229.63063,354.52301 228.80658,356.44444 227.7095,359.60043 226.6128,362.75346 225.5144,365.90947 221.94751,368.65299 218.38234,371.39543 214.81481,374.13992 211.93426,375.78552 209.0545,377.4311 206.17284,379.07819 204.52707,379.90057 202.88166,380.72328 201.23457,381.54733 200.96102,384.84091 200.68687,388.13069 200.41152,391.42387 200.13808,395.265 199.86383,399.10462 199.58848,402.9465 200.41275,405.68975 201.23557,408.43247 202.05761,411.17695 208.2329,406.23653 214.40429,401.29941 220.57613,396.36214 223.18298,393.06954 225.78975,389.77678 228.39506,386.4856 230.17873,384.5648 231.96259,382.64372 233.74486,380.72428 236.48786,372.36017 239.23282,363.98803 241.97531,355.6214 243.75932,351.23145 245.54284,346.84125 247.3251,342.45267 250.89165,337.51476 254.45916,332.57513 258.02469,327.63786 261.31712,325.16829 264.61005,322.69859 267.90123,320.23045 271.33042,314.60722 274.76095,308.98117 278.1893,303.35802 277.36743,298.96837 276.54421,294.57788 275.72016,290.1893 Z" />
  <path
     style="fill:none;stroke:#000000;stroke-width:1px;stroke-linecap:butt;stroke-linejoin:miter;stroke-opacity:1"
     d="M 283.67618,320.57272 C 282.71605,319.9551 282.71605,322.14989 282.373,327.84468 282.02995,333.53947 281.34439,342.72595 279.56114,351.29973 277.77788,359.87352 274.89756,367.8287 273.38843,374.41355 271.87929,380.99839 271.74214,386.21022 271.39921,390.8059 271.05629,395.40158 270.5077,399.37885 269.41026,403.28881 268.31281,407.19877 266.66719,411.03857 264.81496,415.9778 262.96273,420.91702 260.90576,426.95079 262.89542,431.27274 264.88508,435.59468 270.91955,438.20048 274.89741,440.12085 278.87527,442.04121 280.79586,443.27588 285.25386,439.22922 289.71185,435.18255 296.70866,425.85348 305.21303,418.30946 313.71741,410.76544 323.73232,405.00344 330.8648,397.25341 337.99728,389.50338 342.25019,379.76285 344.78784,373.86449 347.32548,367.96612 348.14863,365.90826 341.08884,371.04883 334.02906,376.18939 319.0683,388.54231 308.91726,396.36145 298.76621,404.18059 293.41681,407.47253 289.64386,408.50165 285.87091,409.53078 283.6766,408.29649 282.30462,403.97438 280.93263,399.65228 280.38402,392.24599 280.72705,386.00475 281.07009,379.76351 282.30481,374.68744 283.47067,369.95543 284.63653,365.22343 285.73418,360.83284 286.55703,353.90687 287.37989,346.98091 287.92873,337.51335 287.24285,331.06671 286.55696,324.62007 284.6363,321.19034 283.67618,320.57272 Z"
     id="path4064"
     inkscape:connector-curvature="0"
     inkscape:path-effect="#path-effect4066"
     inkscape:original-d="M 282.71605,317.76132 C 282.71705,319.9551 282.71705,322.14989 282.71605,324.34568 282.03087,333.53954 281.34531,342.72602 280.65844,351.9177 277.77844,359.87372 274.89812,367.8289 272.01646,375.78601 271.88027,380.99842 271.74311,386.21025 271.60494,391.42387 271.05713,395.4017 270.50854,399.37897 269.95885,403.35802 268.3133,407.19898 266.66767,411.03878 265.02058,414.88066 262.96332,420.91722 260.90635,426.95099 258.84774,432.98765 264.8856,435.59348 270.92007,438.19927 276.95473,440.80658 278.87602,442.04005 280.79661,443.27472 282.71605,444.51029 289.71201,435.18267 296.70882,425.8536 303.7037,416.52675 313.71722,410.76512 323.73214,405.00312 333.74486,399.2428 337.99775,389.50358 342.25066,379.76306 346.50206,370.02469 347.326,367.96633 348.14915,365.90847 348.97119,363.85185 334.02897,376.18929 319.06822,388.54221 304.11523,400.88889 298.76604,404.18031 293.41664,407.47225 288.06584,410.76543 285.87158,409.52959 283.67727,408.2953 281.48148,407.06173 280.9337,399.6522 280.38509,392.24591 279.83539,384.83951 281.07081,379.76369 282.30553,374.68761 283.53909,369.61317 284.63723,365.22361 285.73488,360.83302 286.83128,356.44444 287.38083,346.98096 287.92967,337.5134 288.47737,328.04938 286.55814,324.61941 284.63749,321.18967 282.71605,317.76132 Z" />
  <path
     style="fill:none;stroke:#000000;stroke-width:1px;stroke-linecap:butt;stroke-linejoin:miter;stroke-opacity:1"
     d="M 421.26213,193.27537 C 420.71321,193.61777 420.85039,194.98951 420.91902,199.03827 420.98765,203.08704 420.98765,209.80421 419.41024,216.04597 417.83283,222.28773 414.67829,228.04819 410.49407,234.01596 406.30985,239.98373 401.0983,246.1553 396.36544,251.57411 391.63258,256.99291 387.38093,261.65602 384.08842,265.5658 380.79592,269.47558 378.46448,272.62988 373.93668,276.60894 369.40889,280.58801 362.68975,285.38739 357.8198,288.9541 352.94985,292.5208 349.93252,294.85237 346.57108,297.39061 343.20964,299.92885 339.5073,302.67132 336.07744,305.34659 332.64759,308.02185 329.49354,310.62736 326.68102,313.09686 323.86849,315.56636 321.40021,317.89752 317.76417,320.50456 314.12812,323.1116 309.32903,325.99106 305.5564,328.18606 301.78378,330.38106 299.04097,331.88961 297.18872,333.32999 295.33646,334.77037 294.37666,336.14152 295.75002,336.89662 297.12338,337.65173 300.82401,337.78879 305.07587,337.51443 309.32772,337.24007 314.13006,336.55402 319.34206,335.38814 324.55406,334.22226 330.17952,332.57578 333.81439,330.99813 337.44925,329.42049 339.09569,327.91125 340.87826,325.92293 342.66082,323.93461 344.58248,321.46391 347.46239,318.65265 350.3423,315.8414 354.1849,312.68498 357.27085,309.46173 360.35679,306.23848 362.68942,302.94537 366.18669,299.31105 369.68396,295.67673 374.34949,291.6973 378.73864,288.40551 383.12779,285.11371 387.24396,282.5068 391.90698,277.7065 396.57,272.9062 401.78409,265.90835 405.14474,261.38176 408.50538,256.85517 410.01454,254.79722 414.12809,251.4379 418.24163,248.07858 424.96685,243.4121 429.69895,239.09127 434.43105,234.77045 437.175,230.79172 438.95789,227.01993 440.74078,223.24814 441.56406,219.68059 441.2897,215.84067 441.01534,212.00075 439.64314,207.88417 437.24302,204.52395 434.8429,201.16374 431.41304,198.55704 429.08121,196.97957 426.74938,195.40211 425.51486,194.85343 424.28,194.23601 423.04514,193.61859 421.81104,192.93297 421.26213,193.27537 Z"
     id="path4068"
     inkscape:connector-curvature="0"
     inkscape:path-effect="#path-effect4070"
     inkscape:original-d="M 420.57613,192.24691 C 420.71431,193.61766 420.85148,194.9894 420.98765,196.36214 420.98865,203.08704 420.98865,209.80421 420.98765,216.52675 417.83318,222.28792 414.67864,228.04838 411.52263,233.8107 406.30994,239.98381 401.09839,246.15538 395.88477,252.32922 391.63263,256.99295 387.38097,261.65606 383.12757,266.32099 380.79609,269.4757 378.46465,272.63 376.13169,275.78601 369.40875,280.58782 362.68961,285.3872 355.96708,290.1893 352.94974,292.52066 349.93241,294.85222 346.91358,297.18519 343.20951,299.92868 339.50717,302.67115 335.80247,305.41564 332.6475,308.02174 329.49346,310.62726 326.33745,313.23457 323.86846,315.56633 321.40018,317.89749 318.93004,320.23045 314.12795,323.11131 309.32885,325.99077 304.52675,328.87243 301.78359,330.38071 299.04078,331.88926 296.2963,333.39918 295.33666,334.77051 294.37686,336.14166 293.41564,337.5144 297.12342,337.65069 300.82405,337.78775 304.52675,337.92593 309.3276,337.23923 314.12994,336.55318 318.93004,335.86831 324.55387,334.22161 330.17933,332.57513 335.80247,330.93004 337.44921,329.42044 339.09565,327.91121 340.74074,326.40329 342.66096,323.93472 344.58262,321.46402 346.50206,318.99588 350.34221,315.84129 354.18481,312.68487 358.02469,309.53086 360.35699,306.23862 362.68961,302.9455 365.02058,299.65432 369.68389,295.67664 374.34942,291.69722 379.01235,287.72016 383.12763,285.11345 387.2438,282.50654 391.35802,279.90123 396.57017,272.90633 401.78426,265.90847 406.99588,258.91358 408.50556,256.8553 410.01472,254.79735 411.52263,252.74074 418.24149,248.07837 424.96671,243.41189 431.68724,238.74897 434.43126,234.7706 437.17521,230.79187 439.9177,226.81481 440.7415,223.24831 441.56479,219.68076 442.38683,216.11523 441.01654,212.00035 439.64435,207.88377 438.2716,203.76955 434.84375,201.16262 431.41389,198.55593 427.98354,195.95062 426.74992,195.4009 425.5154,194.85222 424.27984,194.30453 423.0458,193.6174 421.8117,192.93178 420.57613,192.24691 Z" />
  <path
     style="fill:none;stroke:#000000;stroke-width:1px;stroke-linecap:butt;stroke-linejoin:miter;stroke-opacity:1"
     d="M 359.94563,349.44875 C 362.41463,351.09484 370.09638,355.21007 378.1208,360.14818 386.14522,365.08629 394.51325,370.84788 404.25256,376.60915 413.99187,382.37042 425.10326,388.13188 435.45975,393.55018 445.81623,398.96847 455.41875,404.04409 460.63129,404.5236 465.84382,405.00312 466.6669,400.88774 465.70689,396.97928 464.74688,393.07083 462.00262,389.36609 458.50495,386.07413 455.00727,382.78217 450.75468,379.90138 444.1703,377.15785 437.58592,374.41432 428.67006,371.80815 416.46098,368.10427 404.2519,364.40039 388.75234,359.59964 379.3152,356.32203 369.87806,353.04441 366.3927,351.23202 363.30626,349.92882 360.21982,348.62562 357.47663,347.80266 359.94563,349.44875 Z"
     id="path4072"
     inkscape:connector-curvature="0"
     inkscape:path-effect="#path-effect4074"
     inkscape:original-d="M 354.73251,346.97942 C 362.41527,351.09365 370.09702,355.20888 377.77778,359.3251 386.14601,365.08515 394.51403,370.84674 402.88066,376.60905 413.99249,382.36922 425.10388,388.13069 436.21399,393.893 445.81686,398.96728 455.41938,404.0429 465.02058,409.11934 465.84459,405.00327 466.66767,400.88789 467.48971,396.77366 464.748,393.07 462.00374,389.36526 459.25926,385.66255 455.00805,382.78102 450.75546,379.90023 446.50206,377.02058 437.58627,374.41313 428.67041,371.80696 419.75309,369.20165 404.25227,364.3992 388.75271,359.59845 373.25103,354.79835 369.82253,353.1512 366.39332,351.23082 362.96296,349.44856 360.22018,348.62442 357.47699,347.80147 354.73251,346.97942 Z" />
  <path
     style="stroke-width:2.4920063"
     d="M 162.05053,162.85362 C 162.05053,155.3153 162.51769,152.23144 163.08867,156.0006 163.65965,159.76976 163.65965,165.93748 163.08867,169.70664 162.51769,173.4758 162.05053,170.39194 162.05053,162.85362 Z"
     id="path4076"
     inkscape:connector-curvature="0" />
  <path
     style="stroke-width:2.4920063"
     d="M 147.97619,384.01918 C 141.59985,371.3411 136.38303,360.03285 136.38327,358.88971 136.3835,357.74658 141.01114,360.4763 146.66691,364.95575 156.25913,372.55293 157.36806,372.86005 163.16997,369.52617 169.98845,365.60816 172.5753,361.22736 191.29479,321.897 202.1763,299.03455 203.72496,293.94443 202.28847,285.76291 199.56885,270.27325 195.29222,265.70749 180.68431,262.69814 166.80129,259.83812 155.59209,261.6638 145.19061,268.47911 142.14713,270.47328 133.12024,273.31325 125.13087,274.79017 117.1415,276.26709 108.03394,279.15992 104.89185,281.2187 97.499689,286.06223 92.708498,285.94129 83.813062,280.68662 75.291874,275.65303 74.757697,273.41472 81.562205,271.25505 90.225396,268.50546 92.423354,260.3338 91.892999,232.8468 91.169048,195.32612 87.947604,175.8834 81.278599,168.78457 78.224244,165.53336 76.1969,162.5885 76.773389,162.24045 77.349878,161.89239 80.038852,160.38009 82.748887,158.87977 92.71411,153.36286 94.933667,120.35894 86.281002,106.35863 81.706229,98.956492 81.428683,96.917642 84.113474,90.435983 88.865676,78.96315 91.638659,79.198962 91.207047,91.039211 90.991313,96.957352 92.608062,106.28508 94.799823,111.76749 96.991584,117.24991 98.834063,128.12786 98.894223,135.94073 99.026608,153.13343 101.80697,155.37191 119.54621,152.56772 140.29813,149.28728 151.28478,134.58296 151.32184,110.03979 151.33195,103.34385 149.82664,99.779063 145.79724,96.956761 139.48504,92.535526 128.64239,91.84753 124.86159,95.628335 123.12174,97.368182 120.96177,96.688679 118.06805,93.491153 113.97938,88.973215 114.26965,88.75047 126.06686,87.353264 132.79966,86.555865 145.13061,83.031985 153.46896,79.522421 161.80731,76.012857 170.86413,73.141395 173.59522,73.141395 176.32631,73.141395 184.87521,70.778889 192.59276,67.891382 201.13376,64.695782 207.52181,63.538503 208.91728,64.933978 212.94256,68.959252 200.56947,77.446365 186.32559,80.430368 165.48236,84.796897 164.1284,86.898785 165.65476,112.51985 166.36499,124.44148 167.23499,134.53913 167.58811,134.95906 167.94122,135.37899 173.97022,133.84508 180.98588,131.55038 191.59194,128.08131 194.99803,127.8986 201.19676,130.46619 211.18196,134.6022 210.58916,137.37583 199.30686,139.30866 187.87216,141.26761 163.56778,147.25871 162.6236,148.35119 162.24505,148.78921 161.13613,159.67656 160.15934,172.5453 L 158.38335,195.94302 164.20457,194.16533 C 182.2021,188.6692 191.12395,187.55343 196.03935,190.18408 203.72203,194.29572 202.27571,197.33718 191.83084,199.03414 173.79743,201.96399 161.34781,207.87206 157.49095,215.33041 155.45227,219.27277 153.5137,229.54388 153.183,238.15509 L 152.58174,253.81185 H 174.29959 C 193.3191,253.81185 196.69792,254.4901 201.49435,259.27078 210.86775,268.6134 210.53387,286.60738 200.41655,317.35801 186.65927,359.17193 165.29689,407.07024 160.40539,407.07024 159.94568,407.07024 154.35253,396.69726 147.97619,384.01918 Z M 124.43332,262.43414 C 138.85696,258.42821 144.21933,249.6661 143.34338,231.53512 142.68043,217.81278 142.07626,216.3557 136.73594,215.59995 133.50317,215.14246 123.69089,218.29659 114.93089,222.60912 L 99.003605,230.4501 V 246.07665 C 99.003605,254.67126 99.751206,262.45081 100.66494,263.36454 103.09277,265.79237 113.85922,265.37092 124.43332,262.43414 Z M 135.27995,205.16364 C 138.67738,203.87194 142.55838,199.91848 143.90441,196.37817 147.71455,186.35671 146.93624,166.441 142.5936,162.83693 137.99053,159.01672 121.40269,160.61009 108.34863,166.12638 99.165458,170.00693 99.003605,170.3121 99.003605,183.74629 99.003605,191.26532 100.15087,200.4348 101.55309,204.12292 103.98565,210.52103 104.67589,210.75253 116.6027,209.17038 123.47776,208.25837 131.88253,206.45534 135.27995,205.16364 Z"
     id="path4078"
     inkscape:connector-curvature="0" />
  <path
     style="stroke-width:2.4920063"
     d="M 261.03942,121.01324 C 261.00895,116.50418 258.74121,108.41868 256,103.04547 249.33829,89.987445 249.62186,87.930366 259.38853,78.464133 263.99343,74.000888 269.11111,65.843156 270.76114,60.335842 273.31348,51.816887 273.14997,49.389692 269.66549,44.071709 264.89161,36.785844 264.79837,36.93699 275.29974,34.938212 282.96395,33.479445 283.77932,34.077841 290.94105,46.417289 296.84183,56.584164 298.1725,61.273195 297.01663,67.826603 295.55167,76.132493 295.6207,76.205608 303.80338,75.014536 308.3501,74.352714 324.40557,68.991701 339.48221,63.101174 369.92786,51.205885 386.81934,49.026744 391.49348,56.391292 395.02822,61.960625 390.25068,65.571784 379.27439,65.627216 375.11862,65.648204 365.5867,67.412985 358.09233,69.548954 322.39694,79.722499 305.98958,83.021223 293.38009,82.559444 278.72154,82.022624 261.72551,88.245502 259.08965,95.114451 258.22083,97.378543 260.28129,100.95415 264.3025,104.16055 272.17913,110.44116 272.54482,114.57357 265.96803,122.98152 L 261.09484,129.21154 Z"
     id="path4080"
     inkscape:connector-curvature="0" />
  <path
     style="stroke-width:2.4920063"
     d="M 239.17896,156.2192 C 233.53435,153.94155 235.91973,148.88133 245.63713,142.51916 255.00772,136.38406 255.32999,136.34832 260.86525,140.83049 268.06404,146.65972 273.8797,146.6276 281.17737,140.71831 286.29063,136.57784 286.62191,135.2612 283.99888,129.50428 279.9802,120.68424 284.01953,121.26839 291.91257,130.64874 301.55647,142.10987 300.58248,147.90158 289.01115,147.90158 283.86703,147.90158 271.81552,150.14439 262.23002,152.8856 243.70377,158.18363 243.95668,158.14705 239.17896,156.2192 Z"
     id="path4082"
     inkscape:connector-curvature="0" />
  <path
     style="stroke-width:2.4920063"
     d=""
     id="path4084"
     inkscape:connector-curvature="0" />
  <path
     style="stroke-width:0.82469243"
     d="M 226.2983,299.32697 C 223.69504,298.06248 215.47036,291.53296 215.02765,290.37926 214.77338,289.71664 215.22453,288.4461 216.03021,287.55583 217.25386,286.20371 218.58428,285.93716 224.10931,285.93716 231.87816,285.93716 271.22635,279.19378 275.6182,277.10971 279.829,275.11156 281.05706,271.51171 280.48424,262.84577 280.2294,258.99034 279.42486,254.16727 278.69637,252.12785 277.11308,247.69536 273.10229,243.31784 270.00015,242.6365 266.74217,241.92093 257.99603,244.17612 247.03188,248.55886 235.36028,253.2244 230.31908,253.83791 223.83699,251.38166 218.07783,249.19934 213.98989,246.02158 215.26491,244.71814 215.76644,244.20544 220.77644,243.28562 226.39825,242.6741 232.02006,242.06258 238.66084,240.84271 241.15554,239.96329 245.68533,238.36644 254.96056,236.05975 266.81224,233.58263 271.39039,232.62574 273.62186,231.70163 275.05917,230.16736 276.92239,228.17843 277.02253,227.54038 276.89875,218.44617 276.74747,207.3317 275.55076,202.73005 272.42156,201.23028 269.50103,199.83053 266.41871,200.82952 257.28844,206.13499 L 249.81481,210.4778 241.56788,210.46405 C 235.0223,210.45314 232.64042,210.11287 230.02219,208.81466 224.58387,206.11818 225.21091,204.61799 232.24542,203.49556 241.72026,201.98374 264.15033,196.29868 266.36468,194.84778 268.96625,193.14316 268.93987,190.04399 266.28714,185.73703 264.00969,182.03937 263.57458,176.6631 265.35565,174.22735 267.00478,171.97203 269.60459,172.98522 277.97032,179.14352 288.69112,187.03547 287.48765,186.77052 296.91053,183.31319 316.73993,176.03762 318.67663,174.70895 318.67663,168.3804 318.67663,166.44066 317.74885,160.92709 316.61489,156.12801 315.48094,151.32893 314.55316,146.45965 314.55316,145.3074 314.55316,141.31027 316.93106,137.57568 324.86067,129.119 334.18188,119.17824 340.39201,110.26956 342.16707,104.29229 342.86276,101.94968 343.67133,96.380269 343.9639,91.915822 344.47688,84.088049 344.57817,83.756076 346.80476,82.604663 349.06385,81.436439 349.20865,81.504117 353.5161,85.741693 358.02835,90.180755 360.73594,94.727882 360.73594,97.8667 360.73594,101.11925 358.33618,104.33815 352.13152,109.40816 342.64238,117.16201 340.49758,121.23726 344.5191,123.87225 347.0508,125.53109 358.52816,126.93037 363.12543,126.14067 368.46484,125.22348 368.91516,123.87705 366.16628,117.04869 363.79411,111.15611 363.80556,108.38446 366.20589,107.46337 369.33583,106.26229 380.88618,113.96781 385.49712,120.33302 388.58491,124.5956 388.89332,129.95245 386.20568,132.64009 384.2289,134.61688 380.49929,134.4907 372.30021,132.16966 366.46749,130.5185 365.35443,130.89602 350.10945,139.69621 334.28804,148.82915 334.05467,149.05678 334.61335,154.81106 335.20584,160.91338 337.37564,167.73723 339.35194,169.71353 341.41664,171.77823 343.17549,171.38157 353.31371,166.56485 362.32162,162.28515 366.45744,161.82349 372.32354,164.44286 377.55009,166.77666 382.32336,171.11712 382.01317,173.25392 381.70703,175.3628 377.27655,178.42776 372.77559,179.64437 370.77254,180.18579 366.70706,180.35495 362.79767,180.05953 340.80192,178.39739 342.31727,178.37964 340.57236,180.31975 339.2965,181.73833 338.83588,183.93043 338.34239,190.93221 338.00032,195.78573 337.47354,202.72569 337.17177,206.35434 336.66894,212.40073 336.76842,213.0825 338.36251,214.51535 339.37829,215.42837 341.80444,216.2424 344.19429,216.47204 347.76815,216.81544 349.1446,216.43448 355.05773,213.46536 362.80599,209.57478 367.95431,209.0831 375.16806,211.54477 378.75573,212.76905 379.2619,213.21612 379.06352,214.98551 378.93811,216.104 378.28012,217.86678 377.6013,218.9028 376.39661,220.74137 376.02704,220.78732 362.16014,220.82256 340.665,220.87717 337.8645,222.29297 335.57981,234.26026 333.36375,245.8681 334.56174,255.80639 338.42636,257.87467 340.80037,259.1452 351.14017,256.45127 359.31691,252.43187 366.46784,248.91672 367.24366,248.71518 372.33173,249.05101 377.41692,249.38665 382.17794,251.30203 382.17794,253.01218 382.17794,254.32046 378.47503,257.217 373.69412,259.64851 369.84841,261.60439 366.16858,262.48099 354.74846,264.1617 346.65969,265.35214 338.65659,267.022 336.10543,268.05161 332.01949,269.70063 331.37388,270.33736 328.59283,275.46097 326.91946,278.54389 324.98665,281.62996 324.29771,282.3189 323.17736,283.43925 322.9338,283.3028 321.99093,281.02652 321.41114,279.62678 319.79565,277.52135 318.40095,276.34779 314.85193,273.36148 310.62739,273.9408 298.85869,279.02765 L 289.40004,283.11601 288.63921,286.79449 C 288.22075,288.81766 287.47853,290.74562 286.98982,291.07886 285.06643,292.3904 281.95686,291.61359 279.46596,289.19932 L 276.87558,286.68862 261.69581,291.63095 C 239.80924,298.75691 229.66522,300.96239 226.2983,299.32697 Z M 305.9486,264.42264 C 315.86715,262.60409 317.98962,260.23921 321.05679,247.58896 323.91212,235.81239 323.97604,234.48189 321.80761,231.96093 319.97458,229.8299 319.53164,229.72514 312.57043,229.77623 305.56326,229.82768 304.93749,229.99036 297.5511,233.68106 293.31197,235.7992 289.67748,238.12498 289.47447,238.84947 289.27146,239.57397 288.851,245.10074 288.54012,251.13121 287.84109,264.69104 288.17054,265.31985 295.97394,265.31985 298.76861,265.31985 303.25721,264.91611 305.9486,264.42264 Z M 303.55203,221.14531 C 306.98836,220.43552 311.80992,218.96585 314.26662,217.87938 319.81709,215.4247 321.19152,212.62773 321.77514,202.5994 322.25527,194.34965 320.95315,190.67133 317.21841,189.72721 315.97932,189.41397 311.47547,189.74964 307.20986,190.47314 298.06219,192.0247 293.26972,194.78831 291.76399,199.3801 291.24984,200.94803 290.69317,206.29671 290.52695,211.26606 290.22792,220.2062 290.24643,220.31234 292.28647,221.35639 294.94729,222.71813 296.03631,222.69772 303.55203,221.14531 Z"
     id="path4086"
     inkscape:connector-curvature="0" />
  <path
     style="stroke-width:0.82469243"
     d="M 297.85314,336.49961 C 297.05938,336.29218 296.40993,335.80141 296.40993,335.40902 296.40993,335.01662 301.32716,331.73284 307.3371,328.11174 313.34705,324.49063 321.19507,318.99389 324.77714,315.89675 328.35922,312.79961 341.33392,302.6578 353.60982,293.35939 374.21828,277.74948 376.61737,275.66278 384.89898,266.14454 417.4834,228.69452 420.76924,223.13514 421.57811,204.08644 421.80442,198.75686 422.23711,194.3963 422.53962,194.3963 423.52651,194.3963 431.18901,199.45689 433.59195,201.69566 437.60749,205.43686 440.18493,211.46006 440.1732,217.07534 440.15324,226.63242 435.54909,233.31522 421.01514,244.88279 409.49923,254.04831 410.22838,253.32407 402.8376,262.93789 393.48471,275.10399 390.21372,278.48078 380.52856,285.96851 374.26161,290.81357 365.34774,299.19589 354.24988,310.68013 344.57645,320.69035 336.09171,328.75515 334.23961,329.70003 326.34368,333.72823 303.54856,337.98798 297.85314,336.49961 Z"
     id="path4088"
     inkscape:connector-curvature="0" />
  <path
     style="stroke-width:0.82469243"
     d=""
     id="path4090"
     inkscape:connector-curvature="0" />
  <path
     style="stroke-width:0.82469243"
     d="M 275.15207,439.29616 C 268.70784,436.43366 264.37622,432.91989 263.53474,429.87231 262.55655,426.32961 263.35572,422.61876 267.56584,411.15437 269.73377,405.25096 271.08573,399.82778 271.67763,394.66052 273.55556,378.26626 274.26601,374.25675 277.0603,364.28294 280.44837,352.18976 282.18546,342.4452 283.08781,330.47055 283.69932,322.35544 283.80838,321.96676 284.82328,324.28536 286.3692,327.8171 286.88162,342.92253 285.77409,352.31347 285.25492,356.7156 283.86781,364.27128 282.69164,369.10386 279.0214,384.1838 279.20846,401.90252 283.09346,407.16695 287.28114,412.84151 293.83401,409.55367 320.32601,388.48585 339.88394,372.93236 344.19649,369.73528 344.80195,370.34075 345.66369,371.20249 337.30718,387.44871 333.22576,392.84652 329.53007,397.73417 324.67081,402.03393 312.49143,411.19348 309.31637,413.58129 301.14952,421.25996 294.34289,428.25716 286.233,436.59411 281.4005,440.95926 280.32312,440.92108 279.41888,440.88905 277.0919,440.15783 275.15207,439.29616 Z"
     id="path4092"
     inkscape:connector-curvature="0" />
  <path
     style="stroke-width:0.82469243"
     d="M 455.73245,402.23314 C 450.73985,400.43681 421.5069,385.44703 409.54717,378.55071 405.15324,376.01705 396.1771,370.54419 389.60018,366.38878 383.02325,362.23338 376.34324,358.02476 374.75571,357.03631 373.16818,356.04785 372.18046,355.23286 372.56079,355.22522 372.94111,355.21758 382.40445,358.14983 393.59044,361.74134 404.77643,365.33284 420.05194,370.18749 427.53603,372.52943 435.02011,374.87138 443.91809,378.1106 447.3093,379.7277 454.88511,383.34023 462.03921,390.15386 464.19607,395.81085 465.58502,399.45378 465.59331,399.84891 464.32154,401.78987 462.70476,404.2574 461.52739,404.31816 455.73245,402.23314 Z"
     id="path4094"
     inkscape:connector-curvature="0" />
  <path
     style="stroke-width:0.82469243"
     d="M 201.15932,403.05158 C 200.52151,399.27643 201.3129,388.20766 202.49568,384.36074 203.13779,382.27229 204.79181,380.86272 210.88597,377.21052 221.30069,370.96903 225.03987,367.12947 228.95394,358.65746 232.31851,351.37486 234.46287,348.89047 246.77189,338.01403 250.03303,335.13244 252.70123,332.98206 252.70123,333.23542 252.70123,333.48878 251.73797,335.10423 250.56066,336.8253 246.82823,342.28158 243.12512,350.3359 239.07403,361.80887 233.4397,377.7657 232.1205,380.44836 226.43913,387.5026 218.90225,396.86075 207.36416,406.34226 203.51308,406.34226 202.05906,406.34226 201.60896,405.713 201.15932,403.05158 Z"
     id="path4096"
     inkscape:connector-curvature="0" />
  <path
     style="stroke-width:0.82469243"
     d="M 56.424428,351.66383 C 49.799857,349.01593 47.300177,347.4743 43.900236,343.93978 38.261093,338.07743 33.163636,325.75017 37.250329,327.8582 39.341187,328.93673 56.270827,327.57659 65.496045,325.58892 69.805063,324.66049 78.353074,322.97956 84.491624,321.85352 98.506411,319.28268 104.4445,317.44859 116.50577,311.9654 121.78861,309.56376 128.52317,306.82158 131.47144,305.87167 136.34135,304.30263 154.32012,299.95693 155.94157,299.95693 156.31182,299.95693 151.90394,303.10321 146.14627,306.94866 140.38861,310.79411 132.59747,316.83778 128.83263,320.37904 L 121.98748,326.8177 105.08128,332.8864 C 84.185307,340.38728 77.926722,343.45434 71.948635,349.12326 67.924504,352.93927 66.82545,353.55597 64.114056,353.51939 62.379456,353.49599 58.919123,352.66099 56.424428,351.66383 Z"
     id="path4098"
     inkscape:connector-curvature="0" />
  <path
     style="stroke-width:0.82469243"
     d="M 261.77285,322.9076 C 261.77285,322.64132 263.03506,320.32735 264.57776,317.76544 266.12046,315.20354 268.97281,309.31357 270.91631,304.67662 272.85982,300.03968 274.75206,295.89326 275.12129,295.46236 275.49052,295.03146 275.79262,296.56571 275.79262,298.87181 275.79262,304.39218 270.77602,314.58039 265.52954,319.71509 263.46336,321.73724 261.77285,323.17387 261.77285,322.9076 Z"
     id="path4100"
     inkscape:connector-curvature="0" />
</svg>
