<?xml version="1.0" standalone="no"?>
<!DOCTYPE svg PUBLIC "-//W3C//DTD SVG 1.1//EN" "http://www.w3.org/Graphics/SVG/1.1/DTD/svg11.dtd" >
<svg xmlns="http://www.w3.org/2000/svg" xmlns:xlink="http://www.w3.org/1999/xlink" version="1.1" viewBox="0 0 256 256">
  <g transform="matrix(1 0 0 -1 0 204)">
   <path fill="currentColor"
d="M138 90q1 4 5 2q7 -2 14 -8q3 -3 0 -4q-6 -3 -7 -7q-5 -50 8 -84q0 -2 -2 -3q-3 -1 -4 1q-7 8 -9 9q-7 4 -11 9q-3 2 1 2q18 -9 15 -1q0 3 -1 12q-1 12 -1 17q-4 -1 -11 -3t-17 -3q0 -16 2 -31q0 -6 -2 -6q-5 0 -4 5q-1 3 -1 10q-1 3 1 6q1 23 -1 67q0 3 2 -1q9 8 23 11z
M73 108q7 0 15 -2q2 -1 2 -2q0 -2 -2 -3h-1q-25 -10 -40 -34q-1 -3 1 -2q9 1 24 10q1 3 4 6q2 2 6 1q1 -1 4 -2h4t2 -2t-6 -5q-15 -6 -28 -23q-6 -7 0 -19q5 6 17 12v1q1 2 3 2q10 -2 12 -4q3 -2 0 -4q-3 0 -4 -2q-3 -7 -6 -11q5 1 10 1q0 -1 1 -1q3 -1 2 -2q-2 -5 -6 -3
q-8 1 -18 -2q-4 -2 -5 -2t0 3q0 1 3 3q8 2 10 13q0 2 -1 2h-3q-8 -2 -12 -7l-1 -1q-2 -1 0 -4q0 -12 7 -17q1 -2 0 -4q-2 -4 -5 1q-1 0 -2 2l-5 5q-2 0 -1 3q-1 1 -1 3q1 0 1 1q1 1 1 3q0 7 -3 13q-5 9 12 28q1 1 0 2h-3q-2 -2 -8 -4q-2 -1 -3 -1q-3 -1 -5 1q-3 1 -1 4
q5 11 21 28q1 2 -1 1q-7 -3 -14 -3q-2 0 0 2q19 7 21 13v1q1 0 2 1zM143 79q-1 11 -6 8q-2 -2 -6 -4q-3 -1 -4 -2q-3 -1 -9 -4q-1 -1 -2 -1q0 -2 1 -10q0 -5 1 -10q10 7 20 9q2 -1 1 -2q-2 -3 -6 -7q-5 -2 -6 -4l-3 -3v-1q-2 -1 0 3q1 3 -1 3q-1 1 -5 0q-1 -7 -1 -17
q0 -4 1 -5q1 0 4 1q8 3 13 6h1q3 2 9 1q-1 16 -2 39zM187 104q-3 2 1 1q11 -12 11 -14q-1 -3 -1 -6q-3 -9 -2 -15q0 -57 11 -87q0 -3 -3 -4q-4 -1 -4 1q-6 11 -12 16l-3 3q-6 3 -8 9q-4 5 1 1q13 -9 17 -11h2q1 1 1 2q-6 55 -7 84q0 10 -4 20zM152 174q14 -2 19 -12
q13 -24 40 -61q2 -5 11 -5q17 -2 30 -5q6 -2 0 -2h-13h-11q-12 -1 -17 8q-20 25 -44 64q-5 7 -16 11q-4 1 1 2zM99 144h11q4 -2 4 -3q0 -3 -3 -3q-16 -2 -35 -12q-4 -2 -1 1q7 5 13 8q1 2 -1 1q-9 -3 -26 -9q-19 -7 -31 -10q-7 -3 -21 0q-2 1 1 2q9 -1 23 4q15 3 33 10
q16 5 27 8q4 3 6 3zM145 189q8 3 15 1q2 -1 3 -2q0 -2 -2 -2q-11 -3 -27 -37q-15 -30 -35 -55q-4 -4 -1 1q24 34 46 80q6 13 1 11q-3 0 -3 1t3 2zM70 185q4 -2 10 -1l8 -2q5 -5 10 -7q2 -1 1 -3q-3 -5 -6 -3q-4 1 -14 -1q-7 -2 -11 0q-3 0 0 2q10 4 7 8q-3 1 -6 5q-2 1 1 2z
M182 127q2 -1 2 -3q0 -1 -2 -1q-15 0 -46 -12q-6 -3 -18 0q-6 1 0 2q25 1 41 13q2 4 8 2q5 -2 15 -1zM169 66q7 -14 7 -31q-1 -3 -2 -1q-3 2 -5 6l-3 6q-2 2 1 4q3 0 1 15q-1 4 1 1z" />
  </g>

</svg>
